<?xml version="1.0" encoding="utf-8"?>
<!-- Generator: Adobe Illustrator 24.0.3, SVG Export Plug-In . SVG Version: 6.00 Build 0)  -->
<svg version="1.1" id="Layer_2" xmlns="http://www.w3.org/2000/svg" xmlns:xlink="http://www.w3.org/1999/xlink" x="0px" y="0px"
	 viewBox="0 0 39.8 46.1" style="enable-background:new 0 0 39.8 46.1;" xml:space="preserve">
<style type="text/css">
	.st0{fill:none;stroke:#000000;stroke-width:2;stroke-linecap:round;stroke-miterlimit:10;}
</style>
<g>
	<line class="st0" x1="1.5" y1="24" x2="38.4" y2="24"/>
	<path class="st0" d="M4.6,24.4v7.1c0,2.9,1.9,6.6,4.5,6.6H31c2.2,0,4.8-3.5,4.8-5.5v-8.2"/>
	<path class="st0" d="M6.9,41.6c0-0.6,0-2.6,1.2-3.7"/>
	<path class="st0" d="M33.4,41.6c0-0.6,0-2.6-1.2-3.7"/>
	<path class="st0" d="M4.6,23.4V7.9c0-3.4,4-4.7,6.7-1.8"/>
	<path class="st0" d="M19.9,8.5L13.5,15c-1.9-2.1-3.2-6.8-1.6-8.4C13.5,5,17.3,6.2,19.9,8.5z"/>
</g>
<g>
</g>
<g>
</g>
<g>
</g>
<g>
</g>
<g>
</g>
<g>
</g>
</svg>
