<?xml version="1.0" encoding="utf-8"?>
<!-- Generator: Adobe Illustrator 24.0.3, SVG Export Plug-In . SVG Version: 6.00 Build 0)  -->
<svg version="1.1" id="Layer_3" xmlns="http://www.w3.org/2000/svg" xmlns:xlink="http://www.w3.org/1999/xlink" x="0px" y="0px"
	 viewBox="0 0 39.8 46.1" style="enable-background:new 0 0 39.8 46.1;" xml:space="preserve">
<style type="text/css">
	.st0{fill:none;stroke:#000000;stroke-width:1.6283;stroke-linecap:round;stroke-miterlimit:10;}
	.st1{fill:none;stroke:#000000;stroke-width:1.8981;stroke-linecap:round;stroke-miterlimit:10;}
	.st2{fill:none;stroke:#000000;stroke-width:2.0258;stroke-linecap:round;stroke-miterlimit:10;}
</style>
<g>
	<line class="st0" x1="22.7" y1="33.6" x2="15.4" y2="44.4"/>
	<line class="st0" x1="26.1" y1="33.5" x2="33" y2="44.5"/>
	<line class="st1" x1="24.4" y1="33.7" x2="24.4" y2="45"/>
	<path class="st2" d="M35.6,25H12.3c0,4.7,6,8.7,12.1,8.7C29.5,33.7,35.6,30.4,35.6,25z"/>
	<g>
		<path class="st2" d="M4.8,12.9C4.5,17.7,6.9,23.2,12,24l3.4-22.7C11.3,0.6,7,4.6,5.4,9.5"/>
		<path class="st2" d="M5.4,9.5C5,9.2,4.5,8.9,4,8.9c-1.2,0-2.1,0.9-2.1,2.1c0,1.1,0.9,2.1,2.1,2.1c0.3,0,0.5-0.1,0.8-0.2
			c0-0.4,0.1-0.8,0.1-1.2C5,11,5.2,10.2,5.4,9.5z"/>
	</g>
	<path class="st2" d="M20,14.1c0.4,0.5,1,0.9,1.1,1.6c0.1,0.7-0.3,1.2-0.6,1.7c-0.4,0.6-0.8,1.4-0.6,2.1c0.2,0.8,0.9,1.4,1,2.3
		c0,0.7-0.1,1.3-0.5,1.8"/>
	<path class="st2" d="M23.7,14.1c0.4,0.5,1,0.9,1.1,1.6c0.1,0.7-0.3,1.2-0.6,1.7c-0.4,0.6-0.8,1.4-0.6,2.1c0.2,0.8,0.9,1.4,1,2.3
		c0,0.7-0.1,1.3-0.5,1.8"/>
	<path class="st2" d="M27.6,14.1c0.4,0.5,1,0.9,1.1,1.6c0.1,0.7-0.3,1.2-0.6,1.7c-0.4,0.6-0.8,1.4-0.6,2.1c0.2,0.8,0.9,1.4,1,2.3
		c0,0.7-0.1,1.3-0.5,1.8"/>
</g>
<g>
</g>
<g>
</g>
<g>
</g>
<g>
</g>
<g>
</g>
<g>
</g>
</svg>
