<svg id="Dryer" xmlns="http://www.w3.org/2000/svg" viewBox="0 0 41.01 47.32"><defs><style>.cls-1,.cls-3{fill:none;stroke-miterlimit:10;}.cls-1{stroke:#231f20;stroke-width:3px;}.cls-2{fill:#231f20;}.cls-3{stroke:#fff;stroke-linecap:round;stroke-width:2px;}</style></defs><title>dryer</title><path class="cls-1" d="M19.21,45.82H35.52c2.66,0,4-2.49,4-4.32V6.81A5.52,5.52,0,0,0,34,1.5H6.31A5.16,5.16,0,0,0,1.5,6.81V41.5c0,1.83,1.16,4.32,3.49,4.32Z"/><circle class="cls-2" cx="8.52" cy="9.09" r="2.2"/><circle class="cls-2" cx="16.13" cy="9.09" r="2.2"/><circle class="cls-2" cx="20.5" cy="27.42" r="12.58"/><path class="cls-3" d="M15.48,20.55c2.05,2.05,2.84,3.19,2.84,5.13S15.48,28,15.48,30.35,17.65,33,18.9,34.23"/><path class="cls-3" d="M22.35,20.55c2,2.05,2.85,3.19,2.85,5.13S22.35,28,22.35,30.35s2.17,2.63,3.42,3.88"/></svg>