<?xml version="1.0" encoding="utf-8"?>
<!-- Generator: Adobe Illustrator 24.0.3, SVG Export Plug-In . SVG Version: 6.00 Build 0)  -->
<svg version="1.1" id="Layer_3" xmlns="http://www.w3.org/2000/svg" xmlns:xlink="http://www.w3.org/1999/xlink" x="0px" y="0px"
	 viewBox="0 0 39.8 46.1" style="enable-background:new 0 0 39.8 46.1;" xml:space="preserve">
<style type="text/css">
	.st0{fill:none;stroke:#000000;stroke-width:2;stroke-linecap:round;}
</style>
<g>
	<path class="st0" d="M13.1,13.6c-8.8,8.7-4.2,21,6.6,21c8.9,0,11.6-6,11.6-12c0-7.8-10.7-11.7-11.4-19.9
		c-6.1,5.7,0.9,11.6,1.1,19.3C21.1,28.6,10.5,23.2,13.1,13.6z"/>
	<g>
		<polyline class="st0" points="29,38.9 36.8,37.5 36.2,34.3 19.9,37.2 		"/>
		<polyline class="st0" points="10.8,38.9 3,40.3 3.6,43.5 19.9,40.5 		"/>
		<polyline class="st0" points="19.9,37.2 3.6,34.3 3,37.5 10.8,38.9 		"/>
		<polyline class="st0" points="19.9,40.5 36.2,43.5 36.8,40.3 29,38.9 		"/>
	</g>
</g>
</svg>
