<?xml version="1.0" encoding="utf-8"?>
<!-- Generator: Adobe Illustrator 24.0.3, SVG Export Plug-In . SVG Version: 6.00 Build 0)  -->
<svg version="1.1" id="Layer_2" xmlns="http://www.w3.org/2000/svg" xmlns:xlink="http://www.w3.org/1999/xlink" x="0px" y="0px"
	 viewBox="0 0 39.8 46.1" style="enable-background:new 0 0 39.8 46.1;" xml:space="preserve">
<style type="text/css">
	.st0{fill:none;stroke:#000000;stroke-width:1.8153;stroke-miterlimit:10;}
	.st1{fill:none;stroke:#000000;stroke-width:1.8153;stroke-linecap:round;stroke-miterlimit:10;}
</style>
<g>
	<path class="st0" d="M36.4,45.2c1.3,0,2.5-0.9,2.5-2.6V5.1c0-2.8-2.2-4.2-5.8-4.2H6.7c-3.6,0-5.8,1.4-5.8,4.2v37.6
		c0,1.6,1.2,2.6,2.5,2.6H36.4z"/>
	<line class="st0" x1="0.9" y1="12.7" x2="38.9" y2="12.7"/>
	<rect x="7.3" y="18.6" class="st0" width="26.4" height="21"/>
	<line class="st1" x1="12.8" y1="24.2" x2="28.1" y2="24.2"/>
	<ellipse cx="7" cy="7" rx="1.3" ry="1.3"/>
	<ellipse cx="12.8" cy="7" rx="1.3" ry="1.3"/>
	<ellipse cx="27.4" cy="7" rx="1.3" ry="1.3"/>
	<ellipse cx="33.6" cy="7" rx="1.3" ry="1.3"/>
</g>
<g>
</g>
<g>
</g>
<g>
</g>
<g>
</g>
<g>
</g>
<g>
</g>
</svg>
