<svg xmlns="http://www.w3.org/2000/svg" viewBox="0 0 192.76 178.78"><defs><style>.cls-1{fill:#5b563a;stroke:#fff;stroke-linecap:round;stroke-miterlimit:10;stroke-width:0.5px;}.cls-13,.cls-2{fill:#fff;}.cls-3{font-size:18.75px;fill:#fcfcfc;letter-spacing:-0.1em;}.cls-13,.cls-3{font-family:CharcuterieEtched, Charcuterie Etched;}.cls-4{letter-spacing:-0.01em;}.cls-5{letter-spacing:-0.01em;}.cls-6{letter-spacing:-0.01em;}.cls-7{letter-spacing:-0.02em;}.cls-8{letter-spacing:-0.12em;}.cls-9{letter-spacing:-0.02em;}.cls-10{letter-spacing:-0.04em;}.cls-11{letter-spacing:-0.03em;}.cls-12{letter-spacing:-0.03em;}.cls-13{font-size:34.46px;}.cls-14{letter-spacing:0.01em;}.cls-15{letter-spacing:0em;}.cls-16{letter-spacing:-0.01em;}.cls-17{letter-spacing:0.01em;}</style></defs><title>PVR - Lines - White</title><g id="Layer_3" data-name="Layer 3"><line class="cls-1" x1="40.41" y1="111.45" x2="81.03" y2="111.45"/><path class="cls-2" d="M84.7,106.41h1.36c.24,0,.5-.08.74-.08a4.1,4.1,0,0,1,.87-.06h1a6.07,6.07,0,0,1,1.61.23,2.28,2.28,0,0,1,1.2.9A3.31,3.31,0,0,1,92,108.9a.47.47,0,0,1,0,.19,3,3,0,0,1-.47,1.35c-.22.25-.47.43-.83.83s-.87.39-1.12.51a3.67,3.67,0,0,1-1.2.22h-.39a3,3,0,0,1-.48,0c-.12,0-.17.23-.22.64a1.67,1.67,0,0,0,0,.32c0,.44.06,1,.06,1v1c0,.16.25.15.5.25s.17.11.17.21a1,1,0,0,1-.06.26c0,.11-.23.17-.44.17a2.09,2.09,0,0,1-.36,0,1.42,1.42,0,0,0-.3,0,6.32,6.32,0,0,0-.7,0,10.29,10.29,0,0,0-1.07.09l-.09,0c-.12,0-.18-.13-.18-.28s0-.11,0-.15.1-.15.21-.15.16,0,.2,0,.18-.24.18-.44,0-.8,0-1.14a1.37,1.37,0,0,1,0-.29c0-.2,0-.41,0-.84a9.46,9.46,0,0,1-.06-1c0-.14,0-.3,0-.44s0-.44,0-.64c0-.42,0-.79,0-1.09s0-1.09,0-1.56c0-.1,0-.17,0-.24,0-.37-.06-.53-.14-.6s-.28,0-.43,0-.19-.36-.19-.52,0-.07,0-.11S84.61,106.41,84.7,106.41Zm1,1.29c0,.17,0,.37,0,.55,0,.49,0,.73,0,1.42v.38c0,.33,0,.43,0,1.1a2.28,2.28,0,0,0,0,.55c0,.44.09.64.09,1a7.34,7.34,0,0,0,.06,1.07c0,.06,0,.11,0,.17,0,.32-.1.65-.1,1s.3.33.57.36c0,0,0,0,0,0s-.16-.15-.07-.21a.92.92,0,0,1,.45,0,.3.3,0,0,0,0-.13h-.1a1.1,1.1,0,0,1-.49-.06s0-.15,0-.21a1.28,1.28,0,0,1,.59,0,1.07,1.07,0,0,1,0-.25h-.1l-.47,0c-.08,0-.09-.14-.08-.18a.79.79,0,0,1,.49-.09,1.08,1.08,0,0,0,.18,0c0-.07,0-.14,0-.21h-.53c-.13,0-.17-.14-.17-.18s.16-.08.27-.11h.43v-.27l-.19,0a2.35,2.35,0,0,0-.46,0s0-.17-.07-.25.12-.07.2-.11a3,3,0,0,1,.53,0v-.28a3.18,3.18,0,0,0-.47,0H86s0-.17,0-.24.22-.06.38,0a1.55,1.55,0,0,0,.35,0c0-.11,0-.23,0-.34s-.39,0-.49,0a.41.41,0,0,1-.27,0c-.07,0,.06-.25.12-.26a4.54,4.54,0,0,1,.64,0v-.27a1.28,1.28,0,0,1-.37,0c-.07,0-.22,0-.3,0s-.1-.14-.12-.2.12-.1.2-.11a5.53,5.53,0,0,1,.59,0V111H86.3a.41.41,0,0,1-.27-.1c-.06-.07,0-.17.09-.18a1.31,1.31,0,0,1,.31-.06,2.28,2.28,0,0,0,.32,0c0-.05,0-.12,0-.22a3.6,3.6,0,0,1-.56,0c-.06,0-.07-.06-.14-.13s-.06-.13.1-.19.41,0,.54-.07h0a.86.86,0,0,1,0-.23h0l-.48,0c-.13,0-.15-.11-.19-.17s0-.12.14-.16.5,0,.55-.09v-.21h-.61c-.08,0-.08-.13-.08-.18s.14-.07.23-.07l.47-.06a1.83,1.83,0,0,0,0-.32l-.44,0a.29.29,0,0,1-.23-.09c0-.06.07-.18.13-.24s.37,0,.53,0c0-.22,0-.22-.06-.23a3.08,3.08,0,0,0-.54,0c-.06,0,0-.18,0-.26s.43-.06.61,0l0-.25-.49,0a.29.29,0,0,1-.23-.09c0-.06.07-.18.13-.24a1.49,1.49,0,0,1,.64,0v0c0-.08,0-.17-.1-.19a2.83,2.83,0,0,0-.68-.11.23.23,0,0,0-.25.15A2.79,2.79,0,0,0,85.69,107.7Zm1.33-.09c0,.51.12,1,.12,1.48,0,.08,0,.15,0,.25,0,.28,0,.59,0,.84a4,4,0,0,0,0,.66.68.68,0,0,0,.53.53c.13,0,.5,0,.75,0a1.14,1.14,0,0,0,.28,0,1.88,1.88,0,0,0,.69-.54,1.4,1.4,0,0,0,.41-.74,10,10,0,0,0,.11-1,1.7,1.7,0,0,0,0-.24c0-.23-.32-.92-.32-1a2.11,2.11,0,0,0-.51-.78c-.23-.21-.25-.17-.75-.22a2.36,2.36,0,0,0-.37,0,2,2,0,0,0-.73.1C87.13,107,87,107.17,87,107.61Zm.42,0c0,.51.13,1,.13,1.48,0,.08,0,.15,0,.25,0,.28,0,.59,0,.84a4,4,0,0,0,0,.66c.06.29.06.37.24.43a.57.57,0,0,1-.53-.43,4,4,0,0,1,0-.66c0-.26,0-.56,0-.84,0-.1,0-.17,0-.25,0-.51-.12-1-.13-1.48s.1-.61.2-.67a.68.68,0,0,1,.3,0C87.56,107,87.44,107.17,87.44,107.61Zm.19,5a1.51,1.51,0,0,0,0,.31c0,.44.06,1,.06,1v.8a.9.9,0,0,0,.19.42c-.26-.1-.46-.23-.46-.39,0-.83-.07-1.36-.07-1.8,0-.1,0-.23,0-.32.06-.41.1-.5.43-.5C87.72,112.14,87.67,112.25,87.63,112.63Zm4.27-5.22a3.31,3.31,0,0,1,.47,1.49,2.67,2.67,0,0,1-.65,1.8c-.23.24-.26.21-.62.61a1.86,1.86,0,0,1-1,.64,1.65,1.65,0,0,1-1,.1c.36,0,.37-.17.59-.2a1.58,1.58,0,0,0,1-.58c.36-.4.61-.57.83-.83a2.67,2.67,0,0,0,.5-1.54,3.44,3.44,0,0,0-.47-1.49,2.28,2.28,0,0,0-1.2-.9A2.11,2.11,0,0,1,91.9,107.41Zm-2.1-.4a5.46,5.46,0,0,0,.33,1,2.2,2.2,0,0,1,.2.83c0,.1,0,.18,0,.3a6.21,6.21,0,0,1-.16,1,3,3,0,0,0-.22.7s0,0,0,0a2.08,2.08,0,0,0,.8-.4H90.5s-.07-.06-.14-.13-.06-.13.1-.18.44,0,.57-.07,0,0,0,0l.13-.23a4.63,4.63,0,0,1-.51,0c-.13,0-.15-.11-.19-.17s0-.11.15-.16.42,0,.57-.06h.14l0-.1a.5.5,0,0,1,0-.14h-.16l-.6,0c-.09,0-.09-.13-.09-.19s.15-.07.23-.07l.65-.06c0-.17,0-.25,0-.33l-.67.06a.24.24,0,0,1-.23-.09s.07-.18.13-.24.4,0,.54,0,.21.1.1-.22a1.49,1.49,0,0,1-.56,0c-.07,0-.25,0-.3,0s0-.17,0-.25.1-.1.26-.06a1.9,1.9,0,0,0,.44,0l-.1-.16a.41.41,0,0,0-.05-.09l-.59,0a.26.26,0,0,1-.23-.08c0-.06.07-.19.13-.25a1.3,1.3,0,0,1,.37,0,1.48,1.48,0,0,0-.82-.33S89.8,107,89.8,107Z"/><path class="cls-2" d="M97.21,108.09c0-.28-.08-.82-.35-1s-.57-.2-.57-.41a.42.42,0,0,1,.46-.43h.81a2.15,2.15,0,0,1,.68.1h.11c.29,0,.84-.18,1.14-.18s.38.11.38.31-.23.29-.58.5-.35.23-.7.76a3.25,3.25,0,0,0-.55,1.07,9.06,9.06,0,0,0-.42,1.09,9.17,9.17,0,0,1-.42,1.27c-.26.67-.48,1.46-.62,2a13.63,13.63,0,0,0-.48,1.33,9.63,9.63,0,0,1-.38,1,.28.28,0,0,1-.31.23.74.74,0,0,1-.44-.16.91.91,0,0,1-.31-.77,1.94,1.94,0,0,0-.31-.84,6.09,6.09,0,0,1-.4-1c0-.32-.39-.72-.43-1a5.58,5.58,0,0,0-.51-1.1,12.81,12.81,0,0,1-.79-1.67,10.92,10.92,0,0,0-.51-1.49,3.33,3.33,0,0,0-.53-.58c-.12-.12-.38,0-.56,0s-.19-.27-.19-.62c0-.15.15-.18.36-.18s.32,0,.59,0c.58,0,.6,0,1.11,0a4.72,4.72,0,0,0,1.1-.09h.2c.32,0,.46.12.52.28s-.22.3-.35.36-.24.14-.28.39a1.82,1.82,0,0,0,.33.88,8.45,8.45,0,0,1,.55,1.38c.18.47.39.77.55,1.18s.34.5.5.8.38.75.48.75.13-.46.34-1a3.55,3.55,0,0,0,.42-1.16,6.59,6.59,0,0,1,.28-1.39A2.32,2.32,0,0,0,97.21,108.09Zm-5-1.48c-.11,0-.62,0-.62.06a10.38,10.38,0,0,0,.68,1.42,10.56,10.56,0,0,1,.4,1.15A1.93,1.93,0,0,0,93,110a8.61,8.61,0,0,1,.59,1.25c.1.29.37.75.47,1a4.86,4.86,0,0,0,.5,1.17c.18.27.28.53.36.66s.28.05.32.05a.82.82,0,0,0,.55-.27,4.57,4.57,0,0,1-.47,0c-.13,0-.18-.15-.18-.19s.16-.07.27-.1h.47l.05-.32a6,6,0,0,1-.66.07,1.44,1.44,0,0,0-.36,0c-.06,0-.06-.17-.07-.24s.11-.07.2-.11a6.2,6.2,0,0,1,.77,0h0c0-.07-.14-.16-.21-.27h-1a1.22,1.22,0,0,1-.27,0s0-.17,0-.24.21-.06.37,0a3.28,3.28,0,0,0,.66,0,.53.53,0,0,1-.07-.2v-.1l-.56,0a2.71,2.71,0,0,0-.33,0,.41.41,0,0,1-.27,0c-.07,0,.06-.25.11-.26s.35,0,.52,0a3.13,3.13,0,0,0,.5,0,1.23,1.23,0,0,0-.13-.29l-.11,0a3,3,0,0,1-.67,0c-.08,0-.22,0-.31,0s-.1-.14-.11-.2.11-.1.2-.11H95a.15.15,0,0,0,.08,0l-.15-.3-.18.06a5.31,5.31,0,0,1-.71,0,.39.39,0,0,1-.27-.1c-.06-.08,0-.18.08-.19s.5-.06.61-.06a2.73,2.73,0,0,0,.35,0l0-.1-.07-.15a4.73,4.73,0,0,0-.53,0,2.45,2.45,0,0,1-.46,0c-.06,0-.07-.06-.14-.13s-.06-.13.1-.18.31,0,.44-.07a2.46,2.46,0,0,1,.43,0l-.13-.29-.5.06c-.11,0-.31,0-.44,0s-.14-.11-.18-.17,0-.12.14-.16.31,0,.46-.06.3,0,.37,0-.07-.18-.11-.25h-1c-.08,0-.08-.13-.08-.18s.14-.07.23-.07l.6-.06a.09.09,0,0,0,.07,0l-.13-.29-.74.06a.24.24,0,0,1-.22-.09s.06-.18.12-.24.3,0,.44,0a1.1,1.1,0,0,1,.27,0v0l-.08-.2a2.47,2.47,0,0,1-.63,0c-.07,0-.26,0-.3,0s0-.17,0-.25.1-.11.25-.06a1.57,1.57,0,0,0,.53,0,1.48,1.48,0,0,1-.14-.25l-.73.06a.26.26,0,0,1-.23-.08c0-.06.07-.19.13-.25s.56,0,.7,0l-.09-.2a3.09,3.09,0,0,1-.7,0c-.07,0-.25,0-.3,0s0-.15,0-.2.1-.09.26-.06a3.41,3.41,0,0,0,.66,0c-.08-.16-.16-.28-.2-.28Zm3.84,5.46s.11-.2.08-.29-.1-.17-.13-.27c-.1-.33-.34-.37-.5-.8s-.37-.71-.54-1.18a8.45,8.45,0,0,0-.55-1.38,1.15,1.15,0,0,1-.26-.71,1.29,1.29,0,0,1,0-.53c-.15.17-.3.11-.34.36a1.93,1.93,0,0,0,.33.88,8.47,8.47,0,0,1,.56,1.38c.17.47.38.77.54,1.18s.34.5.5.8A4.73,4.73,0,0,0,96.08,112.07Zm3.93-5.56c0,.18,0,.27-.29.47s-.36.23-.7.76a3.33,3.33,0,0,0-.56,1.07,8.41,8.41,0,0,0-.41,1.09,8.22,8.22,0,0,1-.43,1.27c-.25.67-.47,1.46-.61,2s-.42.9-.49,1.32a9.35,9.35,0,0,1-.37,1c0,.14-.37.21-.56.23a.27.27,0,0,0,.27-.23,9.14,9.14,0,0,0,.38-1c.07-.42.34-.84.48-1.32s.36-1.29.62-2a9.17,9.17,0,0,0,.42-1.27,8.46,8.46,0,0,1,.42-1.09,3.13,3.13,0,0,1,.56-1.07c.34-.53.35-.54.7-.76S100,106.69,100,106.51Zm-2.56,1a5.45,5.45,0,0,0,.28,1l.15-.56c-.08,0-.15,0-.16,0s0-.17,0-.25.1-.1.25-.06a.22.22,0,0,0,.16,0,1,1,0,0,0,.14-.17l-.39,0a.25.25,0,0,1-.23-.09c0-.06.07-.18.12-.24s.69,0,.83,0h0l.13-.15a5.68,5.68,0,0,1-1,0c-.07,0-.25,0-.3,0s0-.15,0-.2.1-.09.26-.06a5.42,5.42,0,0,0,1-.06s.06-.12,0-.12l-.68,0a3.93,3.93,0,0,0-1.23,0C96.85,106.69,97.42,107.12,97.45,107.48Z"/><path class="cls-2" d="M99.92,106.16c.34,0,.86.12,1.16.15h.34c.37,0,.83,0,1.29-.1h.3c.39,0,.67.07,1,.07h.18a5.68,5.68,0,0,1,1.46.27,2.42,2.42,0,0,1,.75.84,4.66,4.66,0,0,1,.17,1.33,4.34,4.34,0,0,1-.36,1.27,2.13,2.13,0,0,1-.74.7,3,3,0,0,1-.6.27,1.91,1.91,0,0,0,.51.25c.3.08.3.3.53.38s.21.4.34.56a2.63,2.63,0,0,1,.23.67,6.1,6.1,0,0,1,.3,1.15,2,2,0,0,0,.42.91c.17.13.32.1.6.14a.28.28,0,0,1,.21.3.73.73,0,0,1-.05.25c-.09.18-.3.1-.73.16H107c-.23,0-.31,0-.58,0a3.7,3.7,0,0,1-1.15-.16,1.05,1.05,0,0,1-.53-.64c0-.23-.13-.92-.15-1.12s-.36-1-.43-1.4-.36-.54-.75-.75a.74.74,0,0,0-.36-.09c-.11,0-.22,0-.5,0a.49.49,0,0,0-.45.34.34.34,0,0,0,0,.22c0,.17.09.39.11.73s0,.63,0,1.08a3.17,3.17,0,0,0,.08,1c.08.16.53.16.58.32s-.06.41-.19.44-1.13.08-1.39.1a1.69,1.69,0,0,1-.21,0,12.2,12.2,0,0,1-1.29-.08c-.17,0-.21-.23-.23-.36s.5-.2.58-.24.11-.13.11-.32a1.67,1.67,0,0,1,0-.24c0-.29-.07-.73,0-1.43s0-1.33,0-1.67,0-.33,0-.45c0-.28,0-.6,0-1,0-.2,0-.39,0-.55a6.54,6.54,0,0,1,0-.81,2.09,2.09,0,0,0,0-.26,10.18,10.18,0,0,0-.12-1.27s0,0,0-.06S100,107,100,107s-.12,0-.19,0a.1.1,0,0,1-.07,0c-.14,0-.21-.23-.21-.44a.83.83,0,0,1,0-.22C99.56,106.21,99.72,106.16,99.92,106.16Zm.6.81c0,.21.09.71.14,1.15a9.49,9.49,0,0,1,.08,1.12,2.3,2.3,0,0,1,0,.38c0,.09,0,.16,0,.23,0,.33,0,.66,0,1.05a1.56,1.56,0,0,1,0,.31,7.62,7.62,0,0,0,0,.77,3.7,3.7,0,0,1,0,.59,4.6,4.6,0,0,0,0,.56c0,.23,0,.47,0,.64s0,.4,0,.63a1.78,1.78,0,0,0,.06.54c.07.11.67.18.83.18s.21-.11.25-.27l-.55,0a.54.54,0,0,1-.3-.06c-.06,0-.06-.16,0-.21a2.68,2.68,0,0,1,.85,0h0v-.24h-.13l-.71,0c-.08,0-.09-.14-.08-.19a.52.52,0,0,1,.39-.08,2.56,2.56,0,0,0,.53,0v-.19l-.73,0c-.13,0-.17-.15-.17-.19s.16-.07.27-.1a4.17,4.17,0,0,1,.63,0v-.29l-.45,0a1.36,1.36,0,0,0-.35,0c-.06,0-.06-.17-.07-.24s.11-.07.2-.11a4.16,4.16,0,0,1,.65,0c0-.09,0-.18,0-.27h-.57a1.2,1.2,0,0,1-.27,0s0-.17,0-.24.21-.06.37,0a1.36,1.36,0,0,0,.43,0c0-.11,0-.23,0-.33-.18,0-.43,0-.5,0s-.22,0-.27,0,0-.24.11-.26l.63,0a1.14,1.14,0,0,1,0-.27h-.34a1.69,1.69,0,0,0-.3,0c-.1,0-.1-.15-.11-.2s.11-.1.2-.12h.57v0a1.15,1.15,0,0,1,0-.19h-.5a.41.41,0,0,1-.27-.1c-.06-.07,0-.17.09-.18a1.31,1.31,0,0,1,.31-.06s.25,0,.43,0v-.12a.38.38,0,0,0,0-.1,6.63,6.63,0,0,1-.75,0s-.07-.06-.14-.13-.06-.13.1-.19.61,0,.74-.07a2.09,2.09,0,0,0,0-.24l-.57,0c-.13,0-.15-.11-.19-.17s0-.12.15-.16a5.19,5.19,0,0,1,.61,0v-.26h0l-.63,0c-.09,0-.09-.13-.09-.19s.12-.07.2-.07l.56,0c0-.07,0-.15,0-.22l-.51,0a.26.26,0,0,1-.23-.08c0-.06.07-.19.13-.25s.48,0,.63,0c0,0,0-.1,0-.16a5.27,5.27,0,0,1-.78,0c-.06,0,0-.17,0-.26s.1-.1.25-.05a2.86,2.86,0,0,0,.53,0v-.26l-.63.05a.39.39,0,0,1-.27-.09c0-.06.07-.18.13-.24s.61,0,.76-.05v-.15l-.8,0a.25.25,0,0,1-.23-.09c0-.05.07-.18.12-.24s.63,0,.85,0a.49.49,0,0,0-.3-.1,4.87,4.87,0,0,0-.55,0,.47.47,0,0,0-.31.07A.31.31,0,0,0,100.52,107Zm1.6.42a3.25,3.25,0,0,0,0,.42c0,.46.12,1.21.12,1.64,0,.09,0,.16,0,.2,0,.27,0,.76,0,1v.23s.07.06.16.06a3.71,3.71,0,0,0,.68-.11c.26-.06.79,0,1-.25a2.69,2.69,0,0,0,.36-1.07l0-.11a4.15,4.15,0,0,0,.07-.7,3.46,3.46,0,0,0-.07-.62c-.1-.47-.22-1-.53-1.15a1.26,1.26,0,0,0-.86-.28c-.36,0-.86,0-.89.13Zm.53,4.28a.35.35,0,0,0-.4.24.4.4,0,0,0,0,.22c0,.17.09.38.1.73s0,.62,0,1.08a2.86,2.86,0,0,0,.09,1c.07.16.41.07.46.23,0-.16-.12-.14-.19-.3a2.79,2.79,0,0,1-.07-.93c0-.46,0-.6,0-1.08s-.1-.56-.1-.73a.83.83,0,0,1,0-.22S102.84,111.67,102.65,111.67Zm0-.85v-.12c0-.29,0-.77,0-1,0,0,0-.11,0-.2,0-.42-.1-1.18-.13-1.64,0-.17,0-.28,0-.41l0-.57c0-.08-.28,0-.28,0l0,.57a3.1,3.1,0,0,0,0,.41c0,.46.13,1.22.13,1.64,0,.09,0,.16,0,.2,0,.28,0,.76,0,1.22C102.38,110.93,102.65,110.82,102.64,110.82Zm2.11,1.73c.09.33.29.83.34,1.06a6.87,6.87,0,0,0,.27,1c.06.21.52.48.82.55a1.23,1.23,0,0,0,.32,0h.22a2.75,2.75,0,0,0-.21-.34h-.4a.42.42,0,0,1-.3-.06c-.06,0-.06-.15,0-.21a1,1,0,0,1,.51,0,1,1,0,0,0-.07-.23,1.46,1.46,0,0,0-.25,0l-.38,0c-.07,0-.08-.14-.07-.18s.19-.11.39-.09a1.92,1.92,0,0,0,.24,0,1.6,1.6,0,0,0,0-.21h-.57a.2.2,0,0,1-.18-.18s.16-.08.27-.11h.4l0-.29a2.09,2.09,0,0,1-.38,0,1.36,1.36,0,0,0-.35,0c-.06,0-.06-.18-.07-.25s.11-.07.2-.11a2.69,2.69,0,0,1,.53,0c0-.08-.08-.17-.11-.27a3.94,3.94,0,0,0-.51,0h-.27s0-.18,0-.25.22,0,.38,0a.75.75,0,0,0,.32,0,.92.92,0,0,0-.14-.32c-.13,0-.41,0-.52,0s-.21,0-.27,0,.06-.24.12-.25l.35,0-.2-.16c-.11,0-.22,0-.28,0s-.22,0-.27,0,0-.12,0-.2l-.21,0c-.05,0-.08,0-.08,0a0,0,0,0,0,0,0C104.39,111.75,104.65,112.21,104.75,112.55Zm0-4.93a6.18,6.18,0,0,1,.14,1.2,9.26,9.26,0,0,1-.1,1.25c0,.1-.21.56-.2.56l.62-.2s-.12,0-.13-.05,0-.23.11-.28a1,1,0,0,1,.29,0c.07-.07,0-.12.11-.2h-.23c-.13,0-.14-.11-.18-.17s0-.12.14-.16l.47,0,.09-.26-.52,0c-.09,0-.09-.13-.09-.19s.15-.07.23-.07l.45,0,0-.33-.4,0a.24.24,0,0,1-.23-.09s.07-.18.13-.24.34,0,.48,0a1.89,1.89,0,0,0,0-.23.58.58,0,0,1-.32,0c-.07,0-.26,0-.3,0s0-.17,0-.25.1-.1.26-.06a1,1,0,0,0,.27,0,1.5,1.5,0,0,0-.07-.2l-.4,0a.26.26,0,0,1-.23-.09s.07-.18.13-.24a.59.59,0,0,1,.25,0c-.06-.14-.08-.15-.08-.15l-.28,0a.25.25,0,0,1-.22-.09s0-.11,0-.17a.43.43,0,0,0-.21-.09s-.23,0-.23,0A4.42,4.42,0,0,0,104.78,107.62Zm2.59,7.16A1.49,1.49,0,0,1,107,114a5.81,5.81,0,0,0-.3-1.14,2.9,2.9,0,0,0-.23-.68c-.12-.15-.1-.47-.34-.55s-.23-.3-.53-.39A2.77,2.77,0,0,1,105,111a3.65,3.65,0,0,0,.6-.28,2.13,2.13,0,0,0,.74-.7,4.25,4.25,0,0,0,.36-1.27,4.7,4.7,0,0,0-.17-1.33,2.42,2.42,0,0,0-.75-.84,4.71,4.71,0,0,0-1.07-.27,7.54,7.54,0,0,1,1.36.27,2.5,2.5,0,0,1,.74.84,4.08,4.08,0,0,1,.17,1.33,4.23,4.23,0,0,1-.35,1.27,2.75,2.75,0,0,1-1.28,1,1.73,1.73,0,0,0,.46.23c.49.14.66.51.86,1a6,6,0,0,1,.23.67,8.12,8.12,0,0,1,.3,1.15,1.82,1.82,0,0,0,.24.64.84.84,0,0,0,.35.3C107.55,114.87,107.54,114.91,107.37,114.78Z"/><text class="cls-3" transform="translate(39.88 78.42)">P<tspan class="cls-4" x="9.02" y="0">A</tspan><tspan class="cls-5" x="21.29" y="0">R</tspan><tspan class="cls-6" x="32.6" y="0">I</tspan><tspan class="cls-7" x="38.05" y="0">S </tspan><tspan class="cls-8" x="50.22" y="0">V</tspan><tspan class="cls-9" x="61.13" y="0">A</tspan><tspan class="cls-10" x="73.28" y="0">L</tspan><tspan class="cls-11" x="81.91" y="0">L</tspan><tspan class="cls-12" x="90.61" y="0">E</tspan><tspan class="cls-7" x="100.32" y="0">Y</tspan></text><text class="cls-13" transform="translate(39.88 103.64)"><tspan class="cls-14">R</tspan><tspan class="cls-15" x="21.6" y="0">A</tspan><tspan class="cls-16" x="44.63" y="0">N</tspan><tspan class="cls-17" x="67.26" y="0">C</tspan><tspan x="89.08" y="0">H</tspan></text><line class="cls-1" x1="40.41" y1="63.1" x2="152.07" y2="63.1"/><line class="cls-1" x1="111.72" y1="111.41" x2="152.35" y2="111.41"/></g></svg>