<svg xmlns="http://www.w3.org/2000/svg" viewBox="0 0 192.76 178.78"><defs><style>.cls-1{fill:none;stroke:#5b563a;stroke-linecap:round;stroke-miterlimit:10;stroke-width:0.5px;}.cls-2{fill:#5b563a;}</style></defs><title>PVR - Lines</title><g id="Layer_3" data-name="Layer 3"><line class="cls-1" x1="40.41" y1="111.45" x2="81.03" y2="111.45"/><path class="cls-2" d="M84.7,106.41h1.36c.24,0,.5-.08.74-.08a4.1,4.1,0,0,1,.87-.06h1a6.07,6.07,0,0,1,1.61.23,2.28,2.28,0,0,1,1.2.9A3.31,3.31,0,0,1,92,108.9a.47.47,0,0,1,0,.19,3,3,0,0,1-.47,1.35c-.22.25-.47.43-.83.83s-.87.39-1.12.51a3.67,3.67,0,0,1-1.2.22h-.39a3,3,0,0,1-.48,0c-.12,0-.17.23-.22.64a1.67,1.67,0,0,0,0,.32c0,.44.06,1,.06,1v1c0,.16.25.15.5.25s.17.11.17.21a1,1,0,0,1-.06.26c0,.11-.23.17-.44.17a2.09,2.09,0,0,1-.36,0,1.42,1.42,0,0,0-.3,0,6.32,6.32,0,0,0-.7,0,10.29,10.29,0,0,0-1.07.09l-.09,0c-.12,0-.18-.13-.18-.28s0-.11,0-.15.1-.15.21-.15.16,0,.2,0,.18-.24.18-.44,0-.8,0-1.14a1.37,1.37,0,0,1,0-.29c0-.2,0-.41,0-.84a9.46,9.46,0,0,1-.06-1c0-.14,0-.3,0-.44s0-.44,0-.64c0-.42,0-.79,0-1.09s0-1.09,0-1.56c0-.1,0-.17,0-.24,0-.37-.06-.53-.14-.6s-.28,0-.43,0-.19-.36-.19-.52,0-.07,0-.11S84.61,106.41,84.7,106.41Zm1,1.29c0,.17,0,.37,0,.55,0,.49,0,.73,0,1.42v.38c0,.33,0,.43,0,1.1a2.28,2.28,0,0,0,0,.55c0,.44.09.64.09,1a7.34,7.34,0,0,0,.06,1.07c0,.06,0,.11,0,.17,0,.32-.1.65-.1,1s.3.33.57.36c0,0,0,0,0,0s-.16-.15-.07-.21a.92.92,0,0,1,.45,0,.3.3,0,0,0,0-.13h-.1a1.1,1.1,0,0,1-.49-.06s0-.15,0-.21a1.28,1.28,0,0,1,.59,0,1.07,1.07,0,0,1,0-.25h-.1l-.47,0c-.08,0-.09-.14-.08-.18a.79.79,0,0,1,.49-.09,1.08,1.08,0,0,0,.18,0c0-.07,0-.14,0-.21h-.53c-.13,0-.17-.14-.17-.18s.16-.08.27-.11h.43v-.27l-.19,0a2.35,2.35,0,0,0-.46,0s0-.17-.07-.25.12-.07.2-.11a3,3,0,0,1,.53,0v-.28a3.18,3.18,0,0,0-.47,0H86s0-.17,0-.24.22-.06.38,0a1.55,1.55,0,0,0,.35,0c0-.11,0-.23,0-.34s-.39,0-.49,0a.41.41,0,0,1-.27,0c-.07,0,.06-.25.12-.26a4.54,4.54,0,0,1,.64,0v-.27a1.28,1.28,0,0,1-.37,0c-.07,0-.22,0-.3,0s-.1-.14-.12-.2.12-.1.2-.11a5.53,5.53,0,0,1,.59,0V111H86.3a.41.41,0,0,1-.27-.1c-.06-.07,0-.17.09-.18a1.31,1.31,0,0,1,.31-.06,2.28,2.28,0,0,0,.32,0c0-.05,0-.12,0-.22a3.6,3.6,0,0,1-.56,0c-.06,0-.07-.06-.14-.13s-.06-.13.1-.19.41,0,.54-.07h0a.86.86,0,0,1,0-.23h0l-.48,0c-.13,0-.15-.11-.19-.17s0-.12.14-.16.5,0,.55-.09v-.21h-.61c-.08,0-.08-.13-.08-.18s.14-.07.23-.07l.47-.06a1.83,1.83,0,0,0,0-.32l-.44,0a.29.29,0,0,1-.23-.09c0-.06.07-.18.13-.24s.37,0,.53,0c0-.22,0-.22-.06-.23a3.08,3.08,0,0,0-.54,0c-.06,0,0-.18,0-.26s.43-.06.61,0l0-.25-.49,0a.29.29,0,0,1-.23-.09c0-.06.07-.18.13-.24a1.49,1.49,0,0,1,.64,0v0c0-.08,0-.17-.1-.19a2.83,2.83,0,0,0-.68-.11.23.23,0,0,0-.25.15A2.79,2.79,0,0,0,85.69,107.7Zm1.33-.09c0,.51.12,1,.12,1.48,0,.08,0,.15,0,.25,0,.28,0,.59,0,.84a4,4,0,0,0,0,.66.68.68,0,0,0,.53.53c.13,0,.5,0,.75,0a1.14,1.14,0,0,0,.28,0,1.88,1.88,0,0,0,.69-.54,1.4,1.4,0,0,0,.41-.74,10,10,0,0,0,.11-1,1.7,1.7,0,0,0,0-.24c0-.23-.32-.92-.32-1a2.11,2.11,0,0,0-.51-.78c-.23-.21-.25-.17-.75-.22a2.36,2.36,0,0,0-.37,0,2,2,0,0,0-.73.1C87.13,107,87,107.17,87,107.61Zm.42,0c0,.51.13,1,.13,1.48,0,.08,0,.15,0,.25,0,.28,0,.59,0,.84a4,4,0,0,0,0,.66c.06.29.06.37.24.43a.57.57,0,0,1-.53-.43,4,4,0,0,1,0-.66c0-.26,0-.56,0-.84,0-.1,0-.17,0-.25,0-.51-.12-1-.13-1.48s.1-.61.2-.67a.68.68,0,0,1,.3,0C87.56,107,87.44,107.17,87.44,107.61Zm.19,5a1.51,1.51,0,0,0,0,.31c0,.44.06,1,.06,1v.8a.9.9,0,0,0,.19.42c-.26-.1-.46-.23-.46-.39,0-.83-.07-1.36-.07-1.8,0-.1,0-.23,0-.32.06-.41.1-.5.43-.5C87.72,112.14,87.67,112.25,87.63,112.63Zm4.27-5.22a3.31,3.31,0,0,1,.47,1.49,2.67,2.67,0,0,1-.65,1.8c-.23.24-.26.21-.62.61a1.86,1.86,0,0,1-1,.64,1.65,1.65,0,0,1-1,.1c.36,0,.37-.17.59-.2a1.58,1.58,0,0,0,1-.58c.36-.4.61-.57.83-.83a2.67,2.67,0,0,0,.5-1.54,3.44,3.44,0,0,0-.47-1.49,2.28,2.28,0,0,0-1.2-.9A2.11,2.11,0,0,1,91.9,107.41Zm-2.1-.4a5.46,5.46,0,0,0,.33,1,2.2,2.2,0,0,1,.2.83c0,.1,0,.18,0,.3a6.21,6.21,0,0,1-.16,1,3,3,0,0,0-.22.7s0,0,0,0a2.08,2.08,0,0,0,.8-.4H90.5s-.07-.06-.14-.13-.06-.13.1-.18.44,0,.57-.07,0,0,0,0l.13-.23a4.63,4.63,0,0,1-.51,0c-.13,0-.15-.11-.19-.17s0-.11.15-.16.42,0,.57-.06h.14l0-.1a.5.5,0,0,1,0-.14h-.16l-.6,0c-.09,0-.09-.13-.09-.19s.15-.07.23-.07l.65-.06c0-.17,0-.25,0-.33l-.67.06a.24.24,0,0,1-.23-.09s.07-.18.13-.24.4,0,.54,0,.21.1.1-.22a1.49,1.49,0,0,1-.56,0c-.07,0-.25,0-.3,0s0-.17,0-.25.1-.1.26-.06a1.9,1.9,0,0,0,.44,0l-.1-.16a.41.41,0,0,0-.05-.09l-.59,0a.26.26,0,0,1-.23-.08c0-.06.07-.19.13-.25a1.3,1.3,0,0,1,.37,0,1.48,1.48,0,0,0-.82-.33S89.8,107,89.8,107Z"/><path class="cls-2" d="M97.21,108.09c0-.28-.08-.82-.35-1s-.57-.2-.57-.41a.42.42,0,0,1,.46-.43h.81a2.15,2.15,0,0,1,.68.1h.11c.29,0,.84-.18,1.14-.18s.38.11.38.31-.23.29-.58.5-.35.23-.7.76a3.25,3.25,0,0,0-.55,1.07,9.06,9.06,0,0,0-.42,1.09,9.17,9.17,0,0,1-.42,1.27c-.26.67-.48,1.46-.62,2a13.63,13.63,0,0,0-.48,1.33,9.63,9.63,0,0,1-.38,1,.28.28,0,0,1-.31.23.74.74,0,0,1-.44-.16.91.91,0,0,1-.31-.77,1.94,1.94,0,0,0-.31-.84,6.09,6.09,0,0,1-.4-1c0-.32-.39-.72-.43-1a5.58,5.58,0,0,0-.51-1.1,12.81,12.81,0,0,1-.79-1.67,10.92,10.92,0,0,0-.51-1.49,3.33,3.33,0,0,0-.53-.58c-.12-.12-.38,0-.56,0s-.19-.27-.19-.62c0-.15.15-.18.36-.18s.32,0,.59,0c.58,0,.6,0,1.11,0a4.72,4.72,0,0,0,1.1-.09h.2c.32,0,.46.12.52.28s-.22.3-.35.36-.24.14-.28.39a1.82,1.82,0,0,0,.33.88,8.45,8.45,0,0,1,.55,1.38c.18.47.39.77.55,1.18s.34.5.5.8.38.75.48.75.13-.46.34-1a3.55,3.55,0,0,0,.42-1.16,6.59,6.59,0,0,1,.28-1.39A2.32,2.32,0,0,0,97.21,108.09Zm-5-1.48c-.11,0-.62,0-.62.06a10.38,10.38,0,0,0,.68,1.42,10.56,10.56,0,0,1,.4,1.15A1.93,1.93,0,0,0,93,110a8.61,8.61,0,0,1,.59,1.25c.1.29.37.75.47,1a4.86,4.86,0,0,0,.5,1.17c.18.27.28.53.36.66s.28.05.32.05a.82.82,0,0,0,.55-.27,4.57,4.57,0,0,1-.47,0c-.13,0-.18-.15-.18-.19s.16-.07.27-.1h.47l.05-.32a6,6,0,0,1-.66.07,1.44,1.44,0,0,0-.36,0c-.06,0-.06-.17-.07-.24s.11-.07.2-.11a6.2,6.2,0,0,1,.77,0h0c0-.07-.14-.16-.21-.27h-1a1.22,1.22,0,0,1-.27,0s0-.17,0-.24.21-.06.37,0a3.28,3.28,0,0,0,.66,0,.53.53,0,0,1-.07-.2v-.1l-.56,0a2.71,2.71,0,0,0-.33,0,.41.41,0,0,1-.27,0c-.07,0,.06-.25.11-.26s.35,0,.52,0a3.13,3.13,0,0,0,.5,0,1.23,1.23,0,0,0-.13-.29l-.11,0a3,3,0,0,1-.67,0c-.08,0-.22,0-.31,0s-.1-.14-.11-.2.11-.1.2-.11H95a.15.15,0,0,0,.08,0l-.15-.3-.18.06a5.31,5.31,0,0,1-.71,0,.39.39,0,0,1-.27-.1c-.06-.08,0-.18.08-.19s.5-.06.61-.06a2.73,2.73,0,0,0,.35,0l0-.1-.07-.15a4.73,4.73,0,0,0-.53,0,2.45,2.45,0,0,1-.46,0c-.06,0-.07-.06-.14-.13s-.06-.13.1-.18.31,0,.44-.07a2.46,2.46,0,0,1,.43,0l-.13-.29-.5.06c-.11,0-.31,0-.44,0s-.14-.11-.18-.17,0-.12.14-.16.31,0,.46-.06.3,0,.37,0-.07-.18-.11-.25h-1c-.08,0-.08-.13-.08-.18s.14-.07.23-.07l.6-.06a.09.09,0,0,0,.07,0l-.13-.29-.74.06a.24.24,0,0,1-.22-.09s.06-.18.12-.24.3,0,.44,0a1.1,1.1,0,0,1,.27,0v0l-.08-.2a2.47,2.47,0,0,1-.63,0c-.07,0-.26,0-.3,0s0-.17,0-.25.1-.11.25-.06a1.57,1.57,0,0,0,.53,0,1.48,1.48,0,0,1-.14-.25l-.73.06a.26.26,0,0,1-.23-.08c0-.06.07-.19.13-.25s.56,0,.7,0l-.09-.2a3.09,3.09,0,0,1-.7,0c-.07,0-.25,0-.3,0s0-.15,0-.2.1-.09.26-.06a3.41,3.41,0,0,0,.66,0c-.08-.16-.16-.28-.2-.28Zm3.84,5.46s.11-.2.08-.29-.1-.17-.13-.27c-.1-.33-.34-.37-.5-.8s-.37-.71-.54-1.18a8.45,8.45,0,0,0-.55-1.38,1.15,1.15,0,0,1-.26-.71,1.29,1.29,0,0,1,0-.53c-.15.17-.3.11-.34.36a1.93,1.93,0,0,0,.33.88,8.47,8.47,0,0,1,.56,1.38c.17.47.38.77.54,1.18s.34.5.5.8A4.73,4.73,0,0,0,96.08,112.07Zm3.93-5.56c0,.18,0,.27-.29.47s-.36.23-.7.76a3.33,3.33,0,0,0-.56,1.07,8.41,8.41,0,0,0-.41,1.09,8.22,8.22,0,0,1-.43,1.27c-.25.67-.47,1.46-.61,2s-.42.9-.49,1.32a9.35,9.35,0,0,1-.37,1c0,.14-.37.21-.56.23a.27.27,0,0,0,.27-.23,9.14,9.14,0,0,0,.38-1c.07-.42.34-.84.48-1.32s.36-1.29.62-2a9.17,9.17,0,0,0,.42-1.27,8.46,8.46,0,0,1,.42-1.09,3.13,3.13,0,0,1,.56-1.07c.34-.53.35-.54.7-.76S100,106.69,100,106.51Zm-2.56,1a5.45,5.45,0,0,0,.28,1l.15-.56c-.08,0-.15,0-.16,0s0-.17,0-.25.1-.1.25-.06a.22.22,0,0,0,.16,0,1,1,0,0,0,.14-.17l-.39,0a.25.25,0,0,1-.23-.09c0-.06.07-.18.12-.24s.69,0,.83,0h0l.13-.15a5.68,5.68,0,0,1-1,0c-.07,0-.25,0-.3,0s0-.15,0-.2.1-.09.26-.06a5.42,5.42,0,0,0,1-.06s.06-.12,0-.12l-.68,0a3.93,3.93,0,0,0-1.23,0C96.85,106.69,97.42,107.12,97.45,107.48Z"/><path class="cls-2" d="M99.92,106.16c.34,0,.86.12,1.16.15h.34c.37,0,.83,0,1.29-.1h.3c.39,0,.67.07,1,.07h.18a5.68,5.68,0,0,1,1.46.27,2.42,2.42,0,0,1,.75.84,4.66,4.66,0,0,1,.17,1.33,4.34,4.34,0,0,1-.36,1.27,2.13,2.13,0,0,1-.74.7,3,3,0,0,1-.6.27,1.91,1.91,0,0,0,.51.25c.3.08.3.3.53.38s.21.4.34.56a2.63,2.63,0,0,1,.23.67,6.1,6.1,0,0,1,.3,1.15,2,2,0,0,0,.42.91c.17.13.32.1.6.14a.28.28,0,0,1,.21.3.73.73,0,0,1-.05.25c-.09.18-.3.1-.73.16H107c-.23,0-.31,0-.58,0a3.7,3.7,0,0,1-1.15-.16,1.05,1.05,0,0,1-.53-.64c0-.23-.13-.92-.15-1.12s-.36-1-.43-1.4-.36-.54-.75-.75a.74.74,0,0,0-.36-.09c-.11,0-.22,0-.5,0a.49.49,0,0,0-.45.34.34.34,0,0,0,0,.22c0,.17.09.39.11.73s0,.63,0,1.08a3.17,3.17,0,0,0,.08,1c.08.16.53.16.58.32s-.06.41-.19.44-1.13.08-1.39.1a1.69,1.69,0,0,1-.21,0,12.2,12.2,0,0,1-1.29-.08c-.17,0-.21-.23-.23-.36s.5-.2.58-.24.11-.13.11-.32a1.67,1.67,0,0,1,0-.24c0-.29-.07-.73,0-1.43s0-1.33,0-1.67,0-.33,0-.45c0-.28,0-.6,0-1,0-.2,0-.39,0-.55a6.54,6.54,0,0,1,0-.81,2.09,2.09,0,0,0,0-.26,10.18,10.18,0,0,0-.12-1.27s0,0,0-.06S100,107,100,107s-.12,0-.19,0a.1.1,0,0,1-.07,0c-.14,0-.21-.23-.21-.44a.83.83,0,0,1,0-.22C99.56,106.21,99.72,106.16,99.92,106.16Zm.6.81c0,.21.09.71.14,1.15a9.49,9.49,0,0,1,.08,1.12,2.3,2.3,0,0,1,0,.38c0,.09,0,.16,0,.23,0,.33,0,.66,0,1.05a1.56,1.56,0,0,1,0,.31,7.62,7.62,0,0,0,0,.77,3.7,3.7,0,0,1,0,.59,4.6,4.6,0,0,0,0,.56c0,.23,0,.47,0,.64s0,.4,0,.63a1.78,1.78,0,0,0,.06.54c.07.11.67.18.83.18s.21-.11.25-.27l-.55,0a.54.54,0,0,1-.3-.06c-.06,0-.06-.16,0-.21a2.68,2.68,0,0,1,.85,0h0v-.24h-.13l-.71,0c-.08,0-.09-.14-.08-.19a.52.52,0,0,1,.39-.08,2.56,2.56,0,0,0,.53,0v-.19l-.73,0c-.13,0-.17-.15-.17-.19s.16-.07.27-.1a4.17,4.17,0,0,1,.63,0v-.29l-.45,0a1.36,1.36,0,0,0-.35,0c-.06,0-.06-.17-.07-.24s.11-.07.2-.11a4.16,4.16,0,0,1,.65,0c0-.09,0-.18,0-.27h-.57a1.2,1.2,0,0,1-.27,0s0-.17,0-.24.21-.06.37,0a1.36,1.36,0,0,0,.43,0c0-.11,0-.23,0-.33-.18,0-.43,0-.5,0s-.22,0-.27,0,0-.24.11-.26l.63,0a1.14,1.14,0,0,1,0-.27h-.34a1.69,1.69,0,0,0-.3,0c-.1,0-.1-.15-.11-.2s.11-.1.2-.12h.57v0a1.15,1.15,0,0,1,0-.19h-.5a.41.41,0,0,1-.27-.1c-.06-.07,0-.17.09-.18a1.31,1.31,0,0,1,.31-.06s.25,0,.43,0v-.12a.38.38,0,0,0,0-.1,6.63,6.63,0,0,1-.75,0s-.07-.06-.14-.13-.06-.13.1-.19.61,0,.74-.07a2.09,2.09,0,0,0,0-.24l-.57,0c-.13,0-.15-.11-.19-.17s0-.12.15-.16a5.19,5.19,0,0,1,.61,0v-.26h0l-.63,0c-.09,0-.09-.13-.09-.19s.12-.07.2-.07l.56,0c0-.07,0-.15,0-.22l-.51,0a.26.26,0,0,1-.23-.08c0-.06.07-.19.13-.25s.48,0,.63,0c0,0,0-.1,0-.16a5.27,5.27,0,0,1-.78,0c-.06,0,0-.17,0-.26s.1-.1.25-.05a2.86,2.86,0,0,0,.53,0v-.26l-.63.05a.39.39,0,0,1-.27-.09c0-.06.07-.18.13-.24s.61,0,.76-.05v-.15l-.8,0a.25.25,0,0,1-.23-.09c0-.05.07-.18.12-.24s.63,0,.85,0a.49.49,0,0,0-.3-.1,4.87,4.87,0,0,0-.55,0,.47.47,0,0,0-.31.07A.31.31,0,0,0,100.52,107Zm1.6.42a3.25,3.25,0,0,0,0,.42c0,.46.12,1.21.12,1.64,0,.09,0,.16,0,.2,0,.27,0,.76,0,1v.23s.07.06.16.06a3.71,3.71,0,0,0,.68-.11c.26-.06.79,0,1-.25a2.69,2.69,0,0,0,.36-1.07l0-.11a4.15,4.15,0,0,0,.07-.7,3.46,3.46,0,0,0-.07-.62c-.1-.47-.22-1-.53-1.15a1.26,1.26,0,0,0-.86-.28c-.36,0-.86,0-.89.13Zm.53,4.28a.35.35,0,0,0-.4.24.4.4,0,0,0,0,.22c0,.17.09.38.1.73s0,.62,0,1.08a2.86,2.86,0,0,0,.09,1c.07.16.41.07.46.23,0-.16-.12-.14-.19-.3a2.79,2.79,0,0,1-.07-.93c0-.46,0-.6,0-1.08s-.1-.56-.1-.73a.83.83,0,0,1,0-.22S102.84,111.67,102.65,111.67Zm0-.85v-.12c0-.29,0-.77,0-1,0,0,0-.11,0-.2,0-.42-.1-1.18-.13-1.64,0-.17,0-.28,0-.41l0-.57c0-.08-.28,0-.28,0l0,.57a3.1,3.1,0,0,0,0,.41c0,.46.13,1.22.13,1.64,0,.09,0,.16,0,.2,0,.28,0,.76,0,1.22C102.38,110.93,102.65,110.82,102.64,110.82Zm2.11,1.73c.09.33.29.83.34,1.06a6.87,6.87,0,0,0,.27,1c.06.21.52.48.82.55a1.23,1.23,0,0,0,.32,0h.22a2.75,2.75,0,0,0-.21-.34h-.4a.42.42,0,0,1-.3-.06c-.06,0-.06-.15,0-.21a1,1,0,0,1,.51,0,1,1,0,0,0-.07-.23,1.46,1.46,0,0,0-.25,0l-.38,0c-.07,0-.08-.14-.07-.18s.19-.11.39-.09a1.92,1.92,0,0,0,.24,0,1.6,1.6,0,0,0,0-.21h-.57a.2.2,0,0,1-.18-.18s.16-.08.27-.11h.4l0-.29a2.09,2.09,0,0,1-.38,0,1.36,1.36,0,0,0-.35,0c-.06,0-.06-.18-.07-.25s.11-.07.2-.11a2.69,2.69,0,0,1,.53,0c0-.08-.08-.17-.11-.27a3.94,3.94,0,0,0-.51,0h-.27s0-.18,0-.25.22,0,.38,0a.75.75,0,0,0,.32,0,.92.92,0,0,0-.14-.32c-.13,0-.41,0-.52,0s-.21,0-.27,0,.06-.24.12-.25l.35,0-.2-.16c-.11,0-.22,0-.28,0s-.22,0-.27,0,0-.12,0-.2l-.21,0c-.05,0-.08,0-.08,0a0,0,0,0,0,0,0C104.39,111.75,104.65,112.21,104.75,112.55Zm0-4.93a6.18,6.18,0,0,1,.14,1.2,9.26,9.26,0,0,1-.1,1.25c0,.1-.21.56-.2.56l.62-.2s-.12,0-.13-.05,0-.23.11-.28a1,1,0,0,1,.29,0c.07-.07,0-.12.11-.2h-.23c-.13,0-.14-.11-.18-.17s0-.12.14-.16l.47,0,.09-.26-.52,0c-.09,0-.09-.13-.09-.19s.15-.07.23-.07l.45,0,0-.33-.4,0a.24.24,0,0,1-.23-.09s.07-.18.13-.24.34,0,.48,0a1.89,1.89,0,0,0,0-.23.58.58,0,0,1-.32,0c-.07,0-.26,0-.3,0s0-.17,0-.25.1-.1.26-.06a1,1,0,0,0,.27,0,1.5,1.5,0,0,0-.07-.2l-.4,0a.26.26,0,0,1-.23-.09s.07-.18.13-.24a.59.59,0,0,1,.25,0c-.06-.14-.08-.15-.08-.15l-.28,0a.25.25,0,0,1-.22-.09s0-.11,0-.17a.43.43,0,0,0-.21-.09s-.23,0-.23,0A4.42,4.42,0,0,0,104.78,107.62Zm2.59,7.16A1.49,1.49,0,0,1,107,114a5.81,5.81,0,0,0-.3-1.14,2.9,2.9,0,0,0-.23-.68c-.12-.15-.1-.47-.34-.55s-.23-.3-.53-.39A2.77,2.77,0,0,1,105,111a3.65,3.65,0,0,0,.6-.28,2.13,2.13,0,0,0,.74-.7,4.25,4.25,0,0,0,.36-1.27,4.7,4.7,0,0,0-.17-1.33,2.42,2.42,0,0,0-.75-.84,4.71,4.71,0,0,0-1.07-.27,7.54,7.54,0,0,1,1.36.27,2.5,2.5,0,0,1,.74.84,4.08,4.08,0,0,1,.17,1.33,4.23,4.23,0,0,1-.35,1.27,2.75,2.75,0,0,1-1.28,1,1.73,1.73,0,0,0,.46.23c.49.14.66.51.86,1a6,6,0,0,1,.23.67,8.12,8.12,0,0,1,.3,1.15,1.82,1.82,0,0,0,.24.64.84.84,0,0,0,.35.3C107.55,114.87,107.54,114.91,107.37,114.78Z"/><path class="cls-2" d="M40.46,66.23c.25,0,.49,0,1.07,0h.71c.32,0,.66-.12,1-.12a6.08,6.08,0,0,1,1.14-.07h1.32a7.87,7.87,0,0,1,2.1.3,2.88,2.88,0,0,1,1.57,1.18A4.31,4.31,0,0,1,50,69.49a.64.64,0,0,1,0,.26,3.69,3.69,0,0,1-.62,1.77c-.28.33-.62.56-1.08,1.08s-1.15.53-1.47.68a4.69,4.69,0,0,1-1.57.28,5.06,5.06,0,0,1-.53,0,4.68,4.68,0,0,1-.62,0c-.16,0-.22.3-.3.84,0,.12,0,.29,0,.42,0,.58.07,1.27.07,1.27v1.37c0,.21.34.19.66.32s.22.15.22.28a1.21,1.21,0,0,1-.07.34c-.06.15-.3.22-.58.22a1.78,1.78,0,0,1-.47,0,2.61,2.61,0,0,0-.4,0,5.72,5.72,0,0,0-.92.06,9.87,9.87,0,0,0-1.4.11l-.11,0c-.17,0-.25-.17-.25-.36s0-.15,0-.21.13-.18.28-.18.21,0,.26,0c.21,0,.23-.31.23-.58s0-1,0-1.5a2.17,2.17,0,0,1,0-.37c0-.27,0-.55,0-1.11,0-.3-.07-.71-.07-1.24,0-.18,0-.39,0-.58s0-.58,0-.84c0-.55,0-1,0-1.43,0-.58,0-1.42,0-2,0-.13,0-.23,0-.32,0-.49-.07-.69-.19-.79s-.35,0-.56,0-.24-.47-.24-.68c0,0,0-.09,0-.15S40.35,66.23,40.46,66.23Zm1.3,1.68c0,.23,0,.49,0,.74,0,.63,0,.95,0,1.85V71c0,.43,0,.56-.07,1.44a3.21,3.21,0,0,0-.06.72c0,.58.11.84.11,1.31a10.6,10.6,0,0,0,.08,1.41c0,.07,0,.14,0,.22,0,.41-.13.84-.13,1.26s.39.43.75.47c0,0,0,0,0,0s-.21-.21-.1-.29a1.31,1.31,0,0,1,.6,0,.5.5,0,0,0,0-.17H42.9a1.63,1.63,0,0,1-.64-.08c-.07,0-.07-.2,0-.28a1.93,1.93,0,0,1,.77,0,1.65,1.65,0,0,1,0-.31H43l-.62,0c-.1,0-.12-.19-.1-.24a1.12,1.12,0,0,1,.64-.11,1.92,1.92,0,0,0,.24,0c0-.1,0-.19,0-.29l-.69,0a.25.25,0,0,1-.23-.24c0-.06.21-.09.36-.13a4.79,4.79,0,0,1,.56,0V75.3a1.32,1.32,0,0,1-.24,0,3,3,0,0,0-.6,0c-.08,0-.08-.22-.09-.32s.15-.09.26-.15a3.7,3.7,0,0,1,.69,0V74.5a5.54,5.54,0,0,0-.62,0c-.07,0-.32,0-.35,0s-.06-.23,0-.32.28-.08.48,0a2,2,0,0,0,.47,0,3.39,3.39,0,0,0,0-.45,5.63,5.63,0,0,0-.63.06.6.6,0,0,1-.36,0c-.09-.06.07-.32.15-.34a6.87,6.87,0,0,1,.84-.06V73a1.69,1.69,0,0,1-.48,0,2.85,2.85,0,0,0-.4,0c-.13,0-.13-.19-.15-.27s.15-.13.26-.15h.77v-.32c-.17,0-.5,0-.6,0a.49.49,0,0,1-.35-.14c-.08-.09,0-.22.11-.24a2.18,2.18,0,0,1,.41-.07,3.6,3.6,0,0,0,.41,0c0-.08,0-.17,0-.3a6.4,6.4,0,0,1-.73,0c-.08,0-.1-.07-.19-.17s-.08-.16.13-.24.54,0,.71-.09h0a1.56,1.56,0,0,1,0-.3v0l-.64,0c-.16,0-.18-.16-.24-.23s0-.15.19-.21.65,0,.71-.11v-.28H43l-.7,0c-.11,0-.11-.17-.11-.24s.19-.1.3-.1.43-.06.62-.07a3.1,3.1,0,0,0,0-.42l-.58.06a.36.36,0,0,1-.3-.11c0-.08.09-.25.17-.32a6,6,0,0,1,.69,0c0-.28-.05-.28-.07-.3s-.66.06-.72,0-.05-.23,0-.34.57-.07.81-.06l.06-.31-.64,0a.34.34,0,0,1-.3-.11c0-.08.09-.24.17-.32a2.3,2.3,0,0,1,.84-.06v0a.28.28,0,0,0-.13-.27,4.16,4.16,0,0,0-.9-.13c-.17,0-.28.06-.32.19A3.69,3.69,0,0,0,41.76,67.91Zm1.74-.11c0,.68.17,1.28.17,2,0,.1,0,.19,0,.32,0,.38,0,.77,0,1.11a5,5,0,0,0,.06.86.88.88,0,0,0,.69.69c.17,0,.66.06,1,.06a1.9,1.9,0,0,0,.37,0,2.28,2.28,0,0,0,.9-.71,1.84,1.84,0,0,0,.55-1c0-.35.15-.89.15-1.33a1.42,1.42,0,0,0,0-.31c-.06-.31-.41-1.21-.41-1.36a2.86,2.86,0,0,0-.68-1c-.3-.28-.32-.22-1-.3a4.18,4.18,0,0,0-.49,0,2.73,2.73,0,0,0-1,.13C43.65,66.94,43.5,67.22,43.5,67.8Zm.56,0c0,.68.17,1.28.17,2,0,.1,0,.19,0,.32,0,.38,0,.77,0,1.11a5.16,5.16,0,0,0,0,.86c.08.38.08.49.32.56a.73.73,0,0,1-.69-.56,5,5,0,0,1-.06-.86c0-.34,0-.73,0-1.11,0-.13,0-.22,0-.32,0-.67-.15-1.27-.17-2s.13-.8.26-.88a1,1,0,0,1,.39-.06C44.21,66.94,44.06,67.22,44.06,67.8Zm.25,6.58a2.88,2.88,0,0,0,0,.42c0,.58.07,1.27.07,1.27v1.05a1.21,1.21,0,0,0,.25.55c-.34-.14-.6-.3-.6-.51,0-1.09-.1-1.78-.1-2.36a2.88,2.88,0,0,1,0-.42c.08-.54.13-.65.56-.65C44.42,73.75,44.36,73.9,44.31,74.38Zm5.6-6.84a4.31,4.31,0,0,1,.62,1.95,3.49,3.49,0,0,1-.86,2.36c-.3.32-.34.28-.81.81a2.46,2.46,0,0,1-1.27.84,2.27,2.27,0,0,1-1.26.13c.47-.07.49-.22.77-.26a2.11,2.11,0,0,0,1.31-.77c.47-.52.81-.75,1.09-1.08a3.52,3.52,0,0,0,.66-2,4.31,4.31,0,0,0-.62-1.95A2.9,2.9,0,0,0,48,66.36,2.76,2.76,0,0,1,49.91,67.54ZM47.16,67a6.19,6.19,0,0,0,.43,1.26,3,3,0,0,1,.26,1.09,2.68,2.68,0,0,1,0,.39,6.6,6.6,0,0,1-.2,1.37,3.82,3.82,0,0,0-.28.92s0,0,0,0a2.74,2.74,0,0,0,1-.53h-.35c-.08,0-.1-.07-.19-.17s-.08-.16.13-.24.58,0,.75-.09l.06,0,.17-.3-.68,0c-.17,0-.19-.16-.24-.23s0-.15.18-.21.57,0,.75-.07h.19l0-.13a1.08,1.08,0,0,1,0-.19h-.21l-.79,0c-.11,0-.11-.17-.11-.24s.19-.1.3-.1.71-.07.84-.07c0-.23,0-.34,0-.44l-.89.08a.36.36,0,0,1-.3-.11c0-.08.1-.25.17-.32s.53,0,.72-.06.28.13.13-.28a2.21,2.21,0,0,1-.73,0c-.1-.06-.34.06-.4,0s-.06-.23,0-.34.13-.13.34-.07a3.42,3.42,0,0,0,.58,0l-.13-.2a.28.28,0,0,0-.08-.11l-.77,0a.31.31,0,0,1-.29-.11c0-.08.09-.24.16-.32a1.69,1.69,0,0,1,.49,0,2,2,0,0,0-1.07-.43S47.16,67,47.16,67Z"/><path class="cls-2" d="M50.83,74.12c.06-.19.13-.3.45-.41s.41-.75.62-1.09a9.36,9.36,0,0,0,.54-1.52c.17-.37.43-1,.55-1.4a10.9,10.9,0,0,1,.37-1.47,2.54,2.54,0,0,0,.4-1.12c0-.38.48-1.11.76-1.11a.55.55,0,0,1,.59.36c.11.3.28.54.41,1a7.2,7.2,0,0,0,.65,1.54c.21.55.75,1.73.9,2.23s.6,1,.7,1.47.5.93.75,1.68a5.68,5.68,0,0,0,.34.87c.16.35.18.63.37,1s.38.73.45.94a.65.65,0,0,0,.49.39c.22,0,.9,0,.95.19a.77.77,0,0,1,.06.3,1.26,1.26,0,0,1,0,.28c0,.09-.33.13-.46.13s-.34-.08-.55-.08-.3.1-.47.12-.49,0-.64,0-.54-.13-.88-.13-.62.06-1,.08-.47-.08-.72-.08c0,0-.11-.13-.11-.3s0-.28.3-.28.51-.11.56-.3a.56.56,0,0,0,0-.21.71.71,0,0,0-.19-.45c-.24-.22-.31-.75-.45-1s-.48-1.13-.6-1.14a4.27,4.27,0,0,0-1.16-.08,10.73,10.73,0,0,0-1.41.11,4.83,4.83,0,0,1-.59.1c-.46,0-.53.45-.53.91,0,.25.06.53.06.7a1.81,1.81,0,0,0,.43,1.24.6.6,0,0,1,.32.54c0,.17-.14.21-.3.21l-.45,0c-.34,0-1.6.11-2.27.11s-1-.07-1-.24c0-.36.45-.6.65-1a9.19,9.19,0,0,0,.68-1,9.93,9.93,0,0,0,.67-1.42C51,74.57,50.83,74.4,50.83,74.12ZM52,76.9a1.66,1.66,0,0,0-.52,0,2.66,2.66,0,0,1-.34,0s-.06-.23,0-.32.28-.08.48,0a.71.71,0,0,0,.29,0l-.06-.32-.39,0c-.1,0-.06-.31,0-.43s.1,0,.28,0c0-.28-.09-.5-.15-.5s-.6,1-.88,1.46a12.29,12.29,0,0,0-.67,1.09c0,.09.45.17.71.17h.92c.2,0,.56,0,.56-.12a1.37,1.37,0,0,1-.07-.26.93.93,0,0,1-.25,0l-.8.06a.7.7,0,0,1-.4-.08c-.07,0-.07-.21,0-.28a2.21,2.21,0,0,1,1,0c.16,0,.22-.09.32-.08A1.29,1.29,0,0,1,52,76.9Zm1.28-6.25c-.06.32-.36,1-.47,1.39a4.64,4.64,0,0,0-.3.94,3.75,3.75,0,0,0-.28.65s0,.06.07.06a2.09,2.09,0,0,1,.58-.06,2.33,2.33,0,0,1,.73.1,1.47,1.47,0,0,0,.45,0c.34,0,.7,0,.89,0a3.63,3.63,0,0,0,.84-.15c0-.06-.3-.06-.4-.43S55,72.42,54.86,72s-.45-.69-.56-1.16-.3-.85-.38-1.16-.13-.3-.18-.3,0,0-.06.09S53.38,70.3,53.29,70.65Zm.56,0c-.06.13-.06.4-.11.58a13.13,13.13,0,0,1-.68,1.84,1.91,1.91,0,0,0-.11.4s-.43,0-.36-.12.17-.62.23-.78a3,3,0,0,1,.28-.7,4.13,4.13,0,0,0,.3-.92,5.13,5.13,0,0,1,.32-.93S53.92,70.5,53.85,70.65Zm-.77,4.71c0,.17-.09.32-.11.58s.09.53.09.81.28.5.41.69a4.11,4.11,0,0,1,.34.51c.13.22.15.22.15.37s-.28.17-.39.1-.08-.19-.19-.4-.3-.39-.39-.54a2.17,2.17,0,0,1-.27-.86c0-.38-.13-.64-.13-.92a1.56,1.56,0,0,1,.13-.62C52.78,75,53.14,75,53.08,75.36Zm1.67-8.18a1.06,1.06,0,0,1-.11-.47A3.07,3.07,0,0,0,54,68.05,2.8,2.8,0,0,0,54,69a5.88,5.88,0,0,1,.53,1.27c.26.58.39,1,.61,1.35s.28.41.55,1a4.53,4.53,0,0,1,.6,1.37,11.61,11.61,0,0,0,.6,1.43,3.43,3.43,0,0,0,.58,1.27c.17.25.19.58.51.88s.65.06,1,.08c.13,0,.51.06.55-.08s-.19-.11-.29-.26l-.22,0a2.64,2.64,0,0,0-.36,0,.6.6,0,0,1-.39-.08c-.08,0-.08-.2,0-.28s.26,0,.43,0A1.83,1.83,0,0,0,59,77l-.16-.32h-.34l-.49,0c-.09,0-.11-.19-.09-.24s.24-.13.5-.11.13,0,.25,0a1.26,1.26,0,0,1-.13-.34.79.79,0,0,1-.34.09l-.58,0a.25.25,0,0,1-.23-.24c0-.06.21-.09.36-.13a.77.77,0,0,1,.37,0,.45.45,0,0,0,.32,0,2.23,2.23,0,0,0-.09-.39c-.21,0-.49.09-.62.09a1.83,1.83,0,0,0-.47,0c-.07,0-.07-.22-.09-.32s.15-.09.26-.15a1.35,1.35,0,0,1,.43,0,1.32,1.32,0,0,0,.3,0L58,74.48a2.38,2.38,0,0,1-.34,0,3.32,3.32,0,0,0-.43,0c-.07,0-.32,0-.35,0s-.06-.23,0-.32.29-.08.49,0a.81.81,0,0,0,.47-.08l-.19-.43a3,3,0,0,1-.32,0,2.62,2.62,0,0,0-.43.06.58.58,0,0,1-.35,0c-.1-.06.07-.32.15-.34a2.55,2.55,0,0,1,.52-.06.46.46,0,0,0,.26,0l-.16-.38a1.41,1.41,0,0,0-.27.06.61.61,0,0,1-.33,0,2.85,2.85,0,0,0-.4,0c-.13,0-.13-.19-.15-.27s.15-.13.26-.15h.45a.56.56,0,0,0,.27-.1,1.19,1.19,0,0,0-.19-.3l-.41.06a1.36,1.36,0,0,1-.42,0,.49.49,0,0,1-.35-.14c-.08-.09,0-.22.11-.24a2.18,2.18,0,0,1,.41-.07l.36,0a1,1,0,0,1-.15-.32c-.17,0-.26,0-.34,0a4.16,4.16,0,0,1-.6,0c-.07,0-.09-.07-.19-.17s-.07-.16.14-.24.41,0,.58-.09l.2,0-.2-.36c-.13,0-.15.06-.25.06a5.16,5.16,0,0,1-.58.06c-.17,0-.19-.16-.24-.23s0-.15.19-.21.41,0,.6-.07h.2a2.3,2.3,0,0,0-.15-.32h-.54l-.55,0c-.11,0-.11-.17-.11-.24s.19-.1.3-.1.32-.07.41-.07l.25,0s0,0-.17-.4h-.21l-.54.08a.36.36,0,0,1-.3-.11c0-.08.09-.25.17-.32s.28,0,.47-.06.13,0,.28.06a2,2,0,0,1-.13-.43c-.21,0-.38.07-.43,0s-.34.06-.4,0,0-.22,0-.34.13-.13.34-.07a.58.58,0,0,0,.37,0,3.66,3.66,0,0,1-.18-.39,2.21,2.21,0,0,1-.27,0c-.13,0-.13-.25-.09-.3S54.64,67.18,54.75,67.18Zm.47-1.1a1.14,1.14,0,0,1,.37.17,1.16,1.16,0,0,1,.47.73,4.84,4.84,0,0,0,.21.62,1.86,1.86,0,0,0,.24.54c.1.15.23.6.32.77a4.74,4.74,0,0,0,.3.6c.13.24.13.41.23.58a3.3,3.3,0,0,0,.26.6,5.75,5.75,0,0,0,.32.69c.2.36.33.74.52,1.11.08.19.17.51.26.77s.29.54.44.9a4.32,4.32,0,0,0,.26.53c.11.13.09.33.17.52a2.79,2.79,0,0,1,.18.47,1.47,1.47,0,0,0,.17.56,3.86,3.86,0,0,1,.43.68,6,6,0,0,0,.38.47,2.29,2.29,0,0,1-.64-.16,3.69,3.69,0,0,1-.37-.45c-.13-.18-.15-.46-.28-.65a2.22,2.22,0,0,1-.25-.68,4.48,4.48,0,0,0-.43-1.12c-.15-.19-.26-.66-.39-.88a3.9,3.9,0,0,1-.34-.81c-.09-.21-.3-.51-.38-.73s-.26-.53-.35-.77a7.5,7.5,0,0,0-.25-.73,2.35,2.35,0,0,1-.31-.64,2.84,2.84,0,0,0-.27-.56,1.28,1.28,0,0,1-.22-.47c-.06-.19-.23-.56-.28-.68s-.28-.84-.28-.84Z"/><path class="cls-2" d="M61.9,65.91c.45,0,1.12.15,1.52.19h.45c.49,0,1.09-.07,1.69-.13A2.68,2.68,0,0,1,66,66c.51,0,.88.1,1.35.1h.24a8,8,0,0,1,1.92.35,3.06,3.06,0,0,1,1,1.11,5.66,5.66,0,0,1,.23,1.75,5.46,5.46,0,0,1-.47,1.66,2.75,2.75,0,0,1-1,.92,4,4,0,0,1-.78.36,3.18,3.18,0,0,0,.67.32c.39.11.39.39.69.5s.28.53.45.74a3.1,3.1,0,0,1,.3.88,9,9,0,0,1,.4,1.5,2.57,2.57,0,0,0,.54,1.2c.23.17.43.13.79.18a.37.37,0,0,1,.28.4.89.89,0,0,1-.07.32c-.12.24-.4.13-1,.2a2,2,0,0,1-.32,0c-.3,0-.41,0-.77,0a4.88,4.88,0,0,1-1.5-.21,1.31,1.31,0,0,1-.69-.84c-.06-.3-.17-1.2-.21-1.47s-.47-1.37-.56-1.83-.47-.72-1-1A1,1,0,0,0,66,73c-.15,0-.3,0-.65,0a.65.65,0,0,0-.6.45.45.45,0,0,0-.06.28c0,.22.11.5.13,1,0,.63.06.82.06,1.42A4,4,0,0,0,65,77.42c.1.21.7.21.75.42s-.07.54-.24.58-1.48.09-1.82.13a2.6,2.6,0,0,1-.28,0,15,15,0,0,1-1.69-.12c-.22,0-.28-.3-.3-.47s.66-.26.75-.31.15-.17.15-.42a3,3,0,0,1,0-.32c0-.37-.09-1-.07-1.87,0-.77,0-1.75,0-2.2,0-.28,0-.43,0-.58,0-.37,0-.78-.05-1.29,0-.26,0-.51,0-.71,0-.42,0-.75,0-1.07a1.88,1.88,0,0,0,0-.34,12,12,0,0,0-.17-1.67.2.2,0,0,0,0-.07c0-.17-.07-.21-.15-.21s-.15,0-.24,0a.13.13,0,0,1-.09,0c-.19-.06-.28-.3-.28-.58a1.27,1.27,0,0,1,0-.28C61.43,66,61.64,65.91,61.9,65.91Zm.79,1c0,.28.11.94.18,1.52a13.27,13.27,0,0,1,.1,1.46,4.18,4.18,0,0,1,0,.51c0,.11,0,.2,0,.3,0,.43.06.86.06,1.37a2.68,2.68,0,0,1,0,.41,9.69,9.69,0,0,0,0,1,4.72,4.72,0,0,1,0,.77,5.35,5.35,0,0,0,0,.73c0,.3,0,.62,0,.85s0,.52,0,.82a2.49,2.49,0,0,0,.07.71c.1.15.88.25,1.09.25s.28-.15.34-.36l-.73,0a.63.63,0,0,1-.4-.08c-.07,0-.07-.2,0-.28a3.49,3.49,0,0,1,1.12,0h0v-.31h-.17l-.93,0c-.1,0-.12-.19-.1-.24s.25-.13.51-.11a3.46,3.46,0,0,0,.69,0V76l-1,0a.25.25,0,0,1-.23-.24c0-.06.21-.09.36-.13a5.21,5.21,0,0,1,.82,0v-.38c-.22,0-.48.06-.58.06a1.84,1.84,0,0,0-.47,0c-.07,0-.07-.22-.09-.32s.15-.09.26-.15a5.63,5.63,0,0,1,.86,0c0-.11,0-.24,0-.35-.23,0-.68,0-.75,0s-.32,0-.36,0-.06-.23,0-.32.28-.08.49,0a2,2,0,0,0,.56,0c0-.15,0-.3,0-.43-.23,0-.56,0-.66.06a.58.58,0,0,1-.35,0c-.1-.06.07-.32.15-.34s.52,0,.82-.06a1.94,1.94,0,0,1,0-.35,2.57,2.57,0,0,1-.45,0,2.87,2.87,0,0,0-.39,0c-.13,0-.13-.19-.15-.27s.15-.13.26-.15h.75v-.06a.9.9,0,0,1,0-.24h-.66a.49.49,0,0,1-.35-.14c-.08-.09,0-.22.11-.24a2.18,2.18,0,0,1,.41-.07c.06,0,.32,0,.57,0v-.17a.32.32,0,0,0,0-.13c-.12,0-.9,0-1,0s-.09-.07-.19-.17-.07-.16.14-.24.8,0,1-.09a1.77,1.77,0,0,0,0-.32l-.75,0c-.17,0-.19-.16-.24-.23s0-.15.19-.21.58,0,.8,0v-.34h-.05l-.83,0c-.11,0-.11-.17-.11-.24s.15-.1.26-.1l.73-.06c0-.09,0-.18,0-.28l-.67.06a.34.34,0,0,1-.3-.11c0-.08.09-.25.16-.32s.64,0,.83-.06c0,0,0-.13,0-.2a6,6,0,0,1-1,0c-.08,0-.06-.22,0-.33s.13-.13.33-.08a3.64,3.64,0,0,0,.7,0v-.34l-.83.06a.47.47,0,0,1-.35-.11c0-.08.09-.25.17-.32s.8,0,1-.06v-.2l-1,0a.34.34,0,0,1-.3-.11c0-.08.09-.24.17-.32s.82,0,1.1,0a.72.72,0,0,0-.39-.13c-.07,0-.62,0-.71,0s-.36,0-.41.1S62.69,66.9,62.69,67Zm2.1.56a5.34,5.34,0,0,0,0,.54c0,.6.16,1.6.16,2.16,0,.11,0,.21,0,.26,0,.36-.06,1-.06,1.37v.3c0,.06.09.08.21.08a5.12,5.12,0,0,0,.9-.15c.33-.08,1,0,1.31-.32a3.59,3.59,0,0,0,.47-1.41l0-.15a4.8,4.8,0,0,0,.1-.92,3.81,3.81,0,0,0-.1-.8c-.13-.62-.28-1.28-.69-1.52A1.66,1.66,0,0,0,66,66.6c-.47,0-1.13,0-1.17.17Zm.69,5.61a.58.58,0,0,0-.58.6c0,.22.11.5.13,1,0,.63.06.82.06,1.42a4,4,0,0,0,.11,1.31c.09.21.54.1.6.3-.06-.2-.15-.19-.24-.39a3.23,3.23,0,0,1-.1-1.22c0-.6,0-.79,0-1.42,0-.46-.14-.74-.14-1a.9.9,0,0,1,.06-.28S65.72,73.13,65.48,73.13Zm0-1.11v-.17c0-.37,0-1,.06-1.37,0,0,0-.15,0-.26,0-.56-.13-1.56-.17-2.16a5.34,5.34,0,0,1,0-.54l.06-.75c0-.09-.38,0-.38,0l-.06.75a5.34,5.34,0,0,0,0,.54c0,.6.17,1.6.17,2.16,0,.11,0,.21,0,.26,0,.36,0,1,0,1.6C65.12,72.15,65.48,72,65.46,72Zm2.78,2.27c.11.43.37,1.09.45,1.39A8,8,0,0,0,69,77c.08.28.68.64,1.07.73a1.57,1.57,0,0,0,.41,0,1.16,1.16,0,0,0,.31,0s-.14-.21-.29-.45a4.18,4.18,0,0,0-.52,0,.6.6,0,0,1-.39-.08c-.08,0-.08-.2,0-.28a1.53,1.53,0,0,1,.68,0c-.08-.22-.08-.26-.1-.3h-.33l-.49,0c-.1,0-.11-.19-.1-.24s.25-.13.51-.11c.1,0,.21,0,.32,0a1.57,1.57,0,0,0-.08-.29l-.75,0c-.16,0-.22-.18-.22-.24s.21-.09.36-.13l.52,0-.07-.38a2.67,2.67,0,0,1-.49.06,1.83,1.83,0,0,0-.47,0c-.08,0-.08-.22-.09-.32s.15-.09.26-.15a3.57,3.57,0,0,1,.69,0c0-.11-.09-.22-.13-.35a6.64,6.64,0,0,0-.67,0c-.08,0-.32,0-.36,0s-.06-.23,0-.32.28-.08.49,0a1.14,1.14,0,0,0,.43,0,1.38,1.38,0,0,0-.19-.43,6.41,6.41,0,0,0-.67.06.6.6,0,0,1-.36,0c-.1-.06.07-.32.15-.34l.47,0-.26-.2c-.16,0-.3,0-.38,0a.62.62,0,0,1-.36,0c-.07,0,0-.17.06-.27l-.28,0c-.06,0-.1,0-.1,0a.07.07,0,0,0,0,.06C67.77,73.24,68.11,73.84,68.24,74.29Zm0-6.47a7.51,7.51,0,0,1,.19,1.58A11.89,11.89,0,0,1,68.33,71c0,.13-.28.73-.26.73l.8-.26s-.14,0-.16-.06-.06-.3.15-.38a1.54,1.54,0,0,1,.37,0c.09-.1.08-.15.15-.26h-.3c-.17,0-.19-.16-.24-.23s0-.15.18-.21l.62,0,.12-.34-.68,0c-.11,0-.11-.17-.11-.24s.19-.1.3-.1l.58-.06,0-.43-.53.06a.36.36,0,0,1-.3-.11c0-.08.1-.25.17-.32s.45,0,.64-.06a1.92,1.92,0,0,0-.08-.3.74.74,0,0,1-.41,0c-.09-.06-.34.06-.39,0s-.06-.23,0-.34.13-.13.33-.07h.36c0-.09-.05-.18-.09-.26l-.53.06a.36.36,0,0,1-.3-.11c0-.08.1-.25.17-.32a.87.87,0,0,1,.34,0c-.08-.19-.11-.21-.11-.21l-.36,0a.36.36,0,0,1-.3-.11s0-.15.07-.23a.63.63,0,0,0-.28-.11s-.3-.06-.3,0A5.42,5.42,0,0,0,68.27,67.82Zm3.4,9.4a2,2,0,0,1-.54-1.07,9,9,0,0,0-.4-1.5,3.46,3.46,0,0,0-.3-.88c-.17-.21-.13-.62-.45-.74s-.3-.39-.69-.5a3.7,3.7,0,0,1-.68-.32,4.28,4.28,0,0,0,.79-.36,2.75,2.75,0,0,0,1-.92,5.73,5.73,0,0,0,.46-1.66,5.38,5.38,0,0,0-.22-1.75,3.09,3.09,0,0,0-1-1.11,6.29,6.29,0,0,0-1.4-.35,10.33,10.33,0,0,1,1.78.35,3.06,3.06,0,0,1,1,1.11,5.66,5.66,0,0,1,.23,1.75,5.46,5.46,0,0,1-.47,1.66,2.75,2.75,0,0,1-1,.92,2.9,2.9,0,0,1-.69.34,2.09,2.09,0,0,0,.6.3c.64.19.86.68,1.13,1.28a7.66,7.66,0,0,1,.3.88,9,9,0,0,1,.39,1.5,2.27,2.27,0,0,0,.32.84,1.07,1.07,0,0,0,.45.4C71.91,77.33,71.89,77.39,71.67,77.22Z"/><path class="cls-2" d="M73.75,66l.14,0,.67-.09c.58,0,1.16.13,1.88.13.41,0,.82.09.88.24a.18.18,0,0,1,0,.1,1,1,0,0,1-.17.43c-.1.15-.58.07-.79.17s-.09.11-.09.24a3.71,3.71,0,0,0,.15.86c0,.15,0,.36,0,.59,0,.43,0,.93,0,1.27s.09,1.24.09,1.63-.08.55-.08,1.18.06,1.65.1,2.35c0,.34.07,1.39,0,1.82a3.3,3.3,0,0,0,0,.39.72.72,0,0,0,.07.34c0,.15.23.17.77.17.21,0,.24.07.24.2s0,.32,0,.38c0,.21-.38.13-.66.21a1.41,1.41,0,0,1-.35,0c-.12,0-.29,0-.55,0a3.69,3.69,0,0,0-.69-.06c-.42,0-.85,0-1.24,0s-.66.07-1,.07-.25-.2-.29-.5.32-.32.62-.32.49-.12.49-.36c0-.07-.06-.15-.06-.92,0-.17,0-.41,0-.64V75c0-.28-.06-.64-.06-1a1.43,1.43,0,0,1,0-.43c.11-1.39.13-2.27.13-2.89s0-.9,0-1.18c0-.56,0-1.82,0-2.21s-.62-.34-.82-.38-.16-.2-.16-.37C73,66.1,73.27,66.06,73.75,66Zm2.11,1a.87.87,0,0,0-.08-.14.38.38,0,0,0-.24-.07l-.75,0a.16.16,0,0,0-.17.09,4.76,4.76,0,0,0-.08,1c0,.27.11.57.11.9a.49.49,0,0,1,0,.21,9.73,9.73,0,0,0-.12,1.52c0,.22.12.49.12.75a3,3,0,0,1-.08.73,6.56,6.56,0,0,0-.15,1.41c0,.33.1,1,.1,1.55s.09.72.09,1.58V77c0,.52,0,.73.13.73s1.22,0,1.22-.15a.73.73,0,0,1,0-.26,2.81,2.81,0,0,1-.9-.08c-.07,0-.07-.2,0-.28a2.6,2.6,0,0,1,.86,0v-.3l-.86,0c-.1,0-.11-.19-.1-.24a2.61,2.61,0,0,1,1-.11c0-.12,0-.21,0-.29l-.81,0c-.17,0-.22-.18-.22-.24s.2-.09.35-.13.49,0,.72,0c0-.09,0-.21,0-.34a.56.56,0,0,1-.16,0,6,6,0,0,0-.85,0c-.07,0-.07-.22-.09-.32s.15-.09.26-.15a5.5,5.5,0,0,1,.86,0V74.5l-.35,0c-.08,0-.7,0-.73,0s-.06-.23,0-.32.66-.08.87,0a.28.28,0,0,0,.18,0L76,74l-.08-.26c-.2,0-.56,0-.65.06a.6.6,0,0,1-.36,0c-.09-.06.07-.32.15-.34s.51,0,.81-.06a2.09,2.09,0,0,1,0-.35l-.1,0c-.09,0-.65,0-.76,0s-.14-.19-.15-.27.15-.13.26-.15h.73c0-.1,0-.15,0-.3h-.55a.49.49,0,0,1-.35-.14c-.08-.09,0-.22.11-.24a2.18,2.18,0,0,1,.41-.07c.06,0,.27,0,.47,0a1.45,1.45,0,0,0,0-.28c-.21,0-.75,0-.81,0s-.09-.07-.18-.17-.08-.16.13-.24.71,0,.92-.09v-.32l-.89,0c-.16,0-.18-.16-.24-.23s0-.15.19-.21.71,0,.94,0v-.34h-.08L75,70c-.11,0-.11-.17-.11-.24s.19-.1.3-.1.56-.06.81-.07c0-.12,0-.23,0-.34l-.73.06a.34.34,0,0,1-.3-.12c0-.07.09-.24.16-.32s.55,0,.74,0c0,0,.07,0,.11,0v-.26a3,3,0,0,1-.62,0c-.11,0-.34.06-.39,0s-.06-.23,0-.34.13-.13.33-.07a3.46,3.46,0,0,0,.68,0v-.32c-.21,0-.83,0-.92,0s-.13-.25-.09-.3.75-.1,1-.08a1,1,0,0,1,0-.22c-.22,0-.81,0-.9,0s-.17-.3-.09-.3S75.69,66.81,75.86,67Zm.89,10.29c0-.45.08-.9.08-1.5a6.32,6.32,0,0,0,.09-.73c0-.69-.28-1.56-.28-2.33a4.68,4.68,0,0,1,.06-1c0-.56-.08-1.14-.08-1.78,0-.34,0-.84,0-1.27a5.07,5.07,0,0,0,0-.59,4.33,4.33,0,0,1-.15-.86c0-.13,0-.22.25-.22-.08.18.07.26.09.39s.09.45.17.75a5,5,0,0,1,0,.58c0,.43,0,.94,0,1.28s.09,1.24.09,1.63-.07.54-.07,1.18.24,1.63.28,2.33a6.32,6.32,0,0,1-.09.73c0,.37,0,.67-.06,1.1a3.36,3.36,0,0,0,0,.4.74.74,0,0,0,.08.34C76.87,77.8,76.75,77.57,76.75,77.29Z"/><path class="cls-2" d="M80,78.27c-.37-.12-1.38-.19-1.59-.32-.06,0-.08-.17-.08-.32s0-.54,0-.79c0-.41-.07-1.74-.07-2.23s.15-.71.33-.71.53.22.7.75a3,3,0,0,0,.64,1c.3.35.5,1,.78,1.12s.58.68,1.15.68A1.11,1.11,0,0,0,83,76.69a1.6,1.6,0,0,0,.2-.69,2.37,2.37,0,0,0,0-.42,3.58,3.58,0,0,0-.61-1.42,2.63,2.63,0,0,0-1-1,4.15,4.15,0,0,1-1-1,5.57,5.57,0,0,0-.92-.9,3,3,0,0,1-1.09-1.2,4.43,4.43,0,0,1-.2-1,1.14,1.14,0,0,1,0-.26,4.38,4.38,0,0,1,1.85-2.48,3.68,3.68,0,0,1,1.75-.58,5.05,5.05,0,0,0,1.09.08c.24,0,.67.22.86.22a8.8,8.8,0,0,1,1-.07c.17,0,.21.17.21.41s-.17,1.43-.17,1.61.08.64.08,1a1.5,1.5,0,0,1,0,.43c-.06.21,0,.36-.28.36s-.62-.41-.79-.67a5.1,5.1,0,0,0-.66-1c-.63-.47-.91-1.46-1.27-1.46a1,1,0,0,0-.85.84,2.48,2.48,0,0,0,.38,1.65,5.83,5.83,0,0,0,1.24,1.07c.39.21,1,.92,1.29,1.07s.47.47.81.79a2.34,2.34,0,0,1,.79,1.35,2.63,2.63,0,0,1,0,.3c0,.62-.26,1.24-.26,1.82A2.25,2.25,0,0,1,84.59,77c-.37.28-.56.45-.84.7a3.74,3.74,0,0,1-2.16.69A7,7,0,0,1,80,78.27Zm.6-.81a1.83,1.83,0,0,0-.28,0l-1.1,0c-.1,0,0-.19,0-.24a3.85,3.85,0,0,1,1-.06h.15L80.26,77a1.11,1.11,0,0,0-.21,0l-.92,0C79,77,79,76.8,79,76.75a2.67,2.67,0,0,1,.94-.11.57.57,0,0,1-.13-.27l-.79,0c-.1,0-.11-.19-.1-.24a1.35,1.35,0,0,1,.7-.12l-.17-.24a3.1,3.1,0,0,1-.41,0c-.17,0-.23-.19-.23-.25s.19-.07.34-.11c-.08,0-.13-.11-.19-.11-.37,0-.32.26-.32.37a5.38,5.38,0,0,0,.08.89c0,.2.07.88.09.88a8.6,8.6,0,0,0,1.2.15C80.22,77.65,80.65,77.72,80.63,77.46Zm.34-.64c-.28-.17-.49-.77-.79-1.12a2.94,2.94,0,0,1-.63-1c-.17-.53-.49-.75-.7-.75.26-.12.9.22,1.07.75a3,3,0,0,0,.64,1c.3.35.49,1,.79,1.12.71.3.73.6.75.6C81.53,77.42,81.27,77,81,76.82Zm-1.84-8.25a1.38,1.38,0,0,0-.13.62,1.12,1.12,0,0,0,.15.62,5.19,5.19,0,0,0,1.15,1.31,2.33,2.33,0,0,1,.84.71c.34.4.41.57.62.64a1.75,1.75,0,0,1,.66.64c.13.21.75.64.86,1s.49.55.49,1.46c0,.38-.19,1.13-.14,1.13a.58.58,0,0,0,.17-.11.33.33,0,0,1,0-.19.49.49,0,0,1,.34-.11l.25-.27h-.14c-.17,0-.22-.18-.22-.24s.21-.09.36-.13l.31,0a.9.9,0,0,0,.19-.32,5.2,5.2,0,0,0-.79,0c-.07,0-.07-.22-.09-.32s.15-.09.26-.15a7.1,7.1,0,0,1,.73,0V74.5c-.31,0-.86,0-.93,0s-.32,0-.36,0-.06-.23,0-.32.28-.08.49,0a3.74,3.74,0,0,0,.75,0l-.06-.43H84.8c-.17,0-1,0-1.09.06a.62.62,0,0,1-.36,0c-.09-.06.08-.32.15-.34s1-.06,1.3-.06c0-.09-.12-.39-.21-.37a8.55,8.55,0,0,1-1.24,0A2.87,2.87,0,0,0,83,73c-.13,0-.13-.19-.15-.27s.15-.13.26-.15h1.37l-.28-.42a4.55,4.55,0,0,1-1.54.12.49.49,0,0,1-.35-.14c-.08-.09,0-.22.11-.24a2.18,2.18,0,0,1,.41-.07l1,0-.55-.32c-.09,0-.34,0-.41,0s-1.39,0-1.46,0-.1-.07-.19-.17-.08-.16.13-.24,1.11,0,1.39-.08l-.55-.39a.93.93,0,0,1-.24,0c-.15,0-1.29.06-1.46.06s-.19-.16-.25-.23,0-.15.19-.21.83,0,1.22,0a2.11,2.11,0,0,1-.37-.36l-.92,0-.55,0c-.11,0-.11-.17-.11-.24s.19-.1.3-.1a5.22,5.22,0,0,0,1-.11l-.15-.3-1.07.07a.34.34,0,0,1-.3-.11c0-.07.1-.24.17-.32s.66,0,.85,0a.22.22,0,0,1,.16,0,2.73,2.73,0,0,1-.11-.4c-.15,0-.32.06-.37,0s-.34.06-.4,0,0-.23,0-.34.13-.13.34-.07a2.29,2.29,0,0,0,.47,0l.09-.28-.15,0a.29.29,0,0,1-.3-.11c0-.08.1-.24.17-.32s.25,0,.4,0a1.57,1.57,0,0,0,0-.32.08.08,0,0,0,0-.07A2.84,2.84,0,0,0,79.13,68.57Zm6.64,5.29a8.59,8.59,0,0,1-.26,1.82A2.55,2.55,0,0,1,84.78,77c-.34.23-.28.34-.77.68a2.62,2.62,0,0,1-1.48.69,3.36,3.36,0,0,0,2.08-.83c.28-.24.17-.26.54-.54a3,3,0,0,0,.73-1.31,7.78,7.78,0,0,0,.27-1.8,3.24,3.24,0,0,0-.79-1.73c-.34-.32-.43-.63-.71-.77s-1-.82-1.41-1A6.09,6.09,0,0,1,82,69.28a2.51,2.51,0,0,1-.37-1.65.69.69,0,0,1,.45-.54s-.06-.08-.15-.21a.86.86,0,0,0-.68.75,2.65,2.65,0,0,0,.38,1.65,6,6,0,0,0,1.23,1.07c.4.21,1,.92,1.3,1.07s.47.47.81.79a2.28,2.28,0,0,1,.78,1.35A1.32,1.32,0,0,1,85.77,73.86Zm-3-7.2c-.09.11.08.45.19.56a5.37,5.37,0,0,1,.69.86,4.39,4.39,0,0,0,.68,1s.2.21.2.17a2,2,0,0,0,0-.21.22.22,0,0,1-.21-.11c0-.08-.09-.24,0-.32s.09,0,.19,0,0-.13,0-.19-.38.08-.41.06-.17-.24-.12-.36.3-.11.51-.07a1.32,1.32,0,0,1,0-.28l-.52.06a.31.31,0,0,1-.3-.12c0-.07.09-.24.17-.32a3.86,3.86,0,0,1,.65,0s0-.13,0-.18a3.91,3.91,0,0,1-.75,0c-.09-.06-.34,0-.39,0s-.06-.19,0-.27.13-.11.33-.07a5.41,5.41,0,0,0,.85,0v-.13a.09.09,0,0,1-.06,0,2.31,2.31,0,0,1-.58-.12,1.74,1.74,0,0,0-.71-.11A.51.51,0,0,0,82.77,66.66Zm2.1,3.26c.19,0,.17-.17.23-.36a2,2,0,0,0,0-.43c0-.41-.07-.88-.07-1s.15-1.23.17-1.61c0-.22,0-.39-.17-.41.19,0,.54.19.54.41,0,.38-.17,1.43-.17,1.61s.08.64.08,1a1.5,1.5,0,0,1,0,.43C85.42,69.75,85.13,69.9,84.87,69.92Z"/><path class="cls-2" d="M99.36,68.44c0-.38-.09-1.09-.45-1.31s-.75-.27-.75-.55a.55.55,0,0,1,.61-.56l1.06,0a2.9,2.9,0,0,1,.89.13.32.32,0,0,0,.15,0c.37,0,1.1-.24,1.5-.24s.48.15.48.41-.3.38-.75.66-.47.3-.92,1a4.48,4.48,0,0,0-.73,1.41,9.41,9.41,0,0,0-.54,1.42,11.15,11.15,0,0,1-.56,1.67c-.34.88-.62,1.91-.81,2.57s-.54,1.18-.64,1.74a10.8,10.8,0,0,1-.49,1.37.36.36,0,0,1-.41.3,1,1,0,0,1-.58-.2,1.23,1.23,0,0,1-.39-1,2.55,2.55,0,0,0-.42-1.1,7,7,0,0,1-.52-1.28c-.06-.41-.51-.93-.56-1.37A8.37,8.37,0,0,0,93.85,72a17.57,17.57,0,0,1-1-2.19,12.67,12.67,0,0,0-.67-1.95,4,4,0,0,0-.7-.77c-.15-.15-.49-.06-.73-.06s-.24-.36-.24-.82c0-.19.18-.23.46-.23s.42,0,.77.06l1.47,0A6.65,6.65,0,0,0,94.62,66a1.33,1.33,0,0,1,.26,0c.42,0,.6.17.68.38s-.28.39-.45.47-.32.18-.38.5a2.55,2.55,0,0,0,.43,1.17,11,11,0,0,1,.74,1.79c.22.62.5,1,.71,1.56s.45.66.66,1,.5,1,.63,1a13.31,13.31,0,0,0,.45-1.26,4.83,4.83,0,0,0,.55-1.52,8.65,8.65,0,0,1,.37-1.82A3.38,3.38,0,0,0,99.36,68.44Zm-6.5-2c-.15,0-.83-.06-.83.07a13.45,13.45,0,0,0,.9,1.88,12.9,12.9,0,0,1,.53,1.5,2.61,2.61,0,0,0,.35,1,10.39,10.39,0,0,1,.77,1.65c.13.37.49,1,.62,1.37a6.15,6.15,0,0,0,.66,1.53,9.61,9.61,0,0,1,.47.87c0,.05.37.07.43.07a1.06,1.06,0,0,0,.71-.36c-.22,0-.51,0-.62,0s-.22-.18-.22-.24.2-.09.35-.13l.62,0,.06-.41c-.19,0-.73.09-.86.09a1.83,1.83,0,0,0-.47,0c-.08,0-.08-.22-.1-.32s.15-.09.27-.15a8.07,8.07,0,0,1,1,0h0c-.07-.09-.18-.2-.28-.35h0c-.08,0-1.11,0-1.2,0s-.32,0-.36,0-.06-.23,0-.32.28-.08.49,0a4.71,4.71,0,0,0,.86,0,.7.7,0,0,1-.1-.26v-.13l-.73,0a2.47,2.47,0,0,0-.43.06.58.58,0,0,1-.35,0c-.1-.06.07-.32.15-.34a4.7,4.7,0,0,1,.67-.06,4.12,4.12,0,0,0,.66,0,2.11,2.11,0,0,0-.17-.38l-.15.06a4.31,4.31,0,0,1-.88,0,3,3,0,0,0-.4,0c-.13,0-.13-.19-.15-.27s.15-.13.27-.15h1a.26.26,0,0,0,.11,0l-.2-.4-.23.08a7,7,0,0,1-.94,0,.49.49,0,0,1-.35-.14c-.08-.09,0-.22.11-.24s.66-.07.79-.07l.47,0-.06-.13-.09-.21c-.1,0-.6,0-.7.06a4.16,4.16,0,0,1-.6,0c-.07,0-.09-.07-.19-.17s-.07-.16.14-.24.41,0,.58-.09a3.82,3.82,0,0,1,.56,0,3.52,3.52,0,0,1-.17-.38l-.66.08a5.16,5.16,0,0,1-.58.06c-.17,0-.18-.16-.24-.23s0-.15.19-.21.41,0,.6-.07a3.4,3.4,0,0,1,.48,0,2.37,2.37,0,0,0-.15-.32c-.2,0-.67,0-.76,0L94,70c-.11,0-.11-.17-.11-.24s.19-.1.3-.1l.79-.07s.07,0,.09-.06l-.17-.38-1,.08a.31.31,0,0,1-.28-.11c0-.08.07-.25.15-.32s.39,0,.58-.06a1.83,1.83,0,0,1,.35,0v0l-.11-.27a3.14,3.14,0,0,1-.82,0c-.1-.06-.34.06-.4,0s-.05-.23,0-.34.13-.13.34-.07a2.65,2.65,0,0,0,.69,0,2,2,0,0,1-.18-.32l-1,.07a.34.34,0,0,1-.3-.11c0-.08.09-.24.17-.32s.73,0,.92-.06L94,67.05a4,4,0,0,1-.91.06c-.1-.06-.34,0-.4,0s-.05-.19,0-.27.13-.11.34-.07a4,4,0,0,0,.86,0c-.09-.21-.2-.36-.26-.36Zm5,7.16s.15-.26.12-.37-.14-.23-.17-.36c-.13-.43-.45-.49-.66-1s-.49-.94-.71-1.56a11,11,0,0,0-.73-1.79,1.62,1.62,0,0,1-.34-.94,1.59,1.59,0,0,1,0-.7c-.21.23-.39.15-.45.47a2.55,2.55,0,0,0,.43,1.17,10.16,10.16,0,0,1,.73,1.79c.23.62.51,1,.72,1.56s.45.66.65,1A7.24,7.24,0,0,0,97.88,73.65ZM103,66.36c0,.24.06.35-.37.62s-.47.3-.92,1a4.27,4.27,0,0,0-.73,1.41,9.46,9.46,0,0,0-.55,1.42,11.15,11.15,0,0,1-.56,1.67c-.34.88-.62,1.91-.81,2.57a17.07,17.07,0,0,0-.63,1.74c-.08.55-.44,1-.49,1.37s-.49.29-.73.3a.35.35,0,0,0,.35-.3,10.8,10.8,0,0,0,.49-1.37A17.28,17.28,0,0,1,98.73,75c.18-.66.47-1.69.8-2.57a11.41,11.41,0,0,0,.57-1.67,9.41,9.41,0,0,1,.54-1.42,4.48,4.48,0,0,1,.73-1.41c.45-.69.47-.71.92-1S103,66.6,103,66.36Zm-3.36,1.27a7,7,0,0,0,.38,1.35l.19-.73c-.1,0-.19.06-.21,0s-.06-.23,0-.34.13-.13.34-.07a.33.33,0,0,0,.2,0,1.28,1.28,0,0,0,.19-.23l-.52,0a.34.34,0,0,1-.3-.11c0-.08.09-.25.16-.32s.91,0,1.09-.06h0l.17-.19a7.27,7.27,0,0,1-1.24,0c-.09,0-.34,0-.39,0s-.06-.19,0-.26.13-.11.34-.08a8.34,8.34,0,0,0,1.38-.07s.08-.17,0-.17-.86.06-.9.06c-.41,0-1.44-.1-1.61.07C98.9,66.6,99.65,67.16,99.68,67.63Z"/><path class="cls-2" d="M102.94,74.12c.06-.19.14-.3.46-.41s.41-.75.61-1.09a8.52,8.52,0,0,0,.55-1.52c.17-.37.43-1,.54-1.4a9.69,9.69,0,0,1,.38-1.47,2.64,2.64,0,0,0,.39-1.12c0-.38.49-1.11.77-1.11a.54.54,0,0,1,.58.36c.11.3.28.54.41,1a7.83,7.83,0,0,0,.66,1.54c.21.55.75,1.73.9,2.23s.6,1,.69,1.47.51.93.75,1.68.23.55.34.87.19.63.38,1,.37.73.45.94a.63.63,0,0,0,.48.39c.23,0,.9,0,1,.19a.77.77,0,0,1,.06.3,1.26,1.26,0,0,1,0,.28c0,.09-.34.13-.47.13s-.34-.08-.54-.08-.3.1-.47.12c-.32,0-.49,0-.64,0s-.54-.13-.88-.13-.62.06-1,.08-.47-.08-.71-.08c-.06,0-.11-.13-.11-.3s0-.28.3-.28.5-.11.56-.3a.56.56,0,0,0,0-.21.77.77,0,0,0-.19-.45c-.24-.22-.32-.75-.45-1s-.49-1.13-.6-1.14a4.27,4.27,0,0,0-1.16-.08,10.6,10.6,0,0,0-1.41.11,4.68,4.68,0,0,1-.6.1c-.45,0-.53.45-.53.91,0,.25.06.53.06.7a1.81,1.81,0,0,0,.43,1.24.6.6,0,0,1,.32.54c0,.17-.13.21-.3.21l-.45,0c-.34,0-1.59.11-2.27.11s-1-.07-1-.24c0-.36.45-.6.66-1a10.78,10.78,0,0,0,1.35-2.45C103.13,74.57,102.94,74.4,102.94,74.12Zm1.19,2.78a1.74,1.74,0,0,0-.53,0,2.9,2.9,0,0,1-.34,0s-.05-.23,0-.32.28-.08.49,0a.66.66,0,0,0,.28,0l-.06-.32-.39,0c-.09,0-.06-.31.06-.43s.09,0,.28,0c0-.28-.09-.5-.15-.5a17,17,0,0,0-.88,1.46,10.86,10.86,0,0,0-.68,1.09c0,.09.45.17.71.17h.92c.21,0,.57,0,.57-.12a2.21,2.21,0,0,1-.08-.26.86.86,0,0,1-.24,0l-.81.06a.67.67,0,0,1-.39-.08c-.08,0-.08-.21,0-.28a2.21,2.21,0,0,1,1,0c.17,0,.23-.09.32-.08A1.31,1.31,0,0,1,104.13,76.9Zm1.27-6.25a13.41,13.41,0,0,1-.47,1.39,5.36,5.36,0,0,0-.3.94c0,.13-.28.5-.28.65s0,.06.08.06a2,2,0,0,1,.58-.06,2.33,2.33,0,0,1,.73.1,1.44,1.44,0,0,0,.45,0c.34,0,.69,0,.88,0a3.63,3.63,0,0,0,.84-.15c0-.06-.3-.06-.39-.43s-.39-.73-.54-1.11-.45-.69-.57-1.16-.3-.85-.37-1.16-.13-.3-.19-.3,0,0,0,.09S105.5,70.3,105.4,70.65Zm.56,0c0,.13,0,.4-.11.58a13,13,0,0,1-.67,1.84,2.14,2.14,0,0,0-.12.4s-.43,0-.35-.12.17-.62.22-.78a3.53,3.53,0,0,1,.28-.7,3.3,3.3,0,0,0,.3-.92,5.13,5.13,0,0,1,.32-.93S106,70.5,106,70.65Zm-.77,4.71c0,.17-.09.32-.11.58s.1.53.1.81.28.5.41.69a5.64,5.64,0,0,1,.34.51c.13.22.15.22.15.37s-.28.17-.4.1-.07-.19-.18-.4-.31-.39-.4-.54a2.37,2.37,0,0,1-.26-.86c0-.38-.13-.64-.13-.92a1.4,1.4,0,0,1,.13-.62C104.9,75,105.25,75,105.19,75.36Zm1.67-8.18a1.26,1.26,0,0,1-.11-.47,3.07,3.07,0,0,0-.67,1.34,2.8,2.8,0,0,0,0,.92,6,6,0,0,1,.52,1.27,14,14,0,0,0,.62,1.35c.13.47.28.41.54,1a4.29,4.29,0,0,1,.6,1.37c.12.49.4.88.6,1.43a3.79,3.79,0,0,0,.58,1.27c.17.25.19.58.51.88s.66.06,1,.08c.13,0,.5.06.54-.08s-.19-.11-.28-.26l-.23,0a2.58,2.58,0,0,0-.35,0,.64.64,0,0,1-.4-.08c-.07,0-.07-.2,0-.28s.26,0,.43,0a2,2,0,0,0,.34,0l-.17-.32h-.34l-.48,0c-.1,0-.12-.19-.1-.24s.25-.13.51-.11.13,0,.24,0a2.68,2.68,0,0,1-.13-.34.79.79,0,0,1-.34.09l-.58,0c-.17,0-.22-.18-.22-.24s.2-.09.35-.13a.81.81,0,0,1,.38,0,.46.46,0,0,0,.32,0,2.22,2.22,0,0,0-.1-.39,6.18,6.18,0,0,1-.62.09,1.75,1.75,0,0,0-.46,0c-.08,0-.08-.22-.1-.32s.15-.09.26-.15a1.44,1.44,0,0,1,.44,0,1.37,1.37,0,0,0,.3,0l-.15-.35a2.45,2.45,0,0,1-.34,0,3.17,3.17,0,0,0-.43,0c-.08,0-.32,0-.36,0s-.06-.23,0-.32.28-.08.49,0a.81.81,0,0,0,.47-.08l-.19-.43c-.17,0-.23,0-.32,0a2.47,2.47,0,0,0-.43.06.62.62,0,0,1-.36,0c-.09-.06.08-.32.15-.34a2.67,2.67,0,0,1,.53-.06.48.48,0,0,0,.26,0l-.17-.38a1.46,1.46,0,0,0-.26.06.65.65,0,0,1-.34,0,2.87,2.87,0,0,0-.39,0c-.13,0-.13-.19-.15-.27s.15-.13.26-.15H109a.53.53,0,0,0,.26-.1.81.81,0,0,0-.19-.3l-.41.06a1.3,1.3,0,0,1-.41,0,.53.53,0,0,1-.36-.14c-.07-.09,0-.22.12-.24a2.18,2.18,0,0,1,.41-.07l.35,0a1.33,1.33,0,0,1-.15-.32,3.27,3.27,0,0,0-.33,0,4.41,4.41,0,0,1-.6,0c-.08,0-.1-.07-.19-.17s-.08-.16.13-.24.41,0,.58-.09l.21,0-.21-.36c-.13,0-.15.06-.24.06a5.16,5.16,0,0,1-.58.06c-.17,0-.19-.16-.25-.23s0-.15.19-.21.41,0,.6-.07h.21c0-.09-.1-.23-.15-.32h-.55l-.54,0c-.11,0-.11-.17-.11-.24s.18-.1.3-.1.32-.07.41-.07l.24,0s0,0-.17-.4h-.2l-.55.08a.36.36,0,0,1-.3-.11c0-.08.1-.25.17-.32s.28,0,.47-.06.13,0,.28.06a4.38,4.38,0,0,1-.13-.43c-.2,0-.37.07-.43,0s-.34.06-.39,0-.06-.22,0-.34.13-.13.33-.07a.62.62,0,0,0,.38,0,3.57,3.57,0,0,1-.19-.39,2,2,0,0,1-.26,0c-.13,0-.13-.25-.09-.3S106.75,67.18,106.86,67.18Zm.47-1.1a1.09,1.09,0,0,1,.38.17,1.16,1.16,0,0,1,.47.73c.11.41.11.33.2.62a1.83,1.83,0,0,0,.25.54c.09.15.22.6.32.77a3.69,3.69,0,0,0,.3.6c.13.24.13.41.22.58a4.19,4.19,0,0,0,.26.6c.12.21.15.43.32.69s.34.74.53,1.11c.07.19.17.51.26.77s.28.54.43.9.17.37.26.53.1.33.17.52a2.89,2.89,0,0,1,.19.47,1.47,1.47,0,0,0,.17.56,3.86,3.86,0,0,1,.43.68,4.54,4.54,0,0,0,.37.47s-.58-.08-.63-.16a3.57,3.57,0,0,1-.38-.45c-.13-.18-.15-.46-.28-.65a2,2,0,0,1-.24-.68,5.41,5.41,0,0,0-.43-1.12c-.15-.19-.27-.66-.4-.88a4.53,4.53,0,0,1-.34-.81c-.09-.21-.3-.51-.37-.73s-.26-.53-.36-.77-.15-.6-.24-.73a2.73,2.73,0,0,1-.32-.64,3.44,3.44,0,0,0-.26-.56,1.29,1.29,0,0,1-.23-.47,5,5,0,0,0-.28-.68c0-.13-.28-.84-.28-.84Z"/><path class="cls-2" d="M119.46,76.88a6.71,6.71,0,0,0,.84-1c.3-.35.49-.71.71-1s.32-.36.59-.36c.09,0,.11.14.11.28a2.67,2.67,0,0,1-.17.83c-.11.3-.17.71-.75,2.76,0,.13-.21.18-.41.18a4.32,4.32,0,0,1-.7-.09,1.52,1.52,0,0,0-.33,0l-.91,0c-.37,0-.78-.13-1.25-.13s-.6,0-.77,0l-.54,0c-.42,0-1.07.09-1.47.09a.68.68,0,0,1-.22,0c-.25-.11-.53-.13-.53-.5s.45-.45.51-.53a7.77,7.77,0,0,0,.15-1.27c0-.42,0-1,0-1.48s-.06-1.3-.06-1.79,0-.82,0-1.27.15-.71.17-1.3c0-.37-.06-.82-.08-1.51,0-.47,0-1.19,0-1.56,0-.11,0-.21,0-.24,0-.21-.38-.29-.58-.32a.37.37,0,0,1-.3-.4.43.43,0,0,1,.43-.45c.15,0,0,0,1.2.21.22,0,.34,0,.62,0a9.78,9.78,0,0,1,1.24-.11c.43,0,.58.19.58.36s-.08.33-.4.46c-.15.08-.45.14-.45.23s0,.32,0,.71c0,.77,0,1.18,0,1.95s.17,1,.17,1.6-.13,1.08-.13,2a9.32,9.32,0,0,1,0,1.12,14.33,14.33,0,0,1-.09,1.9,1.1,1.1,0,0,0,0,.26,5.46,5.46,0,0,0,.07.73c.06.21.26.39.88.39A2.71,2.71,0,0,0,119.46,76.88Zm-4.63-9.45a8,8,0,0,0-.06,1.23,3.54,3.54,0,0,0,0,.45,13.05,13.05,0,0,1,.09,1.32,5.39,5.39,0,0,1,0,.71,7.39,7.39,0,0,0-.15,1.52c0,.13,0,.28,0,.39,0,.6,0,1.28,0,1.8s.19,1.17.19,1.58-.08.79-.08,1,0,.26.21.26a3.71,3.71,0,0,0,1-.15.84.84,0,0,0,.12-.28,3.39,3.39,0,0,0-.44,0,.61.61,0,0,1-.39-.08c-.07,0-.07-.2,0-.28a1,1,0,0,1,.58,0,1.06,1.06,0,0,0,.26,0,.62.62,0,0,0,0-.2v-.1l-.43,0-.49,0c-.09,0-.11-.19-.09-.24s.24-.13.5-.11a1.94,1.94,0,0,0,.44,0V76h-.12l-.58,0c-.17,0-.22-.18-.22-.24s.2-.09.35-.13a1.89,1.89,0,0,1,.58,0c0-.23,0-.28.06-.34l-.49,0a1.84,1.84,0,0,0-.47,0c-.07,0-.07-.22-.09-.32s.15-.09.26-.15a2.61,2.61,0,0,1,.58,0,1.06,1.06,0,0,0,.25,0v-.16c-.08-.23.06-.17-.17-.17a5.72,5.72,0,0,0-.58,0c-.08,0-.32,0-.36,0s-.05-.23,0-.32.28-.08.49,0a1.23,1.23,0,0,0,.58-.08v-.43a.8.8,0,0,1-.24,0,2.75,2.75,0,0,0-.44.06.58.58,0,0,1-.35,0c-.09-.06.07-.32.15-.34a4.7,4.7,0,0,1,.67-.06.51.51,0,0,0,.23,0c0-.1,0-.23,0-.34a.13.13,0,0,0-.12,0,1.29,1.29,0,0,1-.48,0,3,3,0,0,0-.4,0c-.13,0-.13-.19-.15-.27s.15-.13.27-.15h.6a.61.61,0,0,0,.28-.12v-.3a.9.9,0,0,1-.21.08,2.46,2.46,0,0,1-.56,0,.51.51,0,0,1-.36-.14c-.07-.09,0-.22.11-.24a2.45,2.45,0,0,1,.42-.07,5.81,5.81,0,0,0,.62-.08v-.28c-.14,0-.3,0-.38,0a4.16,4.16,0,0,1-.6,0c-.07,0-.09-.07-.19-.17s-.07-.16.13-.24.42,0,.59-.09a2.68,2.68,0,0,1,.45,0v-.38l-.38.08a5.16,5.16,0,0,1-.58.06c-.17,0-.19-.16-.24-.23s0-.15.18-.21.42,0,.6-.07a2.36,2.36,0,0,1,.38,0l-.06-.34h-.43l-.54,0c-.11,0-.11-.17-.11-.24s.18-.1.29-.1.47-.07.57-.07l.18,0v-.4h-.09l-.54.08a.35.35,0,0,1-.3-.11c0-.08.09-.25.17-.32s.28,0,.47-.06a.49.49,0,0,1,.29,0v-.28a1,1,0,0,1-.39,0c-.09-.06-.34.06-.39,0s-.06-.23,0-.34.13-.13.33-.07h.45v-.33h-.09l-.54.07a.32.32,0,0,1-.3-.11c0-.08.09-.24.17-.32s.28,0,.47-.06a.65.65,0,0,1,.29,0,1.28,1.28,0,0,1,0-.3.85.85,0,0,1-.43.06c-.09-.06-.34,0-.39,0s-.06-.19,0-.27.13-.11.34-.07a1.38,1.38,0,0,0,.41,0c-.06-.1-.13-.17-.21-.17a3.05,3.05,0,0,0-.67.07C115.15,66.94,114.92,67,114.83,67.43Zm2.51-.73a2.48,2.48,0,0,0-.06,1.29c0,.77,0,.84,0,1.61s.17,1,.17,1.6-.14,1.08-.14,2a9.32,9.32,0,0,1,0,1.12,14.33,14.33,0,0,1-.09,1.9,1.1,1.1,0,0,0,0,.26,5.46,5.46,0,0,0,.07.73.72.72,0,0,0,.43.34c-.59-.12-.75-.13-.8-.34a5.2,5.2,0,0,1-.08-.73,1.1,1.1,0,0,1,0-.26,12.29,12.29,0,0,0,.1-1.9,9.32,9.32,0,0,0,0-1.12c0-.89.13-1.3.13-2s-.17-.79-.17-1.6,0-1.18,0-1.95c0-.39-.06-.71,0-.71A2,2,0,0,0,117.34,66.7Zm1.8,11.42c.54,0,1.37,0,1.37,0a1,1,0,0,1,0-.2l-.15,0a1.48,1.48,0,0,1-.58-.08c-.08,0-.08-.2,0-.28a1.75,1.75,0,0,1,.83,0l0-.22h0a.63.63,0,0,1-.4-.08c-.07,0-.07-.2,0-.28a.94.94,0,0,1,.51,0l.07-.28a1.15,1.15,0,0,1-.24,0c-.1,0-.12-.19-.1-.24s.21-.12.45-.12l.08-.24c-.15,0-.19-.19-.19-.24s.15-.08.28-.12a1.72,1.72,0,0,0,.1-.37A6.27,6.27,0,0,0,120,76.94c-.2.48-1.33,1-1.33,1.12S118.88,78.12,119.14,78.12Zm2.66-3.57c.1,0,.34.1.36.3a2.21,2.21,0,0,1-.06.81c-.11.3-.17.71-.34,1.29l-.41,1.47c0,.2-.49.18-.71.18.17,0,.3-.07.34-.18.58-2,.63-2.46.75-2.76a2.67,2.67,0,0,0,.17-.83C121.9,74.7,121.88,74.59,121.8,74.55Z"/><path class="cls-2" d="M128.09,76.88a6.75,6.75,0,0,0,.85-1c.3-.35.49-.71.71-1s.32-.36.58-.36c.09,0,.11.14.11.28a2.66,2.66,0,0,1-.16.83c-.12.3-.17.71-.75,2.76,0,.13-.21.18-.42.18a4.33,4.33,0,0,1-.69-.09,1.67,1.67,0,0,0-.34,0l-.9,0c-.37,0-.79-.13-1.26-.13s-.6,0-.76,0l-.55,0c-.41,0-1.07.09-1.46.09a.79.79,0,0,1-.23,0c-.24-.11-.52-.13-.52-.5s.45-.45.51-.53a9.21,9.21,0,0,0,.15-1.27c0-.42,0-1,0-1.48s-.06-1.3-.06-1.79,0-.82,0-1.27.15-.71.17-1.3c0-.37-.05-.82-.07-1.51,0-.47,0-1.19,0-1.56,0-.11,0-.21,0-.24,0-.21-.38-.29-.59-.32a.38.38,0,0,1-.3-.4.43.43,0,0,1,.44-.45c.14,0,0,0,1.2.21.22,0,.33,0,.61,0a9.94,9.94,0,0,1,1.24-.11c.43,0,.58.19.58.36s-.07.33-.39.46c-.15.08-.45.14-.45.23s0,.32,0,.71c0,.77,0,1.18,0,1.95s.17,1,.17,1.6-.13,1.08-.13,2c0,.3,0,.69,0,1.12a12.73,12.73,0,0,1-.09,1.9,1.1,1.1,0,0,0,0,.26,5.2,5.2,0,0,0,.08.73c0,.21.26.39.88.39A2.68,2.68,0,0,0,128.09,76.88Zm-4.63-9.45a8,8,0,0,0-.06,1.23,3.54,3.54,0,0,0,0,.45,12.92,12.92,0,0,1,.1,1.32,4.08,4.08,0,0,1-.06.71,8.16,8.16,0,0,0-.15,1.52c0,.13,0,.28,0,.39,0,.6,0,1.28,0,1.8s.19,1.17.19,1.58-.08.79-.08,1,0,.26.21.26a3.77,3.77,0,0,0,1-.15.88.88,0,0,0,.11-.28,3.24,3.24,0,0,0-.43,0,.6.6,0,0,1-.39-.08c-.08,0-.08-.2,0-.28a1,1,0,0,1,.59,0,1,1,0,0,0,.26,0,.62.62,0,0,0,0-.2v-.1l-.43,0-.49,0c-.1,0-.11-.19-.1-.24s.25-.13.51-.11a1.85,1.85,0,0,0,.43,0V76h-.11l-.58,0a.25.25,0,0,1-.23-.24c0-.06.21-.09.36-.13a1.9,1.9,0,0,1,.58,0c0-.23,0-.28.06-.34l-.49,0a1.83,1.83,0,0,0-.47,0c-.07,0-.07-.22-.09-.32s.15-.09.26-.15a2.55,2.55,0,0,1,.58,0,.93.93,0,0,0,.24,0v-.16c-.07-.23.06-.17-.16-.17s-.49,0-.59,0-.31,0-.35,0-.06-.23,0-.32.28-.08.48,0a1.26,1.26,0,0,0,.59-.08v-.43a.82.82,0,0,1-.25,0,2.47,2.47,0,0,0-.43.06.62.62,0,0,1-.36,0c-.09-.06.08-.32.15-.34a4.86,4.86,0,0,1,.68-.06.47.47,0,0,0,.22,0c0-.1,0-.23,0-.34a.11.11,0,0,0-.11,0,1.34,1.34,0,0,1-.49,0,2.87,2.87,0,0,0-.39,0c-.13,0-.13-.19-.15-.27s.15-.13.26-.15h.6a.53.53,0,0,0,.28-.12v-.3a.84.84,0,0,1-.2.08,2.55,2.55,0,0,1-.57,0,.49.49,0,0,1-.35-.14c-.08-.09,0-.22.11-.24a2.18,2.18,0,0,1,.41-.07,5.24,5.24,0,0,0,.62-.08v-.28c-.13,0-.3,0-.37,0a4.41,4.41,0,0,1-.6,0c-.08,0-.1-.07-.19-.17s-.08-.16.13-.24.41,0,.58-.09a2.78,2.78,0,0,1,.45,0v-.38l-.37.08a5.42,5.42,0,0,1-.58.06c-.17,0-.19-.16-.25-.23s0-.15.19-.21.41,0,.6-.07a2.3,2.3,0,0,1,.37,0l0-.34h-.43l-.55,0c-.11,0-.11-.17-.11-.24s.19-.1.3-.1.47-.07.56-.07l.19,0v-.4h-.09l-.55.08a.36.36,0,0,1-.3-.11c0-.08.1-.25.17-.32s.28,0,.47-.06a.52.52,0,0,1,.3,0v-.28a1,1,0,0,1-.39,0c-.1-.06-.34.06-.4,0s-.05-.23,0-.34.13-.13.34-.07h.45v-.33h-.09l-.55.07a.34.34,0,0,1-.3-.11c0-.08.1-.24.17-.32s.28,0,.47-.06a.67.67,0,0,1,.3,0,1.28,1.28,0,0,1,0-.3.86.86,0,0,1-.43.06c-.1-.06-.34,0-.4,0s0-.19,0-.27.14-.11.34-.07a1.38,1.38,0,0,0,.41,0,.27.27,0,0,0-.2-.17,3.14,3.14,0,0,0-.68.07C123.78,66.94,123.56,67,123.46,67.43ZM126,66.7a2.59,2.59,0,0,0,0,1.29c0,.77-.06.84-.06,1.61s.17,1,.17,1.6-.13,1.08-.13,2a9.32,9.32,0,0,1,0,1.12,12.29,12.29,0,0,1-.1,1.9,1.1,1.1,0,0,0,0,.26,5.2,5.2,0,0,0,.08.73.69.69,0,0,0,.43.34c-.6-.12-.75-.13-.81-.34s-.07-.45-.07-.73a1.1,1.1,0,0,1,0-.26,14.33,14.33,0,0,0,.09-1.9,9.32,9.32,0,0,0,0-1.12c0-.89.14-1.3.14-2s-.17-.79-.17-1.6,0-1.18,0-1.95c0-.39,0-.71,0-.71A2,2,0,0,0,126,66.7Zm1.8,11.42c.55,0,1.37,0,1.37,0a1,1,0,0,1,0-.2L129,78a1.51,1.51,0,0,1-.58-.08c-.07,0-.07-.2,0-.28a1.71,1.71,0,0,1,.82,0l.06-.22h0a.6.6,0,0,1-.39-.08c-.08,0-.08-.2,0-.28a.9.9,0,0,1,.5,0l.08-.28a1.24,1.24,0,0,1-.25,0c-.09,0-.11-.19-.09-.24s.21-.12.45-.12l.07-.24c-.15,0-.18-.19-.18-.24s.15-.08.28-.12a2.24,2.24,0,0,0,.09-.37,6.51,6.51,0,0,0-1.31,1.56c-.21.48-1.33,1-1.33,1.12S127.51,78.12,127.77,78.12Zm2.67-3.57c.09,0,.33.1.35.3a2.44,2.44,0,0,1,0,.81c-.11.3-.17.71-.34,1.29L130,78.42c-.06.2-.49.18-.72.18.17,0,.3-.07.34-.18.58-2,.64-2.46.75-2.76a2.41,2.41,0,0,0,.17-.83C130.53,74.7,130.51,74.59,130.44,74.55Z"/><path class="cls-2" d="M132,71.18c0-.15,0-.34,0-.58a2.81,2.81,0,0,1,0-.29,11.4,11.4,0,0,0,.08-1.48,9.48,9.48,0,0,0-.24-1.72s-.08,0-.15,0a1.81,1.81,0,0,1-.58-.06c-.14,0-.17-.15-.17-.3s0-.61.33-.61c.51,0,.59.11,1.11.11a3,3,0,0,0,.39,0c.4,0,.57-.06.81-.06l.54,0c.32,0,.66,0,1,0,1.27,0,1.93,0,2.27,0l.54,0c.38,0,.71-.26,1.11-.26a.4.4,0,0,1,.35.43c0,.21-.11.81-.11,1.35,0,.24,0,.54,0,.81s0,.28,0,.5-.11.66-.24.66a.54.54,0,0,1-.38-.32c-.07-.21-.2-.23-.39-.54s-.64-.36-.77-.57a3.71,3.71,0,0,0-1.09-.8c-.24,0-1.12-.27-1.67-.3-.22,0-.22.07-.22.2a3.88,3.88,0,0,0,0,.44,9.47,9.47,0,0,0,.06,1q0,.42,0,.69c0,.32-.05.62-.05,1.07s.07.85.09,1.07.15.17.28.17a4.14,4.14,0,0,0,.45,0c.32-.09.55-.26.75-.3a1.77,1.77,0,0,0,.87-.56,1.57,1.57,0,0,1,.8-.66c.21,0,.21.3.21.55a10.07,10.07,0,0,0-.17,1.5c0,.37.11.75.11,1.22,0,.28,0,.5-.15.5a.89.89,0,0,1-.69-.32,2,2,0,0,0-.58-.5c-.68-.38-.75-.51-.94-.51s-.45,0-.62,0-.32.06-.32.34.11.58.11,1a10,10,0,0,0,0,1.09c0,.41.1,1,.1,1.65,0,.38,0,.62,1,.62a8.68,8.68,0,0,1,.9-.15c.34,0,.6-.36.77-.45s.43-.34.58-.49.43-.64.62-.86.49-.6.64-.79a.18.18,0,0,1,.15-.11.34.34,0,0,1,.28.26.68.68,0,0,1,0,.21,6.21,6.21,0,0,1-.11.88c-.06.38-.12,1-.17,1.44a9.4,9.4,0,0,1-.19,1.2.74.74,0,0,1-.26,0c-.23,0-.53,0-.64,0s-.64-.09-1-.09-.65-.07-1.16-.07h-.52c-.51,0-1.28.06-1.71.08s-1,.13-1.35.13-.94.15-1.29.17a.56.56,0,0,1-.62-.53c0-.28.54-.2.82-.35s.32-.57.39-.85a1.35,1.35,0,0,0,.06-.41c0-.13,0-.3,0-.64a4.87,4.87,0,0,1,0-1,3.15,3.15,0,0,0,0-.41c0-.21,0-.25,0-.3a4.46,4.46,0,0,1-.11-1.75C132,72.34,132,71.37,132,71.18Zm1.86-3.9c0-.1-.09-.21-.21-.21-.67,0-1.22,0-1.22.19a11.16,11.16,0,0,1,.16,1.42c0,.79-.1,1.3-.1,1.75a1.57,1.57,0,0,0,0,.32,2.68,2.68,0,0,1,0,.41c0,.3,0,.62,0,.84s0,.28,0,.32,0,.08,0,.11-.08.42-.08.72a5.5,5.5,0,0,0,0,.8c0,.25,0,.51,0,.75s0,.62,0,1.2.15.7.15,1-.13.43-.13.69.07.28.22.28a8.34,8.34,0,0,0,1.22-.26s.06-.06.08-.13l-.25,0a.6.6,0,0,1-.39-.08c-.08,0-.08-.2,0-.28s.43,0,.61,0c0-.11,0-.2,0-.34-.34,0-.64,0-.75,0s-.12-.18-.1-.24.25-.13.51-.11a1.13,1.13,0,0,0,.32,0,1.78,1.78,0,0,1,0-.34.47.47,0,0,1-.15,0l-.58,0c-.17,0-.23-.19-.23-.25s.21-.09.36-.13a1.53,1.53,0,0,1,.6,0c0-.15,0-.28,0-.43a3.41,3.41,0,0,1-.49.06,1.83,1.83,0,0,0-.47,0c-.07,0-.07-.23-.09-.32s.15-.1.26-.15a2.55,2.55,0,0,1,.58,0,1,1,0,0,0,.24,0v-.39h-.71a2,2,0,0,1-.35,0s-.06-.22,0-.31.29-.08.49,0,.34-.06.53-.11v-.4a1.58,1.58,0,0,1-.28,0,2.75,2.75,0,0,0-.44.06.58.58,0,0,1-.35,0c-.1-.06.07-.32.15-.34a4.7,4.7,0,0,1,.67-.06.57.57,0,0,0,.27,0c0-.1,0-.23,0-.36a.28.28,0,0,0-.13,0,1.29,1.29,0,0,1-.48,0,2.85,2.85,0,0,0-.4,0c-.13,0-.13-.19-.15-.27s.15-.13.26-.15h.6a.68.68,0,0,0,.3-.12v-.26l-.24,0a2.46,2.46,0,0,1-.56,0,.51.51,0,0,1-.36-.14c-.07-.09,0-.22.11-.24a2.45,2.45,0,0,1,.42-.07,4.86,4.86,0,0,0,.6-.06l0,0c0-.1,0-.21,0-.32s-.27,0-.34,0a4.28,4.28,0,0,1-.6,0c-.08,0-.09-.07-.19-.17s-.07-.16.13-.24.42,0,.58-.09.27,0,.4,0v-.36a2.5,2.5,0,0,1-.38.06,5.16,5.16,0,0,1-.58.06c-.17,0-.19-.16-.24-.23s0-.15.19-.21.41,0,.6-.07a3,3,0,0,1,.41,0v-.34h-.55L133,70c-.11,0-.11-.17-.11-.24s.19-.1.3-.1.47-.07.56-.07a1.48,1.48,0,0,0,.32-.06,2.11,2.11,0,0,1,0-.38h-.22l-.55.08a.36.36,0,0,1-.3-.11c0-.08.1-.25.17-.32s.28,0,.47-.06a1.43,1.43,0,0,1,.39,0v-.39a1.1,1.1,0,0,1-.48,0c-.1,0-.34.06-.4,0s-.05-.22,0-.34.13-.13.34-.07a2.27,2.27,0,0,0,.54,0c0-.15,0-.21,0-.34h-.89c-.14,0-.14-.24-.1-.3S133.61,67.26,133.87,67.28Zm1.07,4.35.32-.11-.21-.91a8.61,8.61,0,0,1,0-1.06l0-.74-.08-.5v-.54l.15-.27-.11-.17h-.38c0,.15,0,.12,0,.44s0,.59.05,1,0,.51,0,.69-.06.62-.06,1.07.12,1.09.1,1.07S134.94,71.63,134.94,71.63Zm.64,5.23a1.38,1.38,0,0,1-.21-.54c-.06-.43-.13-1.24-.13-1.24l0-1.11,0-.6.11-.32s.17-.2-.15-.28-.3.17-.32.17c0,.28.11.58.11,1a10,10,0,0,0,0,1.09c0,.41.09,1,.09,1.65a.38.38,0,0,0,.45.38C135.76,77,135.58,76.86,135.58,76.86Zm1.74-5.21c0-.1,0-.17-.07-.17s-1.32.47-1.32.67.51.45.72.55.67.43.67.43a.86.86,0,0,1,0-.19c-.2,0-.35-.22-.32-.28a.7.7,0,0,1,.3-.06v-.13h-.43c-.13,0-.24-.26-.2-.32s.48,0,.67,0a1.23,1.23,0,0,0,0-.13h-.17c-.13,0-.24-.15-.21-.2A1.05,1.05,0,0,1,137.32,71.65Zm1.28,5.19h.3l0-.19s-.13,0-.15-.09,0-.23.1-.23a.3.3,0,0,1,.16,0s.1-.3,0-.3-.53.67-1,1.07-.92.37-.92.6.39.16.75.16.56.08.68.08.05-.11.11-.17c-.19,0-.56,0-.66-.09s0-.27.1-.27.48,0,.65,0l0-.22a.42.42,0,0,1-.34-.1S138.46,76.84,138.6,76.84Zm.13-9.94s0-.05,0-.09a.16.16,0,0,0-.15-.06c-.3,0-.58.06-1,.06-.15,0-.32,0-.32.09s.22.34.41.56.36.44.54.6a6.38,6.38,0,0,1,.62.77s0-.39,0-.47-.39-.18-.28-.33.21,0,.27,0a.75.75,0,0,1,0-.21h-.42c-.13,0-.13-.2-.09-.26a1.24,1.24,0,0,1,.51-.08v-.22c-.19,0-.59,0-.64,0S138,67,138,67,138.54,66.88,138.73,66.9Zm-.68,3.25.4.2.07.43-.24,1v.69l.11.92,0,.4S138,74,138,74a.89.89,0,0,0,.13-.5c0-.38-.11-.75-.11-1.22a10.07,10.07,0,0,1,.17-1.5A1.63,1.63,0,0,0,138.05,70.15Zm1.18-.49a4,4,0,0,1,.45-.1,2.25,2.25,0,0,0,.15-.76v-.27l0-.84.08-1.46-.24-.27-.4,0c.11.11.3.22.3.41s-.11.81-.11,1.35c0,.24,0,.54,0,.81s0,.28,0,.5A1.14,1.14,0,0,1,139.23,69.66Zm.27,8.78c.05,0,.45-.08.45-.08l.09-1.07.13-1.31.13-.83V74.7l-.24-.28s-.34,0-.43,0a.63.63,0,0,1,.3.34.68.68,0,0,1,0,.21,5.11,5.11,0,0,1-.12.88c-.05.38-.11,1-.17,1.44S139.53,78.32,139.5,78.44Z"/><path class="cls-2" d="M148.15,71.5a5.84,5.84,0,0,0-.35,1.25c0,.64.11,1.32.11,1.84,0,.92.07,1.58.07,2.4,0,.36.45.47.72.47s.31.11.31.54-.15.34-.35.45a1.58,1.58,0,0,1-.56.06,4.2,4.2,0,0,1-.72-.06h-1.12c-.32,0-1.46.14-1.73.14s-.22-.15-.22-.42a1.87,1.87,0,0,1,0-.32c.11-.33.41-.22.63-.3s.15-.37.23-.8a17.9,17.9,0,0,0,.15-1.92c0-.54,0-1.46,0-2s-.23-.62-.4-.92-.58-.83-.76-1a2.58,2.58,0,0,0-.55-.62c-.3-.24-.3-.64-.54-.86a11.39,11.39,0,0,1-.81-1c-.3-.38-.56-.79-.82-1.13-.08-.15-.17-.2-.4-.2a1.15,1.15,0,0,1-.24,0,.59.59,0,0,1-.43-.51,2.16,2.16,0,0,0,0-.28c0-.11.43-.15.62-.15a.5.5,0,0,1,.18,0c.23,0,.58,0,1,.06.17,0,.35,0,.54,0s.43,0,.62,0l.45,0,.37,0c.17,0,.23.2.23.41,0,.39.39.79.6,1.14a11.34,11.34,0,0,0,.71,1c.19.34.64.53,1,1s.56.74.81.74.58-.74.82-1.13a6.69,6.69,0,0,0,.39-1.14s0-.06,0-.08-.19-1-.44-1c-.28-.17-.63-.4-.63-.66s.13-.43.52-.43l1.11,0a2.8,2.8,0,0,1,.88.13,4,4,0,0,0,.49,0c.39,0,.78-.09,1.16-.09s.49.15.49.41-.32.25-.88.6c-.36.21-.38.23-.85.92a25.72,25.72,0,0,0-1.63,2.21C148.71,70.75,148.3,71,148.15,71.5Zm-.75,5.15h-.64l-.48,0c-.1,0-.12-.19-.1-.24s.25-.13.51-.11a5.87,5.87,0,0,0,.69,0V76l-.95,0a.25.25,0,0,1-.23-.24c0-.06.21-.09.36-.13a5,5,0,0,1,.8,0v-.39c-.22,0-.52.07-.61.07a1.83,1.83,0,0,0-.47,0c-.08,0-.08-.22-.1-.32s.15-.09.27-.15a5.91,5.91,0,0,1,.88,0,2.18,2.18,0,0,0,0-.35,7,7,0,0,0-.7,0c-.07,0-.31,0-.35,0s-.06-.23,0-.32.28-.08.48,0a2,2,0,0,0,.55,0v-.43l-.64.06a.62.62,0,0,1-.36,0c-.09-.06.08-.32.15-.34s.62,0,.87-.06l0-.35a2.74,2.74,0,0,1-.6,0,2.87,2.87,0,0,0-.39,0c-.13,0-.13-.19-.15-.27s.15-.13.26-.15h.94a.93.93,0,0,0,0-.34,5.3,5.3,0,0,1-.81,0,.49.49,0,0,1-.35-.14c-.08-.09,0-.22.11-.24a2.18,2.18,0,0,1,.41-.07l.7,0v0a.45.45,0,0,0,0-.28l-.15,0c-.09,0-1,0-1,0s-.09-.07-.19-.17-.07-.16.13-.24.87,0,1-.09a1.58,1.58,0,0,0-.35-.38,1.09,1.09,0,0,1-.25,0c-.15,0-.78.06-1,.06s-.19-.16-.25-.23,0-.15.19-.21l.77,0-.22-.21-.17-.13h-.34l-.88,0c-.11,0-.11-.17-.11-.24s.18-.1.29-.1l.66-.06a4.41,4.41,0,0,1-.35-.45l-.9.08a.34.34,0,0,1-.3-.11c0-.08.09-.25.16-.32a7.47,7.47,0,0,1,.77,0l-.24-.36a1.82,1.82,0,0,1-.71.06c-.1-.06-.34.06-.4,0s0-.23,0-.34.13-.13.34-.07a3,3,0,0,0,.54,0l-.18-.33h0l-.87.07a.31.31,0,0,1-.29-.11c0-.08.09-.24.16-.32s.6,0,.79-.06l-.13-.24a3.77,3.77,0,0,1-.79.08c-.09-.06-.33,0-.39,0s-.06-.18,0-.26.43-.11.64-.07a1.82,1.82,0,0,0,.41,0,.26.26,0,0,0-.17-.14H143c-.2,0-.71.06-.71.17s.53.75.75,1.18a9.16,9.16,0,0,0,.9,1.58c.36.39.47.64.81,1s.64.68.82,1a2.3,2.3,0,0,1,.38,1.26v.45c0,.39,0,.84,0,1.14a12,12,0,0,0-.17,1.43,5.91,5.91,0,0,0,.07.89c0,.17,0,.32,0,.42,0,.3.46.37.65.39a1.69,1.69,0,0,0,.79-.28l-.6,0a.6.6,0,0,1-.39-.08c-.08,0-.08-.2,0-.28a2.67,2.67,0,0,1,1,0,.28.28,0,0,0,.11,0A1.47,1.47,0,0,1,147.4,76.65Zm.23-6.47c-.25-.16-.15-.07-.38-.45s-.77-.69-.95-1a9.73,9.73,0,0,1-.72-1c-.2-.35-.6-.75-.6-1.14a.49.49,0,0,0-.6-.41c.17,0,.23.2.23.41,0,.39.39.79.6,1.14a9.65,9.65,0,0,0,.71,1c.19.34.64.53,1,1a3.15,3.15,0,0,0,.56.62S147.65,70.18,147.63,70.18Zm1,7.09s-.49,0-.49-.47c0-.82-.07-1.29-.07-1.91v-.3a15.14,15.14,0,0,1-.06-2.06,3.73,3.73,0,0,1,.3-1c.15-.47.56-.75.77-1.32A22,22,0,0,1,150.74,68c.47-.69.49-.71.84-.92a2.23,2.23,0,0,1,.55-.22,6.85,6.85,0,0,0-1,1.14,25.72,25.72,0,0,0-1.63,2.21c-.2.57-.62.85-.77,1.32a5.84,5.84,0,0,0-.35,1.25,12.47,12.47,0,0,1,.11,2.14,15.9,15.9,0,0,0,.06,1.88C148.55,77,148.51,77.1,148.66,77.27ZM149.2,68a2,2,0,0,0,.23.67l.2-.28s-.13.06-.15,0,0-.23,0-.34.13-.13.34-.07h.09l.25-.29-.45,0a.34.34,0,0,1-.3-.11c0-.08.09-.24.17-.32s.5,0,.69-.06a.39.39,0,0,1,.26.06l.27-.26a10.33,10.33,0,0,1-1.11,0c-.09-.06-.34,0-.39,0s-.06-.18,0-.26.13-.11.33-.07a8.61,8.61,0,0,0,1.43-.13,1,1,0,0,0-.43-.12c-.23,0-.53.06-1.92.06A2.8,2.8,0,0,1,149.2,68Zm1.37-.62v0S150.55,67.37,150.57,67.41Z"/><path class="cls-2" d="M41.23,80.66c.82,0,2.06.28,2.79.34a5.36,5.36,0,0,0,.82,0c.9,0,2-.14,3.1-.24a4.72,4.72,0,0,1,.73,0c.93,0,1.62.18,2.48.18h.45a14,14,0,0,1,3.51.65,5.66,5.66,0,0,1,1.79,2c.38.59.35,2.41.41,3.21a10.05,10.05,0,0,1-.86,3.06,5.11,5.11,0,0,1-1.79,1.69,7.13,7.13,0,0,1-1.44.66,6.14,6.14,0,0,0,1.24.58c.72.21.72.72,1.27.93s.52,1,.83,1.34a6.7,6.7,0,0,1,.55,1.62,16.52,16.52,0,0,1,.72,2.76,4.77,4.77,0,0,0,1,2.21c.41.31.79.24,1.45.34a.67.67,0,0,1,.52.72,1.31,1.31,0,0,1-.14.59c-.21.45-.73.24-1.76.38a4.3,4.3,0,0,1-.59,0c-.55,0-.75-.1-1.41-.1a8.8,8.8,0,0,1-2.75-.38,2.47,2.47,0,0,1-1.28-1.55c-.1-.55-.31-2.21-.38-2.69s-.86-2.51-1-3.37-.86-1.31-1.79-1.83a1.8,1.8,0,0,0-.86-.21c-.28,0-.56.07-1.21.07a1.19,1.19,0,0,0-1.1.83.83.83,0,0,0-.11.52c0,.41.21.93.24,1.75.07,1.18.11,1.52.11,2.62a7.43,7.43,0,0,0,.2,2.41c.18.38,1.28.38,1.38.76,0,.55-.13,1-.45,1.07s-2.72.17-3.34.24A4.45,4.45,0,0,1,44,104a29.19,29.19,0,0,1-3.11-.21c-.41-.1-.51-.55-.55-.86s1.21-.48,1.38-.58.28-.31.28-.76a5.64,5.64,0,0,1,0-.59c0-.69-.17-1.75-.13-3.44,0-1.42.1-3.21.1-4,0-.52,0-.8,0-1.07,0-.69-.07-1.45-.1-2.38,0-.48,0-.93,0-1.31a16.18,16.18,0,0,1,.1-2,4.09,4.09,0,0,0,0-.62,22,22,0,0,0-.31-3.07c0-.07,0-.1,0-.14,0-.31-.14-.38-.28-.38s-.27.07-.45.07a.36.36,0,0,1-.17,0c-.34-.11-.51-.55-.51-1.07a3.19,3.19,0,0,1,.06-.52C40.36,80.76,40.74,80.66,41.23,80.66Zm1.44,1.93c0,.51.21,1.72.35,2.79s.17,1.86.17,2.69a7,7,0,0,1,0,.93c0,.2,0,.38,0,.55,0,.79.1,1.58.1,2.51a6.11,6.11,0,0,1,0,.76c-.07.76-.07,1.35-.07,1.86a9,9,0,0,1-.07,1.41,7.91,7.91,0,0,0-.1,1.35c0,.55,0,1.14,0,1.55s0,1,0,1.51a3.94,3.94,0,0,0,.14,1.31c.17.28,1.61.45,2,.45s.52-.27.62-.65c-.51,0-1.17,0-1.34,0a1.09,1.09,0,0,1-.72-.14c-.14-.07-.14-.38.07-.51a5.67,5.67,0,0,1,2.06,0h0v-.58H45.5l-1.73.07c-.17,0-.2-.35-.17-.45s.45-.24.93-.21a5.34,5.34,0,0,0,1.28-.07v-.45c-.45,0-1.52,0-1.76,0s-.41-.35-.41-.45.38-.17.65-.24a10.3,10.3,0,0,1,1.52,0v-.69c-.42,0-.9.1-1.07.1a3.5,3.5,0,0,0-.86,0c-.14.07-.14-.41-.17-.59s.27-.17.48-.27a10.63,10.63,0,0,1,1.58,0c0-.2,0-.44,0-.65-.42,0-1.24,0-1.38,0a3.5,3.5,0,0,1-.65,0c-.07,0-.11-.41,0-.58s.52-.14.9-.07a4,4,0,0,0,1-.07c0-.28,0-.55,0-.79-.42,0-1,.07-1.21.1a1.11,1.11,0,0,1-.66,0c-.17-.11.14-.59.28-.62s1-.07,1.52-.11a3.34,3.34,0,0,1,0-.65,4.33,4.33,0,0,1-.83,0,6.7,6.7,0,0,0-.72.07c-.24,0-.24-.34-.27-.48s.27-.24.48-.28.93,0,1.38,0v-.1a2.08,2.08,0,0,1,0-.45H44.4a1,1,0,0,1-.66-.24c-.14-.18.07-.42.21-.45a4.57,4.57,0,0,1,.75-.14c.11,0,.59,0,1,0v-.31a.57.57,0,0,0,0-.24,16.1,16.1,0,0,1-1.79.1c-.14,0-.17-.14-.34-.31s-.14-.31.24-.45,1.48-.07,1.79-.17a4.16,4.16,0,0,0,0-.59c-.38,0-1.11.07-1.38.07s-.35-.27-.45-.41,0-.28.34-.38,1.07-.07,1.49-.1v-.62h-.11L44,88.1c-.21,0-.21-.31-.21-.45s.28-.17.48-.17.93-.07,1.35-.1c0-.17,0-.35,0-.52l-1.24.1a.63.63,0,0,1-.55-.2c-.07-.14.17-.45.31-.59s1.17,0,1.52-.1c0-.1,0-.24,0-.38a11.14,11.14,0,0,1-1.9,0c-.13,0-.1-.41,0-.62s.25-.24.63-.13a7.87,7.87,0,0,0,1.27,0v-.62l-1.52.1a.86.86,0,0,1-.65-.2c-.07-.14.17-.45.31-.59s1.48,0,1.83-.1v-.38l-1.93.1a.61.61,0,0,1-.56-.21c-.06-.13.18-.44.31-.58s1.52,0,2-.07a1.24,1.24,0,0,0-.73-.24c-.13,0-1.13,0-1.31,0-.34,0-.65,0-.75.17S42.67,82.48,42.67,82.59Zm3.86,1a9.23,9.23,0,0,0,0,1c.06,1.1.31,2.93.31,4,0,.21,0,.38,0,.49-.07.65-.1,1.82-.1,2.51v.55c0,.11.17.14.38.14A7.79,7.79,0,0,0,48.77,92c.62-.13,1.9,0,2.41-.58A6.27,6.27,0,0,0,52,88.82l.07-.27a8.81,8.81,0,0,0,.17-1.69,7.08,7.08,0,0,0-.17-1.48c-.24-1.14-.51-2.34-1.27-2.79a3,3,0,0,0-2.07-.66c-.86,0-2.07,0-2.14.31Zm1.28,10.3a.83.83,0,0,0-1,.59.9.9,0,0,0-.1.52c0,.41.2.93.24,1.75.07,1.18.1,1.52.1,2.62a7.09,7.09,0,0,0,.21,2.41c.17.38,1,.18,1.1.56-.1-.38-.27-.35-.45-.73a6.49,6.49,0,0,1-.17-2.24c0-1.1,0-1.44-.1-2.62,0-.82-.24-1.34-.24-1.75a1.75,1.75,0,0,1,.1-.52S48.25,93.92,47.81,93.92Zm0-2v-.31c0-.69,0-1.86.1-2.51,0-.11,0-.28,0-.49,0-1-.24-2.86-.31-4a9.23,9.23,0,0,1,0-1l.11-1.38c0-.17-.69,0-.69,0l-.1,1.38c0,.31,0,.59,0,1,.07,1.1.31,2.93.31,4,0,.21,0,.38,0,.49-.07.65-.11,1.82-.11,2.92C47.15,92.13,47.81,91.89,47.77,91.89Zm5.1,4.17c.21.79.69,2,.83,2.55a16.16,16.16,0,0,0,.65,2.45c.14.51,1.24,1.17,2,1.34a3,3,0,0,0,.75.07,1.93,1.93,0,0,0,.56,0s-.25-.38-.52-.82c-.28,0-.76,0-1,0a1.1,1.1,0,0,1-.72-.14c-.14-.07-.14-.38.07-.51a2.44,2.44,0,0,1,1.24,0c-.14-.41-.14-.48-.17-.55a5.66,5.66,0,0,0-.62,0c-.14,0-.69.07-.9.07s-.21-.35-.17-.45.45-.24.93-.21a2.9,2.9,0,0,0,.59,0,3.67,3.67,0,0,0-.14-.52c-.38,0-1.1,0-1.38,0s-.41-.35-.41-.45.37-.17.65-.24l1,0-.13-.69a5,5,0,0,1-.9.1,3.51,3.51,0,0,0-.86,0c-.14.07-.14-.41-.17-.59s.27-.17.48-.27a6.9,6.9,0,0,1,1.28,0c-.07-.2-.18-.41-.25-.65-.27,0-1.1,0-1.24,0a3.51,3.51,0,0,1-.65,0c-.07,0-.11-.41,0-.58s.52-.14.9-.07a2.3,2.3,0,0,0,.79-.07A2.31,2.31,0,0,0,55,95c-.31,0-1,.07-1.24.1a1.11,1.11,0,0,1-.66,0c-.17-.11.14-.59.28-.62l.86-.07L53.77,94c-.28,0-.55.07-.69.07s-.52.07-.66,0,0-.31.11-.48a4.45,4.45,0,0,0-.52-.07c-.1,0-.17,0-.17.1a.15.15,0,0,0,0,.11C52,94.13,52.63,95.23,52.87,96.06Zm.07-11.89a14.7,14.7,0,0,1,.34,2.9,22.81,22.81,0,0,1-.24,3c0,.25-.51,1.35-.48,1.35S53.94,91,54,90.93s-.27-.07-.31-.11a.46.46,0,0,1,.28-.69,2.28,2.28,0,0,1,.69-.07c.17-.17.13-.27.27-.48h-.55c-.31,0-.34-.27-.45-.41s0-.28.35-.38l1.13-.1.21-.62-1.24,0c-.21,0-.21-.31-.21-.45s.35-.17.56-.17l1.06-.1.07-.79-1,.1a.63.63,0,0,1-.55-.21c-.07-.14.17-.45.31-.58s.82,0,1.17-.11a3.7,3.7,0,0,0-.14-.55,1.46,1.46,0,0,1-.76,0c-.17-.11-.62.1-.72.07s-.1-.42,0-.62.24-.25.62-.14a4,4,0,0,0,.65,0c-.07-.17-.1-.34-.17-.48l-1,.1a.61.61,0,0,1-.55-.2c-.07-.14.17-.45.31-.59s.37,0,.62,0c-.14-.35-.21-.38-.21-.38l-.66.06a.63.63,0,0,1-.55-.2c-.07-.07,0-.28.14-.42a1.19,1.19,0,0,0-.52-.2c-.07,0-.55-.1-.55,0A9,9,0,0,0,52.94,84.17Zm6.24,17.26a3.69,3.69,0,0,1-1-2,16.56,16.56,0,0,0-.73-2.76,6.7,6.7,0,0,0-.55-1.62c-.31-.37-.24-1.13-.83-1.34s-.55-.72-1.27-.93a6.14,6.14,0,0,1-1.24-.58A8.29,8.29,0,0,0,55,91.58a5.11,5.11,0,0,0,1.79-1.69,10.35,10.35,0,0,0,.86-3.06c-.07-.8,0-2.62-.41-3.21a5.69,5.69,0,0,0-1.8-2,10.79,10.79,0,0,0-2.58-.65,17,17,0,0,1,3.27.65,5.69,5.69,0,0,1,1.8,2c.37.59.34,2.41.41,3.21a10.35,10.35,0,0,1-.86,3.06,5.11,5.11,0,0,1-1.79,1.69,5.8,5.8,0,0,1-1.28.62,4.11,4.11,0,0,0,1.1.55c1.17.35,1.59,1.24,2.07,2.34a14.42,14.42,0,0,1,.55,1.62,16.56,16.56,0,0,1,.73,2.76,4.05,4.05,0,0,0,.58,1.55,2,2,0,0,0,.83.73C59.62,101.64,59.59,101.75,59.18,101.43Z"/><path class="cls-2" d="M65,95.75c.11-.34.25-.55.83-.76s.76-1.38,1.14-2a17,17,0,0,0,1-2.79c.31-.69.79-1.93,1-2.58a18.09,18.09,0,0,1,.69-2.69,4.9,4.9,0,0,0,.72-2.07c0-.68.9-2,1.41-2a1,1,0,0,1,1.07.66,17.84,17.84,0,0,1,.76,1.79,14.14,14.14,0,0,0,1.2,2.82c.38,1,1.38,3.17,1.66,4.1s1.1,1.86,1.27,2.69.93,1.72,1.38,3.1a13.32,13.32,0,0,0,.62,1.59c.31.65.35,1.17.69,1.89s.69,1.34.83,1.72a1.15,1.15,0,0,0,.89.73c.42.1,1.66,0,1.76.34a1.52,1.52,0,0,1,.1.55,2,2,0,0,1-.07.52c0,.17-.62.24-.86.24s-.62-.14-1-.14-.55.18-.86.21a10,10,0,0,1-1.17.1c-.52,0-1-.24-1.62-.24s-1.14.11-1.76.14-.86-.14-1.3-.14c-.11,0-.21-.24-.21-.55,0-.48,0-.52.55-.52.31,0,.93-.2,1-.55a.92.92,0,0,0,.07-.38,1.36,1.36,0,0,0-.34-.82c-.45-.42-.59-1.38-.83-1.8a14,14,0,0,0-1.1-2.1,9,9,0,0,0-2.14-.13,17.63,17.63,0,0,0-2.58.2,8.48,8.48,0,0,1-1.1.17c-.83,0-1,.83-1,1.69,0,.45.1,1,.1,1.28a3.25,3.25,0,0,0,.8,2.27,1.12,1.12,0,0,1,.58,1c0,.31-.24.38-.55.38s-.52,0-.83,0c-.62,0-2.92.2-4.16.2s-1.9-.14-1.9-.45c0-.65.83-1.1,1.21-1.82a20.13,20.13,0,0,0,1.24-1.9A17.1,17.1,0,0,0,65.52,97C65.38,96.58,65,96.27,65,95.75Zm2.18,5.1a3.13,3.13,0,0,0-1,.07,3.43,3.43,0,0,1-.62-.07c-.07,0-.1-.41,0-.59s.52-.14.9-.07a1.14,1.14,0,0,0,.52,0L67,99.61l-.72,0c-.17,0-.1-.58.1-.79a4.27,4.27,0,0,1,.52,0c-.07-.52-.17-.93-.27-.93A30.27,30.27,0,0,0,65,100.5c-.45.76-1.24,1.83-1.24,2s.82.31,1.3.31h1.69c.38,0,1,0,1-.2a3.91,3.91,0,0,1-.14-.49,1.52,1.52,0,0,1-.45.07c-.14,0-1.2.07-1.48.11a1.23,1.23,0,0,1-.72-.14c-.14-.07-.14-.38.06-.52a4.33,4.33,0,0,1,1.76,0c.31,0,.42-.18.59-.14A2.41,2.41,0,0,1,67.21,100.85Zm2.34-11.47c-.11.58-.66,1.89-.86,2.54a9.07,9.07,0,0,0-.55,1.73,7.5,7.5,0,0,0-.52,1.2c0,.07,0,.11.14.11a3.92,3.92,0,0,1,1.06-.11,4.35,4.35,0,0,1,1.35.18,3.26,3.26,0,0,0,.83.06c.62,0,1.27,0,1.61-.06a6.11,6.11,0,0,0,1.56-.28c0-.1-.56-.1-.73-.79s-.72-1.35-1-2-.82-1.27-1-2.13-.55-1.55-.69-2.14c-.14-.34-.24-.55-.34-.55s-.07.07-.11.17C70.24,87.62,69.72,88.72,69.55,89.38Zm1,0c-.1.24-.1.72-.2,1.06a24,24,0,0,1-1.25,3.38,4.4,4.4,0,0,0-.2.72s-.79,0-.66-.2.31-1.14.42-1.45a5.62,5.62,0,0,1,.51-1.27,6.94,6.94,0,0,0,.56-1.69,9,9,0,0,1,.58-1.73S70.72,89.1,70.58,89.38ZM69.17,98c0,.31-.17.59-.21,1.07s.17,1,.17,1.48.52.93.76,1.28a10.72,10.72,0,0,1,.62.93c.24.41.28.41.28.69s-.52.31-.73.17-.13-.35-.34-.72-.55-.73-.72-1a4,4,0,0,1-.49-1.59c-.06-.69-.24-1.17-.24-1.69a2.68,2.68,0,0,1,.24-1.13C68.62,97.3,69.27,97.27,69.17,98Zm3.07-15a2,2,0,0,1-.21-.86,5.71,5.71,0,0,0-1.24,2.45,5.47,5.47,0,0,0,0,1.68,11.42,11.42,0,0,1,1,2.35c.48,1.07.72,1.76,1.13,2.48.25.86.52.76,1,1.82A8.22,8.22,0,0,1,75,95.44a21.79,21.79,0,0,0,1.1,2.62,6.76,6.76,0,0,0,1.07,2.34c.31.45.34,1.07.93,1.62.41.48,1.2.1,1.79.14.24,0,.93.1,1-.14s-.35-.21-.52-.48c-.17,0-.34.07-.41.07a6,6,0,0,0-.66,0,1.1,1.1,0,0,1-.72-.14c-.14-.07-.14-.38.07-.51s.48-.11.79,0a3.23,3.23,0,0,0,.62,0l-.31-.59c-.38,0-.55,0-.62,0s-.69.07-.89.07-.21-.35-.18-.45.45-.24.93-.21c.24,0,.24,0,.45-.07a3.48,3.48,0,0,1-.24-.62,1.45,1.45,0,0,1-.62.17c-.38,0-.79,0-1.07,0s-.41-.35-.41-.45.38-.17.65-.24a1.6,1.6,0,0,1,.69,0,.87.87,0,0,0,.59-.07,6.36,6.36,0,0,0-.17-.72,9,9,0,0,1-1.14.17,3.5,3.5,0,0,0-.86,0c-.14.07-.14-.41-.18-.59s.28-.17.49-.27a2.58,2.58,0,0,1,.79,0,3,3,0,0,0,.55,0l-.27-.66a4.11,4.11,0,0,1-.62,0,7.4,7.4,0,0,0-.8,0,3.51,3.51,0,0,1-.65,0c-.07,0-.11-.41,0-.58s.52-.14.9-.07a1.59,1.59,0,0,0,.86-.14l-.34-.79c-.32,0-.42.07-.59.07a5.47,5.47,0,0,0-.79.1,1.11,1.11,0,0,1-.66,0c-.17-.11.14-.59.28-.62a4.5,4.5,0,0,1,1-.11.88.88,0,0,0,.48-.1L77,93.51a2.91,2.91,0,0,0-.48.1,1.18,1.18,0,0,1-.62,0,6.7,6.7,0,0,0-.72.07c-.24,0-.24-.34-.28-.48s.28-.24.49-.28a7.22,7.22,0,0,1,.82,0,1,1,0,0,0,.48-.17,1.52,1.52,0,0,0-.34-.55c-.31,0-.65.1-.76.1a2.56,2.56,0,0,1-.76.07,1,1,0,0,1-.65-.24c-.14-.18.07-.42.21-.45a4.57,4.57,0,0,1,.75-.14,5.72,5.72,0,0,0,.66-.07,2.07,2.07,0,0,1-.28-.58,4.3,4.3,0,0,0-.62.07,6.08,6.08,0,0,1-1.1.1c-.14,0-.17-.14-.34-.31s-.14-.31.24-.45.76-.07,1.07-.17a1.5,1.5,0,0,1,.37-.07l-.37-.65c-.25,0-.28.1-.45.1s-.76.1-1.07.1-.35-.27-.45-.41,0-.28.35-.38.75-.1,1.1-.14h.38a3.84,3.84,0,0,0-.28-.58h-1l-1,0c-.2,0-.2-.31-.2-.45s.34-.17.55-.17.58-.14.76-.14a2.87,2.87,0,0,0,.44-.07s0-.06-.31-.72h-.38l-1,.14a.64.64,0,0,1-.56-.21c-.06-.14.18-.45.31-.58s.52,0,.87-.11c.17,0,.24,0,.51.11a6.23,6.23,0,0,1-.24-.8c-.38.07-.69.14-.79.07s-.62.11-.72.07-.11-.41,0-.62.24-.24.62-.14a1.13,1.13,0,0,0,.68,0,6.16,6.16,0,0,1-.34-.72,2.29,2.29,0,0,1-.48,0c-.24,0-.24-.45-.17-.55S72,83,72.24,83Zm.86-2a2.27,2.27,0,0,1,.69.31,2.18,2.18,0,0,1,.86,1.34A8.29,8.29,0,0,0,75,83.76a3.44,3.44,0,0,0,.44,1c.18.27.42,1.1.59,1.41a8.58,8.58,0,0,0,.55,1.1c.24.45.24.76.41,1.07a7.21,7.21,0,0,0,.49,1.1,11.12,11.12,0,0,0,.58,1.28c.38.65.62,1.34,1,2,.14.35.31.93.48,1.42s.52,1,.79,1.65.31.69.48,1,.18.62.31,1a5.37,5.37,0,0,1,.35.86,2.53,2.53,0,0,0,.31,1,9.13,9.13,0,0,1,.79,1.24,10.07,10.07,0,0,0,.69.87,4.27,4.27,0,0,1-1.17-.28,7.63,7.63,0,0,1-.69-.83c-.24-.34-.28-.86-.52-1.2a3.82,3.82,0,0,1-.44-1.24,9,9,0,0,0-.8-2.07c-.27-.35-.48-1.21-.72-1.62A7.31,7.31,0,0,1,78.3,93c-.17-.38-.55-.93-.69-1.35s-.48-1-.65-1.41-.28-1.1-.45-1.34a5.14,5.14,0,0,1-.59-1.17,5.26,5.26,0,0,0-.48-1,2.46,2.46,0,0,1-.41-.86c-.11-.34-.42-1-.52-1.24S74,83.07,74,83.07Z"/><path class="cls-2" d="M99.5,92.86c.72.75,1.07,1.37,1.65,2s1.45,1.86,1.55,2c0,0,0-.34,0-.79,0-.24,0-.48,0-.83s-.13-1-.13-1.13c0-.52-.14-1.21-.17-2-.07-1.14-.42-2.34-.42-3.38,0-.58-.38-1-.38-1.55a10.93,10.93,0,0,0-.48-2.17c-.17-.62,0-1.76-.65-2.24s-1-.79-1-1.55c0-.31.38-.45.93-.45a3.61,3.61,0,0,1,.62,0c.35,0,1,.1,1.52.1a2.09,2.09,0,0,0,.48,0c.34-.07,1.24,0,2-.14a5.29,5.29,0,0,1,1-.14c.31,0,.55.1.55.38a3.19,3.19,0,0,1-.79,1.72,13.88,13.88,0,0,0-.89,1.9,20,20,0,0,0-.83,4.48c0,.86,0,2.51,0,3.2,0,.27-.17,1.65-.17,1.86.07,1,0,2.17.07,2.79a17,17,0,0,0,.14,2.34c0,.14,0,.28,0,.45,0,.48-.07,1-.07,1.45a7.31,7.31,0,0,1,.07,1.07,3.61,3.61,0,0,1-.14,1.27,1.27,1.27,0,0,1-1,.48,1.21,1.21,0,0,1-.38-.06c-.48-.25-1.14-2-1.72-2.31a8.64,8.64,0,0,1-1.69-1.83,35,35,0,0,0-2.41-2.89,17.28,17.28,0,0,1-1.69-1.8c-.65-.89-.86-1.48-1.41-2.17s-1.59-1.79-1.93-2.27-1.14-2.45-1.9-2.45a.36.36,0,0,0-.38.32,2.53,2.53,0,0,0,0,.48c0,.44.1,1.06.1,2s.07,1.51.07,2.13c0,.17.28,1.76.28,2.45s.38,1,.38,1.55a10.93,10.93,0,0,0,.48,2.17c.21.62.07,1.76.65,2.24s1,.79,1,1.55c0,.31-.38.48-.93.48a3.68,3.68,0,0,1-.62-.07c-.38,0-1.07-.1-1.55-.1a2.09,2.09,0,0,0-.48,0c-.34.07-1.24,0-2,.14a5.29,5.29,0,0,1-1,.14c-.31,0-.55-.1-.55-.38a3.19,3.19,0,0,1,.79-1.72,10.36,10.36,0,0,0,.89-1.9,20,20,0,0,0,.83-4.48c0-.82.28-2.82.28-3.86V91.2c-.07-.76-.18-2.31-.18-3.31a29,29,0,0,0-.37-3.72c0-.65-.62-1.48-1-1.51s-.55-.18-1.21-.24c-.48-.07-.51-.66-.51-1.35,0-.13.14-.17.38-.17s.45.07.82.07a2.27,2.27,0,0,0,.45,0,.73.73,0,0,1,.31,0c.31,0,.55.14.86.14A2,2,0,0,0,88.1,81a3.83,3.83,0,0,1,.58-.07,6.09,6.09,0,0,1,1.42.21s.06,0,.1,0c.55.17.69.76,1.17,1.52s1.24,1.58,1.86,2.55a25.12,25.12,0,0,0,2.14,2.51A26.11,26.11,0,0,1,97.12,90,24.63,24.63,0,0,0,99.5,92.86Zm-11.33,6.4s-1.24,2.9-1.42,3.28a5.13,5.13,0,0,0,1.73.24c.17,0,.27,0,.37,0l.31,0a11,11,0,0,1-1.68-.17c-.14-.07-.14-.38.07-.52A8.56,8.56,0,0,1,90,102a.83.83,0,0,0,.27,0l-.1-.41c-.45,0-1.38,0-1.59,0a1.1,1.1,0,0,1-.72-.14.18.18,0,0,1-.1-.17A.36.36,0,0,1,88,101,5.73,5.73,0,0,1,90,101l-.18-.58h-.1c-.14,0-1.1.07-1.31.07s-.21-.35-.17-.45.45-.24.93-.21a2.24,2.24,0,0,0,.52,0v0a3.35,3.35,0,0,0-.07-.45h-.52c-.31,0-.41-.35-.41-.45s.38-.17.65-.24h.14l-.1-.35h-.14c-.31,0-.42-.17-.42-.27a.58.58,0,0,1,.35-.38c-.14-.38-.28-.69-.35-.69S88.48,99.09,88.17,99.26Zm7.47-9.85c-.24,0-.51.07-.65.07s-1.38.1-1.69.1-.35-.27-.45-.41,0-.28.35-.38,1.37-.1,1.72-.14h0l-.51-.58H93l-1,0c-.21,0-.21-.31-.21-.45s.35-.17.55-.17,1.21-.14,1.49-.14l-.62-.79h-.69l-1.35.14a.63.63,0,0,1-.55-.21c-.07-.14.17-.45.31-.58s.86,0,1.21-.11a1.2,1.2,0,0,1,.48,0c-.21-.28-.45-.48-.65-.73a4.86,4.86,0,0,1-1.35.07c-.17-.1-.69.11-.79.07s-.1-.41,0-.62.31-.24.69-.14a3.66,3.66,0,0,0,.93,0l-.21-.35a4.34,4.34,0,0,0-.34-.44,7.24,7.24,0,0,1-1.14,0c-.24,0-.24-.45-.17-.55a.74.74,0,0,1,.58-.21l-1.55-.72c0,.65.07,3.24.55,3.75a12.57,12.57,0,0,1,2.14,2.11,25.45,25.45,0,0,0,1.93,2.48,39.14,39.14,0,0,0,2.83,3.89,30,30,0,0,0,2.34,2.93c.79.58,2,2.38,2.58,2.89s1.48,2,1.72,2c0,0,0-.14,0-.31v-.38a.49.49,0,0,1-.28-.14c-.13-.07-.13-.38.07-.51l.21-.11v-.51c-.14,0-.69.07-.9.07s-.2-.35-.17-.45.45-.24,1-.21c0-.21,0-.38,0-.58a3.66,3.66,0,0,1-.48.06c-.38,0-1,0-1.28,0s-.41-.35-.41-.45.38-.17.65-.24a6.87,6.87,0,0,1,1.42,0c-.07-.27-.28-.51-.35-.79-.51.07-1.34.14-1.55.14a3.51,3.51,0,0,0-.86,0c-.14.07-.14-.41-.17-.59s.27-.17.48-.27a9.92,9.92,0,0,1,1.55,0l-.52-.69a4,4,0,0,1-.62,0c-.13,0-1.17,0-1.34,0a3.51,3.51,0,0,1-.65,0c-.07,0-.11-.41,0-.58s.52-.14.9-.07a3.81,3.81,0,0,0,1.17-.11l-.69-.79a4.33,4.33,0,0,1-.62,0,10.56,10.56,0,0,0-1.07.1c-.21,0-.52.07-.65,0s.13-.59.27-.62a13.25,13.25,0,0,1,1.55-.11l-.55-.72a7,7,0,0,1-1.52,0,6.7,6.7,0,0,0-.72.07c-.24,0-.24-.34-.27-.48s.27-.24.48-.28,1.2,0,1.51,0L98,92.2a4.84,4.84,0,0,1-.48.07,9.59,9.59,0,0,1-1.45.07,1,1,0,0,1-.65-.24c-.14-.18.07-.42.2-.45a4.92,4.92,0,0,1,.76-.14c.1,0,.69,0,1.07-.07L97,90.86a7.58,7.58,0,0,0-.8.07,13.39,13.39,0,0,1-1.65.1c-.14,0-.17-.14-.35-.31s-.13-.31.25-.45,1.31-.07,1.62-.17a2.35,2.35,0,0,1,.24,0A3,3,0,0,0,95.64,89.41ZM90.47,89c0,.44.11,1.06.11,2s.07,1.51.07,2.13c0,.17.27,1.76.27,2.45s.38,1,.38,1.55a10.93,10.93,0,0,0,.48,2.17c.21.62.07,1.76.66,2.24s.31.79.31,1.55c0-.76-.52-1.1-1-1.55s-.45-1.62-.66-2.24a10.93,10.93,0,0,1-.48-2.17c0-.59-.38-1-.38-1.55S90,93.3,90,93.13c0-.62-.07-1.14-.07-2.13s-.11-1.56-.11-2c0-.18-.06-.42,0-.48C90.1,88.34,90.47,89.07,90.47,89Zm12.72-2.31a.58.58,0,0,1-.49-.21c-.06-.14.18-.45.32-.58a.71.71,0,0,1,.31,0,2.15,2.15,0,0,1,.24-.62c-.28,0-.76.14-.83.11s-.1-.42,0-.62.24-.25.62-.14a1.84,1.84,0,0,0,.59,0,5.08,5.08,0,0,0,.17-.51l-1.14.1a.63.63,0,0,1-.55-.21c-.07-.14.17-.45.31-.58s.79,0,1.14-.11a1.63,1.63,0,0,1,.72,0,1,1,0,0,1,.1-.28,9.14,9.14,0,0,1-1.75-.14c-.18-.1-.62.07-.73,0s-.1-.35,0-.48.24-.21.62-.14a11.51,11.51,0,0,0,2.14-.07c0-.07.17-.28.17-.31a9.69,9.69,0,0,0-1.82-.07c-.21,0-.31,0-.38,0-.62.07-1.73.32-1.73.32a3.83,3.83,0,0,1,.35,1.06,15.64,15.64,0,0,1,.55,1.55c0,.56.55,2.69.79,2.69C103,87.48,103.08,87.14,103.19,86.69Zm1,17a4.68,4.68,0,0,0,.31-1.51c0-.42.07-.9.07-1.14,0-.45-.07-.9-.07-1.38,0-.83-.18-1.69-.18-2.79,0-.62,0-1.76-.06-2.79,0-.21.17-1.59.17-1.86,0-.69,0-2.34,0-3.2a20.56,20.56,0,0,1,.83-4.48,12.82,12.82,0,0,1,.9-1.9,3.51,3.51,0,0,0,.79-1.82c.52.31.41,1.17-.1,1.82a12.82,12.82,0,0,0-.9,1.9,20.56,20.56,0,0,0-.83,4.48c0,.86-.1,1.17-.1,1.86,0,.27.07,2.65.07,2.86.07,1-.07,2.51,0,3.13,0,.93.18,1.83.18,2.79,0,.48-.07,1-.07,1.45a9.06,9.06,0,0,1,.07,1.07,7.09,7.09,0,0,1-.11,1.1C105.12,103.57,104.32,103.81,104.19,103.74Z"/><path class="cls-2" d="M122.93,101.75a4.59,4.59,0,0,0,1.93-1.63c.3-.68.68-.55.82-1.24.07-.37.24-.58.48-.58a.77.77,0,0,1,.59.38c.34.48.65.65.65,1a1.71,1.71,0,0,1-.06.35,6.33,6.33,0,0,1-1.42,1.82c-.34.35-1.82,1-2.34,1.41a7.64,7.64,0,0,1-3,.69c-.72,0-1.65-.17-2.51-.17a13.82,13.82,0,0,1-2.31-.55,8.12,8.12,0,0,1-2.38-.89,6.4,6.4,0,0,1-3-2.62,12.52,12.52,0,0,1-1.86-3.66,16.91,16.91,0,0,1-.28-3.61c0-.31,0-.59,0-.86a5.74,5.74,0,0,1,.38-2.07c.41-1.24.79-1.55,1-2.59A4.55,4.55,0,0,1,111,84.52a21.46,21.46,0,0,1,2.79-2.31,10.83,10.83,0,0,1,3.42-1.31,17.59,17.59,0,0,1,2.89-.28,4.55,4.55,0,0,1,1.48.21,9.54,9.54,0,0,0,2,.17,6.36,6.36,0,0,1,1.55.45,12.13,12.13,0,0,1,1.68-.14c.31,0,.38.38.38,1.14,0,.52-.1,2.58-.1,3a17.28,17.28,0,0,1-.17,2.9c-.11.45-.07,1-.52,1s-1-1.2-1.34-1.76a8.12,8.12,0,0,0-1.21-2.1c-.41-.2-1-1.31-1.45-1.82a3.6,3.6,0,0,0-2.24-1.14c-.13,0-.69-.07-1.31-.07a3.26,3.26,0,0,0-1.89.41,3.06,3.06,0,0,0-1,1.14c-.52.79-1.27,2.34-1.55,2.62a8.14,8.14,0,0,0-.65,2.58,36.5,36.5,0,0,0-.21,4.24,20.88,20.88,0,0,0,.41,4.1,6.15,6.15,0,0,0,1.38,2.41,5.5,5.5,0,0,0,2.31,1.73,6.82,6.82,0,0,0,2.41.65A5.6,5.6,0,0,0,122.93,101.75Zm-11.1-16.92c-.34.14-.62.82-1,1.51a16.66,16.66,0,0,0-.83,2.28,8.5,8.5,0,0,0-.75,2.41c0,.45-.11,1-.11,1.55a8.06,8.06,0,0,0,.28,2.07c.45,1.51.41,2.27,1,3,1.69,2.14,2.79,3.34,3.27,3.34a7.51,7.51,0,0,0,1.14.24c0-.14-.48-.76-.52-1.07H114c-.14,0-.69.07-.9.07s-.21-.34-.17-.44.45-.25.93-.21h.27l-.48-.62a5.06,5.06,0,0,1-1.31.14c-.31,0-.41-.35-.41-.45s.89-.17,1.17-.24.17-.07.45,0l-.42-.73c-.37,0-.86.11-1,.11a3.51,3.51,0,0,0-.86,0c-.14.07-.14-.42-.17-.59s.27-.17.48-.27a5,5,0,0,1,1.07,0h.17a2.21,2.21,0,0,1-.1-.69v0a2.93,2.93,0,0,1-.45.07c-.14,0-.9,0-1.07,0a4.66,4.66,0,0,1-.65,0c-.07,0-.11-.41,0-.59s.52-.13.9-.06a3,3,0,0,0,1.2-.18l-.07-.72c-.27,0-.82,0-1,0a4.35,4.35,0,0,0-.79.1c-.21,0-.52.07-.66,0s.14-.58.28-.62a10.1,10.1,0,0,1,1.24-.1,3.52,3.52,0,0,0,.83-.14c0-.17,0-.38,0-.55a5.49,5.49,0,0,0-.72,0,2.47,2.47,0,0,1-.9,0,6.47,6.47,0,0,0-.72.07c-.24,0-.24-.34-.28-.48s.28-.24.48-.28.83,0,1.11,0a4.9,4.9,0,0,0,1-.24,2.91,2.91,0,0,1,0-.49c-.38,0-.79.11-.89.11a4.86,4.86,0,0,1-1,.07.92.92,0,0,1-.65-.25c-.14-.17.07-.41.2-.44a4,4,0,0,1,.76-.14c.17,0,1.48-.14,1.72-.17l.11-.49c-.31,0-.76,0-.9.07a6.12,6.12,0,0,1-1.1.11c-.14,0-.17-.14-.35-.31s-.13-.31.25-.45.75-.07,1.06-.17a11.46,11.46,0,0,1,1.21-.14v0a2.68,2.68,0,0,1,.07-.56,4.13,4.13,0,0,1-.69.11c-.28,0-.76.1-1.07.1a.5.5,0,0,1-.52-.45c0-.17,0-.34.35-.44s.83,0,1.17,0,.66,0,.86,0l.14-.63h-.69l-1,0c-.21,0-.34-.24-.34-.38a.63.63,0,0,1,.48-.45l1.24.07a4.2,4.2,0,0,0,.52-.07l.13-.38.11-.34h-.11l-1.34.14a.66.66,0,0,1-.55-.21c-.07-.14.17-.45.31-.59s.52,0,.86-.1a4.84,4.84,0,0,1,1.14.1,4.19,4.19,0,0,1,.38-.69,1.7,1.7,0,0,1-.55.07c-.18-.1-.52,0-.62,0a.36.36,0,0,1-.21-.45.82.82,0,0,1,.89-.38,4,4,0,0,0,.9,0,6.47,6.47,0,0,0,.62-.86c0-.11-.62,0-.69,0a4.3,4.3,0,0,0-1.62.58A4.59,4.59,0,0,1,111.83,84.83ZM118,82.69l-.69.76-.55.9-.65,1.17-.66,1.31-.34,1.41a35.7,35.7,0,0,0-.66,4.2s.11,1.73.11,1.76.21,2.41.21,2.41L115.1,98l1.07,1.62.69.89.86.52s.31.66.24.66a5.56,5.56,0,0,1-2.31-1.73,6.13,6.13,0,0,1-1.37-2.41,20,20,0,0,1-.42-4.1,36.5,36.5,0,0,1,.21-4.24,12,12,0,0,1,.76-2.61A27.6,27.6,0,0,1,116.28,84a3.2,3.2,0,0,1,1-1.14A1.55,1.55,0,0,1,118,82.69Zm4.93,21.12,1.55-.07,2.1-1,1.28-1.75.17-.52a3.61,3.61,0,0,1-.34-.52l-.14.42a5.67,5.67,0,0,1-1.35,1.72,21.17,21.17,0,0,1-2.34,1.41Zm3.31-20.46c0-.25,0-.42-.07-.42a9,9,0,0,1-1.1-.07,3.38,3.38,0,0,0-1.38-.2c-.14,0-.24.07-.24.2a1.4,1.4,0,0,0,.34.69A14.73,14.73,0,0,1,125,85.21c.27.34,1,1.38,1.31,1.38.07,0,.1-.21.1-.49a.82.82,0,0,1-.38,0c-.14,0-.21-.35-.14-.52s.31-.17.49-.14V85.1h-.62c-.24,0-.24-.37-.18-.48a1,1,0,0,1,.76-.14v-.41H125c-.24,0-.28-.48-.21-.59S125.82,83.31,126.2,83.35Zm1,6.2c.79,0,.69-2.59.69-2.59s.1-1.06.1-1.1a17.31,17.31,0,0,1,0-2.76,3.79,3.79,0,0,0-.17-1.68,1.66,1.66,0,0,0-.69-.07c.24.1.38.38.38.86,0,.79-.11,2.86-.11,3.79,0,.65-.1,1.58-.17,2.34,0,.35-.34,1.14-.72,1.17Z"/><path class="cls-2" d="M131.1,90.38c0-.49-.2-1.18-.2-1.8s.13-1.51.13-2.31c0-.37-.1-.72-.1-1.13,0-.66.14-1.35.14-2.1,0-.24-.76-.45-1.07-.52s-.28-.34-.28-.59a1.09,1.09,0,0,1,.18-.65.37.37,0,0,1,.38-.17c.51,0,.65,0,1.1,0s.72.11,1.51.11c.56,0,1.21-.07,1.83-.07.38,0,1,.1,1.34.1.8,0,.93.17.93.55a.85.85,0,0,1-.58.83,1.3,1.3,0,0,0-.76,1.14,15.92,15.92,0,0,0-.17,2.58c0,2,.17,2.17.17,3.13,0,.52,0,1,0,1.49a1.54,1.54,0,0,0,.13.79c.07.14.18.17.35.17a4.14,4.14,0,0,0,1.17-.21c.38,0,.76-.13,1.27-.13a13.17,13.17,0,0,1,1.73.17,2.69,2.69,0,0,0,.51,0c.76,0,1.52-.13,2.42-.2.48,0,.89.17,1.34.17.21-.1.17-.59.24-1.31a3,3,0,0,0,0-.52c0-.55-.1-1.1-.1-1.86s-.1-.93-.1-1.41a4.28,4.28,0,0,1,.1-.86,9.3,9.3,0,0,0,0-1.07c0-.72,0-1.45,0-1.83s-1-.31-1-1.34c0-.65.69-.45,1.48-.58a4.54,4.54,0,0,1,1-.14h3.11c.75,0,1.17.07,1.3.34a.6.6,0,0,1,.18.38.84.84,0,0,1-.24.45c-.28.41-.76.17-.9.62a2.58,2.58,0,0,0-.17,1.14c0,.34,0,.72,0,1.06,0,.73.07,1.69.07,2.45s0,1.07,0,1.48a12.89,12.89,0,0,0,.1,1.48v1.14c0,.55-.07.93-.07,2.17a21.21,21.21,0,0,0,.21,3.58c0,.31.07.73.07,1.17,0,1.45-.18,3.28-.18,3.59s.66.65,1,.65.62.24.62.76c0,.35-.17.41-.45.41s-.34,0-.52,0c-.44,0-1.41.1-2.24.17s-2,0-2.68,0c-.31,0-1,0-1.42,0s-.55-.17-.55-.38.07-.34.07-.48c0-.38.79-.65,1-1a4.31,4.31,0,0,0,.24-2c0-1-.17-3.28-.17-4,0-.52.07-1.49.07-2.07,0-.28,0-.48-.07-.52a4.38,4.38,0,0,0-1.59-.45,2.82,2.82,0,0,0-.44.07,2.27,2.27,0,0,1-.83.11c-.45,0-.83-.07-1.21-.07-.13,0-.24,0-.34,0-.83.11-1.59,0-2.38.14s-1.38,0-1.76.31c-.68.55-.17,4.1-.17,3.86,0,1.62.17,2,.17,2.82a14.19,14.19,0,0,1-.06,1.8c0,.27.34.2.75.41a.86.86,0,0,1,.45.86c0,.21-.55.55-1.07.76a.46.46,0,0,1-.2,0c-.31,0-.55-.17-1-.17-.11,0-.17.07-.31.07a14.19,14.19,0,0,1-1.79.1c-.35,0-.66,0-1.76,0-.69,0-1.34,0-1.34-.45,0-1.52,1.13-.9,1.13-1.41,0-1.1.21-1.55.21-2.14s-.14-.93-.14-1.62c0-1.62,0-3.1,0-4.13C130.9,93,131.1,90.86,131.1,90.38ZM133.41,102a1.91,1.91,0,0,1,1-.1v-.24a3.87,3.87,0,0,1-1.24-.18c-.14-.07-.14-.38.06-.51a3.21,3.21,0,0,1,1.24-.11v-.48c-.31,0-1,0-1.17,0s-.2-.35-.17-.45a4.58,4.58,0,0,1,1.38-.21V99.3c-1.38,0-1.48-.35-1.48-.45s.07-.14.34-.21l1.14-.06c0-.18,0-.38,0-.59a9.86,9.86,0,0,0-1.44,0c-.14.07-.14-.41-.18-.59s.28-.17.49-.27a9.72,9.72,0,0,1,1.2,0v-.65c-.38,0-1,0-1.1,0a3.5,3.5,0,0,1-.65,0c-.07,0-.11-.41,0-.58.24-.38,1.27-.07,1.72,0,0-.38,0-.65,0-.89-1.14.13-1.45.17-1.59.07s.14-.59.28-.62a5.82,5.82,0,0,0,1.27-.28v-.48a3.21,3.21,0,0,1-.72,0,6.47,6.47,0,0,0-.72.07c-.24,0-.24-.34-.28-.48s.28-.24.48-.28.83,0,1.21,0c0-.17,0-.38,0-.55-.34,0-1,0-1.1,0a1,1,0,0,1-.65-.24c-.14-.18.07-.42.2-.45a4.92,4.92,0,0,1,.76-.14c.11,0,.45,0,.76,0V91c-.41,0-1.07,0-1.17,0s-.17-.14-.35-.31-.13-.31.25-.45a12,12,0,0,1,1.24-.1v-.66c-.38,0-.9.07-1.11.07s-.34-.27-.44-.41,0-.28.34-.38l1.24-.1v-.62l-1.38,0c-.2,0-.2-.31-.2-.45s.34-.17.55-.17l1-.1a7.06,7.06,0,0,1,0-.76l-1.24.07a.63.63,0,0,1-.55-.21c-.07-.14.18-.45.31-.58s1.17,0,1.52-.11a2.63,2.63,0,0,1,.07-.58,9.16,9.16,0,0,1-1.72,0c-.14,0-.11-.41,0-.62s.24-.24.62-.14a2.29,2.29,0,0,0,1.13-.13,2.93,2.93,0,0,1,0-.59c-.52,0-1.52,0-1.66,0s-.24-.45-.17-.55c.24-.28,1.55-.17,1.83-.14a.61.61,0,0,0-.18-.27,3.57,3.57,0,0,0-1.41-.28c-.34,0-.69.07-.79.28a5,5,0,0,0-.21,1.68c0,.55,0,1.11.07,1.59s0,1.2,0,1.76c0,.41-.07.86-.07,1.31S132,90,132,90.55a1.46,1.46,0,0,1,0,.41,3.84,3.84,0,0,0,0,.55c0,.28.14,1.38.14,2.34V96.4a14.51,14.51,0,0,1,.13,1.8c0,.89,0,1.34,0,1.75s0,1,.07,1.48c0,.07,0,.11,0,.18a1.25,1.25,0,0,0,1.07.93C133.2,102.47,133.2,102.16,133.41,102Zm3.34-10.92c-.2-.1-.2-.79-.17-1.1s0-3.07-.07-3.35,0-2.48,0-2.48a2.21,2.21,0,0,1,.2-1.37c-.31,0-.62.34-.69.93a22.47,22.47,0,0,0-.17,2.58c0,2,.17,2.17.17,3.13,0,.52,0,1,0,1.42s0,.55.1.69.21.1.52,0S136.89,91.17,136.75,91.1Zm.28,9.65s-.24-3.35-.24-3.35-.11-1.55-.11-2c0-1.14.21-1.42.25-1.45.31-.48-.28-.52-.59-.31s-.24.31-.24.62c0,2,.07,2.34.07,3.1,0,1.62.17,2,.17,2.82a7.93,7.93,0,0,1-.07,1.49c0,.27.28.07.66.41C137.06,102.19,137.17,101.3,137,100.75Zm11.58-18c-.11-.25-.38-.42-.49-.59a.59.59,0,0,0-.48-.17c-.48,0-1.62.38-1.69.62a4.83,4.83,0,0,0-.1,1.14c0,.31,0,.58,0,1s.07,1,.07,1.62a11.49,11.49,0,0,1-.14,2,2.74,2.74,0,0,0,0,.51c0,1-.07,2-.07,2.73,0,.89.17,2.3.17,3.34s.31,2.38.31,3.31c0,1.17-.1,2.34-.1,2.79,0,.24,0,.51,0,.76s0,.62.27.75a2.91,2.91,0,0,0,1,.17,1.56,1.56,0,0,0,1-.3,3.84,3.84,0,0,1-1.3-.18c-.14-.07-.14-.38.06-.51a3.55,3.55,0,0,1,1.35-.11v-.24a4.58,4.58,0,0,1-1.35-.17c-.13-.07-.13-.38.07-.52a4.32,4.32,0,0,1,1.28-.1c0-.14,0-.31,0-.48l-1.24,0c-.17,0-.2-.34-.17-.45a5.86,5.86,0,0,1,1.41-.2V99h-1.1c-.31,0-.41-.34-.41-.44a8,8,0,0,1,1.55-.25l-.14-.62a9.72,9.72,0,0,0-1.34,0c-.14.07-.14-.41-.18-.58s.28-.17.48-.28a8.82,8.82,0,0,1,1,0,5.09,5.09,0,0,1,0-.66c-.51,0-1,0-1.62,0-.07,0-.1-.42,0-.59s1.17-.13,1.55-.07a.1.1,0,0,0,.07,0c0-.31,0-.59,0-.9-.41,0-1,.07-1.17.11s-.52.07-.65,0,.13-.58.27-.62,1-.07,1.55-.1c0-.24,0-.45,0-.66a.87.87,0,0,1-.31,0c-.18,0-1.17.07-1.38.07s-.24-.35-.28-.48.28-.25.49-.28a13.85,13.85,0,0,1,1.41,0V92h-.93a1,1,0,0,1-.66-.24c-.13-.17.07-.41.21-.45a4.78,4.78,0,0,1,.76-.13,4.56,4.56,0,0,0,.62,0v-.48c-.48,0-1.34,0-1.45,0s-.17-.13-.34-.3-.14-.32.24-.45,1.2-.07,1.58-.14l.11-.62c-.42,0-1.31.07-1.55.07s-.35-.28-.45-.42,0-.27.34-.37,1.35-.11,1.73-.14c0-.17,0-.38,0-.59h-.1l-1.66,0c-.2,0-.2-.31-.2-.45s.2-.31.41-.31,1.1.07,1.55,0l-.1-.79-1.45.1a.63.63,0,0,1-.55-.2c-.07-.14.17-.45.31-.59s1.13,0,1.55-.07a5.63,5.63,0,0,1-.14-.69c-.31,0-1.38.14-1.45.11s-.1-.42,0-.62,1.07-.24,1.45-.14h0a4.84,4.84,0,0,1,.2-.72c-.52,0-1.38,0-1.48,0s-.24-.45-.17-.56C147.06,82.59,148.23,82.69,148.61,82.73Zm3.65,20.74c-.11.2-.93.2-.79.17a1.17,1.17,0,0,0,.13-.76c-.13-.45-.24-.51-.62-.58s-1-.18-1-.45.17-2.14.17-3.59-.27-2.82-.27-4.75V87.24c0-1.14-.11-2.24-.11-3.51a1.65,1.65,0,0,1,.17-.9c.21-.35.62-.28.9-.62a.84.84,0,0,0,.24-.45,1.53,1.53,0,0,0-.41-.82s.76.13.93.44a.59.59,0,0,1,.17.38.84.84,0,0,1-.24.45c-.28.41-.9.48-1,.93-.07.21,0,.1,0,.59,0,.34,0,.72,0,1.06.06,1.28,0,2.52,0,3.93a12.89,12.89,0,0,0,.1,1.48c0,1.69-.07,2.07-.07,3.31,0,1.55.28,3.07.28,4.75,0,1.45-.17,3-.17,3.28s.65.45,1,.45.59.55.66.93A.68.68,0,0,1,152.26,103.47Z"/><line class="cls-1" x1="40.41" y1="63.1" x2="152.07" y2="63.1"/><line class="cls-1" x1="111.72" y1="111.41" x2="152.35" y2="111.41"/></g></svg>