<svg id="Layer_1" data-name="Layer 1" xmlns="http://www.w3.org/2000/svg" viewBox="0 0 150 101.37"><defs><style>.cls-1{fill:#5b563a;}</style></defs><title>Artboard 1</title><path class="cls-1" d="M2.78,15.93c1.16,0,2.33.09,5.11.09h3.4c1.52,0,3.14-.53,4.66-.53a27.81,27.81,0,0,1,5.47-.35h6.27a38.35,38.35,0,0,1,10,1.41,14,14,0,0,1,7.53,5.58c1.43,2.48,3,6.11,3,9.21A3.21,3.21,0,0,1,48,32.58c-.35,3.18-1.61,6.73-3,8.32s-3,2.65-5.2,5.13-5.47,2.48-7,3.19-5,1.24-7.53,1.33a25,25,0,0,1-2.51.09,23.63,23.63,0,0,1-3-.18c-.8,0-1.07,1.42-1.43,4a13.58,13.58,0,0,0-.09,2c0,2.75.36,6,.36,6v6.47c0,1,1.61.88,3.14,1.5.89.27,1.07.71,1.07,1.33a6.49,6.49,0,0,1-.36,1.59c-.27.71-1.43,1.06-2.78,1.06a9,9,0,0,1-2.24-.26A12.47,12.47,0,0,0,15.68,74a28.52,28.52,0,0,0-4.39.27,57.18,57.18,0,0,0-6.72.53c-.18,0-.45.09-.54.09-.8,0-1.16-.8-1.16-1.69,0-.26.18-.71.18-1,.09-.62.62-.89,1.34-.89.45,0,1,.18,1.26.18,1,0,1.07-1.5,1.07-2.74,0-1.51-.09-5-.18-7.09a11.09,11.09,0,0,1-.09-1.77c0-1.24.09-2.56.09-5.22-.09-1.42-.36-3.36-.36-5.84,0-.89,0-1.86.09-2.75.09-1.33.09-2.74.09-4,0-2.57-.09-4.87-.09-6.73,0-2.74.09-6.73.18-9.65,0-.62.09-1.06.09-1.51,0-2.3-.36-3.27-.89-3.71S3.94,20.45,3,20.27c-.81-.26-1.17-2.21-1.17-3.19,0-.17.09-.44.09-.7S2.24,15.93,2.78,15.93ZM9,23.9c0,1.06,0,2.3.09,3.45.18,3,.27,4.52.27,8.77v2.39c0,2-.09,2.65-.36,6.82a15.65,15.65,0,0,0-.27,3.36c0,2.74.54,4,.54,6.2a52,52,0,0,0,.36,6.64c0,.35.09.71.09,1.06,0,2-.63,4-.63,5.93.18,1.51,1.88,2,3.59,2.21-.09,0-.09,0-.09-.08-.36-.18-1-1-.45-1.33A5.89,5.89,0,0,1,15,69.14a2.4,2.4,0,0,0,.09-.8h-.63a8.35,8.35,0,0,1-3-.35c-.36-.18-.36-1,.18-1.33s2.69-.26,3.67-.09a8.53,8.53,0,0,1,.18-1.5h-.62c-.36,0-2.42.18-3,.18s-.54-.89-.45-1.16,1.79-.62,3-.53a5,5,0,0,0,1.16,0c0-.44.09-.88.09-1.32-1.07,0-2.69.08-3.31.08-.81,0-1.08-.88-1.08-1.15s1-.44,1.7-.62a24.37,24.37,0,0,1,2.69-.09V58.78a7.39,7.39,0,0,1-1.16.18,15.21,15.21,0,0,0-2.87,0c-.36.18-.36-1.06-.45-1.51s.72-.44,1.26-.7a18.86,18.86,0,0,1,3.31-.09V55c-.8,0-2.6,0-3,.08a10.66,10.66,0,0,1-1.7,0c-.18,0-.27-1.06.09-1.5s1.35-.35,2.33-.18a10.13,10.13,0,0,0,2.24-.09,16.71,16.71,0,0,0-.09-2.12c-.8,0-2.42.18-3,.26a2.78,2.78,0,0,1-1.71-.08c-.45-.27.36-1.51.72-1.6a36,36,0,0,1,4-.26V47.8a9.4,9.4,0,0,1-2.33-.08,14.56,14.56,0,0,0-1.88.17c-.63,0-.63-.88-.72-1.24S11.47,46,12,46s2.87-.09,3.67-.09V44.35c-.8.09-2.42.09-2.87.09a2.56,2.56,0,0,1-1.7-.62c-.36-.44.18-1.06.54-1.15a11.09,11.09,0,0,1,2-.35,18.93,18.93,0,0,0,2-.09c0-.36-.18-.8-.18-1.42a23.59,23.59,0,0,1-3.49.27c-.36,0-.45-.36-.9-.8s-.36-.8.63-1.15,2.6-.18,3.41-.44h.09a7.58,7.58,0,0,1-.09-1.42v-.09c-.9.09-2.33.18-3.05.18s-.9-.71-1.17-1.06,0-.71.9-1c.72-.18,3.14.09,3.41-.53V33.46H14.7c-.45,0-2.69.09-3.32.09s-.54-.8-.54-1.15.9-.44,1.44-.44c.36,0,2.06-.27,3-.36a16.4,16.4,0,0,0-.08-1.94l-2.78.26a1.65,1.65,0,0,1-1.44-.53c-.18-.35.45-1.15.81-1.51s2.33,0,3.32-.17c-.18-1.33-.27-1.33-.36-1.42-.45-.26-3.14.27-3.41.18s-.27-1.06,0-1.6c.45-1.06,2.69-.35,3.86-.26l.26-1.51-3,.27a1.68,1.68,0,0,1-1.44-.53c-.18-.36.45-1.15.81-1.51a10,10,0,0,1,4-.26v-.18a1.26,1.26,0,0,0-.62-1.24A19,19,0,0,0,10.84,19c-.8,0-1.34.27-1.52.89A15.35,15.35,0,0,0,9,23.9Zm8.34-.53c.09,3.19.8,6,.8,9.21,0,.44-.09.88-.09,1.5-.09,1.77-.18,3.63-.18,5.23a25,25,0,0,0,.27,4.07c.36,1.77,2.15,3.27,3.32,3.27.8,0,3.13.27,4.66.27a10.1,10.1,0,0,0,1.79-.18c1.43-.35,3.32-2.21,4.3-3.36,1.08-1.33,2.24-2.3,2.6-4.61a60.85,60.85,0,0,0,.72-6.28A7.6,7.6,0,0,0,35.4,31c-.27-1.41-2-5.66-2-6.37a13.45,13.45,0,0,0-3.23-4.78c-1.43-1.33-1.52-1.06-4.66-1.42a21,21,0,0,0-2.33-.09,12.61,12.61,0,0,0-4.57.62C18,19.3,17.3,20.62,17.3,23.37Zm2.68,0c.09,3.19.81,6,.81,9.21,0,.44-.09.88-.09,1.5-.09,1.77-.18,3.63-.18,5.23a25,25,0,0,0,.27,4.07c.36,1.77.36,2.3,1.52,2.65A3.52,3.52,0,0,1,19,43.38a25,25,0,0,1-.27-4.07c0-1.6.09-3.46.18-5.23,0-.62.09-1.06.09-1.5,0-3.19-.72-6-.81-9.21,0-2.75.63-3.81,1.26-4.16a4.23,4.23,0,0,1,1.88-.27C20.7,19.3,20,20.62,20,23.37Zm1.17,31.07a13.58,13.58,0,0,0-.09,2c0,2.75.36,6,.36,6v5a5.77,5.77,0,0,0,1.16,2.57c-1.61-.62-2.86-1.42-2.86-2.39-.09-5.14-.45-8.41-.45-11.16a13.58,13.58,0,0,1,.09-2c.36-2.56.62-3.09,2.69-3.09C21.69,51.43,21.42,52.14,21.15,54.44ZM47.94,22.13c1.44,2.48,3,6.11,3,9.21a16.35,16.35,0,0,1-4.12,11.15c-1.43,1.51-1.61,1.33-3.85,3.81a12,12,0,0,1-6.1,4c-2.87,1.07-3.58.71-6,.62,2.24-.35,2.33-1.06,3.67-1.24A10.18,10.18,0,0,0,40.77,46C43,43.55,44.63,42.49,46,40.9a16.54,16.54,0,0,0,3.14-9.56c0-3.1-1.52-6.73-3-9.21-1.61-2.74-4.66-4.6-7.53-5.58C41.67,16.55,46.33,19.39,47.94,22.13ZM34.77,19.65c0,1.06,1.17,3.54,2.06,5.93a13.55,13.55,0,0,1,1.26,5.14A13.51,13.51,0,0,1,38,32.58c-.45,3.1-.27,4.51-1,6.46-.54,1.77-1.34,3.1-1.34,4.34,0,.17.09.17.18.17a12.93,12.93,0,0,0,5-2.47h-1.7c-.36,0-.45-.36-.89-.8s-.36-.8.62-1.15,2.78-.18,3.59-.44c.09,0,.18-.09.27-.09l.8-1.42c-.8.09-2.51.18-3.22.18s-.9-.71-1.17-1.06,0-.71.9-1,2.69-.26,3.58-.35h.9l.18-.62a5.11,5.11,0,0,1,.18-.89h-1c-.45,0-3.14.09-3.76.09s-.54-.8-.54-1.15S40.51,32,41,32s3.41-.36,4-.36c0-1.06-.09-1.59-.09-2l-4.22.35a1.64,1.64,0,0,1-1.43-.53c-.18-.35.45-1.15.81-1.51s2.51,0,3.4-.26,1.35.62.63-1.33c-.81.09-3.14.27-3.49,0s-1.62.27-1.89.18-.27-1.06,0-1.6.63-.62,1.62-.35a12.74,12.74,0,0,0,2.77.09l-.62-1a1.88,1.88,0,0,0-.36-.54l-3.68.27a1.67,1.67,0,0,1-1.43-.53c-.18-.36.45-1.15.81-1.51a8.86,8.86,0,0,1,2.33-.08c-1.89-1.33-4.3-2.22-5.11-2C34.86,19.21,34.77,19.39,34.77,19.65Z"/><path class="cls-1" d="M81.19,26.38c0-1.77-.45-5.13-2.15-6.2-1.44-.79-3.59-1.24-3.59-2.56A2.62,2.62,0,0,1,78.32,15c2.33,0,3.67-.09,5.11-.09a13.16,13.16,0,0,1,4.21.62,1.75,1.75,0,0,0,.72.09c1.79,0,5.28-1.15,7.17-1.15,2.24,0,2.33.71,2.33,1.95s-1.44,1.77-3.59,3.09-2.24,1.42-4.39,4.7c-2.42,3.71-2.78,4.25-3.49,6.64-.81,2.56-2.16,4.07-2.6,6.72-.63,2.75-1.17,3.81-2.69,7.88s-3,9-3.86,12.13-2.59,5.58-3,8.24-2.06,4.87-2.33,6.46a1.8,1.8,0,0,1-2,1.42,4.8,4.8,0,0,1-2.78-1c-1.79-1.15-1.88-3.72-1.88-4.78,0-1.24-.72-3-2-5.22a33.79,33.79,0,0,1-2.51-6c-.26-1.95-2.41-4.43-2.68-6.47-.54-2.47-2-4.07-3.23-6.81-1-2-4.39-8-4.93-10.36a60.85,60.85,0,0,0-3.22-9.21c-.54-1.15-2.6-2.92-3.32-3.63s-2.33-.26-3.49-.26-1.17-1.69-1.17-3.9c0-.88.9-1.06,2.24-1.06s2,.18,3.67.26c3.68.18,3.77.09,7,.27a33.51,33.51,0,0,0,6.9-.53,6.84,6.84,0,0,1,1.26-.09c2,0,2.87.8,3.23,1.77,0,1-1.35,1.86-2.16,2.21-.8.18-1.52.89-1.79,2.4a11.65,11.65,0,0,0,2.06,5.48c1.53,2.39,2.42,5.76,3.5,8.5C65.68,38.15,67,40,68,42.58s2.15,3.1,3.14,5,2.42,4.6,3,4.6c.45-.17.8-2.83,2.15-5.93S78.59,42,79,39a39.4,39.4,0,0,1,1.79-8.59A16.48,16.48,0,0,0,81.19,26.38Zm-31.1-9.21c-.72,0-3.94-.26-3.94.36,0,1.59,3.31,6.46,4.3,8.85A69.72,69.72,0,0,1,53,33.46c.72,2.3.27,2.13,1.7,4.52a49.28,49.28,0,0,1,3.68,7.79c.62,1.77,2.33,4.6,2.95,6.46.63,2,1.88,5.58,3.14,7.26a36.11,36.11,0,0,1,2.24,4.07c.09.27,1.79.36,2.06.36.63,0,2.78-.62,3.41-1.68-1.08.08-2.42.08-3,.08-.81,0-1.08-.88-1.08-1.15s1-.44,1.71-.62c.53,0,2-.09,3-.09L73,58.52a40.39,40.39,0,0,1-4.12.44,9.25,9.25,0,0,0-2.24,0c-.36.18-.36-1.06-.45-1.51s.72-.44,1.26-.7a41.26,41.26,0,0,1,4.84-.09h.26A19.66,19.66,0,0,1,71.24,55h-.18c-.36,0-5.29,0-5.73.08a10.78,10.78,0,0,1-1.71,0c-.18,0-.27-1.06.09-1.5s1.35-.35,2.33-.18a24.77,24.77,0,0,0,4.12-.17A3.7,3.7,0,0,1,69.72,52v-.62c-1-.09-3-.18-3.5-.18a14.25,14.25,0,0,0-2.06.26,2.75,2.75,0,0,1-1.7-.08c-.45-.27.36-1.51.71-1.6a24.62,24.62,0,0,1,3.23-.26,21.13,21.13,0,0,0,3.14-.27,7.74,7.74,0,0,0-.81-1.77l-.72.27a23.65,23.65,0,0,1-4.21,0,14.56,14.56,0,0,0-1.88.17c-.63,0-.63-.88-.72-1.24s.72-.62,1.26-.7,4-.09,4.75-.09a1.34,1.34,0,0,0,.54-.09l-1-1.86-1.08.35a35.74,35.74,0,0,1-4.48.18,2.54,2.54,0,0,1-1.7-.62c-.36-.44.18-1.06.54-1.15s3.13-.35,3.76-.35c.36,0,1.53-.09,2.24-.18l-.27-.62-.44-1c-.45.09-2.87.09-3.32.27a16.24,16.24,0,0,1-2.87.27c-.36,0-.45-.36-.89-.8s-.36-.8.62-1.15,2-.18,2.78-.44a19.93,19.93,0,0,1,2.69-.18,16.81,16.81,0,0,1-.81-1.77l-3.13.35a26.47,26.47,0,0,1-2.78.27c-.81,0-.9-.71-1.17-1.06s0-.71.9-1A27.81,27.81,0,0,1,60.22,35a18,18,0,0,1,2.33.09c-.27-.54-.45-1.07-.72-1.51-1-.09-3.23-.09-3.67-.09s-2,.09-2.6.09S55,32.75,55,32.4s.9-.44,1.43-.44,3.32-.36,3.77-.36a.56.56,0,0,0,.45-.26l-.81-1.77-4.66.35a1.47,1.47,0,0,1-1.35-.53c-.17-.35.36-1.15.72-1.51s1.88,0,2.78-.26a9.74,9.74,0,0,1,1.7-.09v-.18l-.54-1.24a16,16,0,0,1-3.94.18c-.45-.26-1.61.27-1.88.18s-.27-1.06,0-1.6.63-.62,1.61-.35a10.26,10.26,0,0,0,3.32,0,8.28,8.28,0,0,1-.9-1.5l-4.57.35a1.66,1.66,0,0,1-1.43-.53c-.18-.36.45-1.15.8-1.51s3.5,0,4.4-.26l-.54-1.24a20.6,20.6,0,0,1-4.39.26c-.45-.26-1.62.18-1.89.09s-.26-.88,0-1.24c.18-.53.63-.53,1.62-.35a20.18,20.18,0,0,0,4.12.09c-.45-1-1-1.68-1.25-1.68S50.18,17.17,50.09,17.17ZM74.11,51c0-.18.71-1.24.54-1.77-.27-1-.63-1.06-.81-1.68-.63-2-2.15-2.3-3.14-5s-2.33-4.43-3.4-7.35c-1.08-2.74-2-6.11-3.5-8.5a7.39,7.39,0,0,1-1.61-4.42A7.78,7.78,0,0,1,62.1,19c-1,1.06-1.88.71-2.15,2.22A11.65,11.65,0,0,0,62,26.73c1.52,2.39,2.42,5.76,3.49,8.5,1.08,2.92,2.42,4.78,3.41,7.35s2.15,3.1,3.14,5A29.61,29.61,0,0,0,74.11,51ZM98.75,16.55c0,1.15.27,1.68-1.79,2.92s-2.24,1.42-4.39,4.7c-2.42,3.71-2.78,4.25-3.5,6.64-.8,2.56-2.15,4.07-2.6,6.72-.62,2.75-1.16,3.81-2.68,7.88s-3,9-3.86,12.13-2.6,5.58-3,8.24-2.07,4.87-2.33,6.46c-.18.88-2.33,1.33-3.5,1.42a1.73,1.73,0,0,0,1.7-1.42c.27-1.59,2-3.9,2.33-6.46s2.15-5.23,3-8.24,2.24-8,3.85-12.13,2.07-5.13,2.69-7.88c.45-2.65,1.79-4.16,2.6-6.72.72-2.39,1.08-2.93,3.5-6.64,2.15-3.28,2.24-3.37,4.39-4.7S98.57,17.7,98.75,16.55Zm-16,6A32.31,32.31,0,0,0,84.5,29l.9-3.46c-.45.09-.9.27-1,.18-.35-.09-.27-1.06,0-1.59s.63-.62,1.62-.36a1.78,1.78,0,0,0,1,0,8.59,8.59,0,0,0,.9-1.06l-2.51.18A1.65,1.65,0,0,1,84,22.31c-.18-.36.44-1.15.8-1.51s4.3,0,5.2-.26h.09l.81-.89a36.8,36.8,0,0,1-5.92.18c-.45-.27-1.61.18-1.88.09s-.27-.89,0-1.24c.18-.53.63-.53,1.61-.36A39.73,39.73,0,0,0,91.31,18c-.27-.18.36-.8,0-.8-1.07,0-4.12.27-4.3.27-2,0-6.9-.44-7.7.35C79,17.7,82.53,20.36,82.71,22.57Z"/><path class="cls-1" d="M98.21,14.43c2.15,0,5.38.71,7.26.88a16.4,16.4,0,0,0,2.15.09c2.33,0,5.2-.35,8.06-.62a13.87,13.87,0,0,1,1.88-.09c2.42,0,4.22.45,6.46.45h1.16a37.39,37.39,0,0,1,9.14,1.68c1.8.8,3.68,3.63,4.66,5.22s.9,6.2,1.08,8.24c0,2-1.35,5.84-2.24,7.87a13.46,13.46,0,0,1-4.66,4.34,18.46,18.46,0,0,1-3.77,1.68,15.59,15.59,0,0,0,3.23,1.51c1.88.53,1.88,1.86,3.32,2.39s1.34,2.48,2.15,3.45c.62.89.8,2.13,1.43,4.16a41.31,41.31,0,0,1,1.88,7.09c.36,1.85,1.53,4.87,2.6,5.66s2.06.62,3.77.89a1.72,1.72,0,0,1,1.34,1.86,3.34,3.34,0,0,1-.36,1.5c-.54,1.15-1.88.62-4.57,1a11,11,0,0,1-1.52.08c-1.44,0-2-.26-3.68-.26-2.15,0-6-.36-7.17-1a6.39,6.39,0,0,1-3.31-4c-.27-1.42-.81-5.67-1-6.9s-2.24-6.47-2.69-8.68-2.24-3.36-4.66-4.69a4.47,4.47,0,0,0-2.24-.53c-.71,0-1.43.17-3.13.17A3.12,3.12,0,0,0,111.92,50a2.21,2.21,0,0,0-.27,1.33c0,1.06.54,2.39.63,4.51.18,3,.27,3.9.27,6.73s0,5,.53,6.2c.45,1,3.32,1,3.59,1.94,0,1.42-.36,2.57-1.17,2.75-1.07.18-7.08.44-8.69.62a12.6,12.6,0,0,1-1.34.18,76.12,76.12,0,0,1-8.07-.54c-1.07-.26-1.34-1.41-1.43-2.21-.09-1.06,3.13-1.24,3.58-1.5s.72-.8.72-2c0-.27-.09-.53-.09-1.51,0-1.77-.45-4.51-.36-8.85,0-3.63.27-8.23.27-10.36.09-1.33.09-2,.09-2.74,0-1.77-.18-3.72-.27-6.11,0-1.24-.09-2.39-.09-3.37a41.64,41.64,0,0,1,.27-5,9,9,0,0,0,.09-1.6,58.2,58.2,0,0,0-.81-7.88c0-.17-.09-.26-.09-.35-.09-.8-.35-1-.71-1s-.72.17-1.17.17a.9.9,0,0,1-.45-.08c-.89-.27-1.34-1.42-1.34-2.75a6.85,6.85,0,0,1,.18-1.33C96,14.69,97,14.43,98.21,14.43Zm3.76,5c0,1.32.54,4.42.9,7.17a66.07,66.07,0,0,1,.45,6.9,20.43,20.43,0,0,1-.09,2.39c0,.53-.09,1-.09,1.42,0,2,.27,4.07.27,6.46a13.51,13.51,0,0,1-.09,2c-.18,2-.18,3.45-.18,4.78a23.34,23.34,0,0,1-.18,3.63,19.88,19.88,0,0,0-.27,3.45c0,1.42.09,2.92.09,4s-.09,2.48-.09,3.89a10.59,10.59,0,0,0,.36,3.37c.45.7,4.21,1.15,5.2,1.15s1.34-.71,1.61-1.69c-1.35,0-3,.09-3.5.09a3.17,3.17,0,0,1-1.88-.35c-.36-.18-.36-1,.18-1.33s4.57-.26,5.38-.09h.09v-1.5h-.81c-.36,0-3.94.18-4.48.18s-.54-.89-.45-1.16a3.25,3.25,0,0,1,2.42-.53,15.21,15.21,0,0,0,3.32-.17V62.24c-1.17,0-3.95.08-4.57.08-.81,0-1.08-.88-1.08-1.15s1-.44,1.7-.62a28.29,28.29,0,0,1,3.95-.09V58.69c-1.08.09-2.33.27-2.78.27a9.25,9.25,0,0,0-2.24,0c-.36.18-.36-1.06-.45-1.51s.72-.44,1.26-.7a28.43,28.43,0,0,1,4.12-.09c0-.53-.09-1.15-.09-1.68-1.08,0-3.23,0-3.59.08a10.65,10.65,0,0,1-1.7,0c-.18,0-.27-1.06.09-1.5s1.34-.35,2.33-.18a10.35,10.35,0,0,0,2.69-.17c0-.71-.09-1.42-.09-2-1.08.09-2.69.18-3.14.26a2.75,2.75,0,0,1-1.7-.08c-.45-.27.36-1.51.72-1.6s2.51-.17,3.94-.26a10.09,10.09,0,0,1-.09-1.69,14.24,14.24,0,0,1-2.15-.08,14.56,14.56,0,0,0-1.88.17c-.63,0-.63-.88-.72-1.24s.72-.62,1.26-.7,2.41-.09,3.58-.09v-.27a4.59,4.59,0,0,1,.09-1.15h-3.14a2.54,2.54,0,0,1-1.7-.62c-.36-.44.18-1.06.54-1.15a11.09,11.09,0,0,1,2-.35c.27,0,1.52,0,2.69-.09v-.8a1.71,1.71,0,0,0-.09-.62,42.89,42.89,0,0,1-4.66.27c-.36,0-.45-.36-.9-.8s-.36-.8.63-1.15,3.85-.18,4.66-.44a9,9,0,0,0-.09-1.51c-1,.09-2.87.18-3.58.18s-.9-.71-1.17-1.06,0-.71.9-1c.71-.18,2.77-.18,3.85-.26v-1.6h-.27c-.45,0-3.31.09-3.94.09s-.54-.8-.54-1.15S105.47,32,106,32c.36,0,2.42-.18,3.5-.27,0-.44.09-.88.09-1.33l-3.23.27a1.67,1.67,0,0,1-1.43-.53c-.18-.36.45-1.15.81-1.51s3,0,3.94-.26c0-.27.09-.62.09-1-1.26,0-4,.36-4.93.09-.36-.09-.27-1.06,0-1.59s.63-.62,1.61-.36a18,18,0,0,0,3.32.09V24l-3.94.26a2.29,2.29,0,0,1-1.71-.53c-.18-.35.45-1.15.81-1.5s3.85,0,4.75-.27V21l-5,.27a1.66,1.66,0,0,1-1.43-.54c-.18-.35.45-1.15.8-1.5.36-.18,4,0,5.29-.18a3.4,3.4,0,0,0-1.88-.62c-.36-.09-3-.09-3.41-.09-.89,0-1.7.09-2,.45C102,18.85,102,19.12,102,19.39ZM112,22c0,.8,0,1.51.09,2.57.18,2.83.8,7.52.8,10.18,0,.53-.08,1-.08,1.24-.18,1.68-.27,4.69-.27,6.46v1.42c0,.26.44.35,1,.35a21.34,21.34,0,0,0,4.3-.71c1.62-.35,4.93.09,6.28-1.5,1.25-1.42,1.7-4.16,2.24-6.64l.18-.71a23.59,23.59,0,0,0,.45-4.34,18.91,18.91,0,0,0-.45-3.8c-.63-2.92-1.35-6-3.32-7.17a8,8,0,0,0-5.38-1.69c-2.24,0-5.37,0-5.55.8Zm3.31,26.47a2.14,2.14,0,0,0-2.5,1.51,2.21,2.21,0,0,0-.27,1.33c0,1.06.53,2.39.62,4.51.18,3,.27,3.9.27,6.73s0,5,.54,6.2c.45,1,2.6.44,2.87,1.41-.27-1-.72-.88-1.17-1.86-.53-1.24-.45-2.83-.45-5.75s-.08-3.72-.26-6.73c-.09-2.12-.63-3.45-.63-4.51a4.36,4.36,0,0,1,.27-1.33C114.61,50.11,116.49,48.51,115.32,48.51Zm-.09-5.22v-.8c0-1.77.09-4.78.27-6.46,0-.27.09-.71.09-1.24,0-2.66-.62-7.35-.8-10.18-.09-1.06-.09-1.77-.09-2.57L115,18.5c-.09-.44-1.8.09-1.8,0L112.9,22c0,.8,0,1.51.09,2.57.18,2.83.81,7.52.81,10.18,0,.53-.09,1-.09,1.24-.18,1.68-.27,4.69-.27,7.52C113.62,43.91,115.32,43.29,115.23,43.29ZM128.5,54c.54,2,1.79,5.14,2.15,6.55a39.94,39.94,0,0,0,1.7,6.29c.36,1.33,3.23,3,5.11,3.45a8,8,0,0,0,2,.18,5.46,5.46,0,0,0,1.43-.09c.09,0-.62-1-1.34-2.13a21.77,21.77,0,0,0-2.51.09,3.15,3.15,0,0,1-1.88-.35c-.36-.18-.36-1,.18-1.33a6.64,6.64,0,0,1,3.22-.09c-.35-1.06-.35-1.24-.44-1.41a12.94,12.94,0,0,0-1.62-.09c-.35,0-1.79.18-2.33.18s-.53-.89-.44-1.16a3.23,3.23,0,0,1,2.42-.53,8.55,8.55,0,0,0,1.52,0,7.2,7.2,0,0,0-.36-1.32c-1,0-2.87.08-3.58.08s-1.08-.88-1.08-1.15,1-.44,1.7-.62c.54,0,1.71-.09,2.51-.09l-.36-1.77a13.08,13.08,0,0,1-2.33.27,9.26,9.26,0,0,0-2.24,0c-.35.18-.35-1.06-.44-1.51s.71-.44,1.25-.7a18.33,18.33,0,0,1,3.32-.09c-.18-.53-.45-1.07-.63-1.68-.72,0-2.87,0-3.23.08a10.65,10.65,0,0,1-1.7,0c-.18,0-.27-1.06.09-1.5s1.34-.35,2.33-.18a6,6,0,0,0,2.06-.17,5.9,5.9,0,0,0-.9-2c-.8,0-2.59.18-3.22.26a2.75,2.75,0,0,1-1.7-.08c-.45-.27.35-1.51.71-1.6.18,0,1.17-.09,2.24-.17l-1.25-1c-.72,0-1.44.18-1.79.18a2.71,2.71,0,0,1-1.71-.09c-.35-.18-.09-.8.27-1.24a9.25,9.25,0,0,0-1.34-.18c-.27,0-.45.09-.45.27a.3.3,0,0,0,.09.26C126.26,49,127.87,51.88,128.5,54Zm.18-30.54a36.64,36.64,0,0,1,.89,7.44,59,59,0,0,1-.62,7.7c-.09.62-1.35,3.45-1.26,3.45s3.59-1.15,3.86-1.24c0-.09-.72-.18-.81-.27a1.19,1.19,0,0,1,.72-1.77,6.36,6.36,0,0,1,1.79-.17c.45-.45.36-.71.71-1.24h-1.43c-.81,0-.9-.71-1.16-1.06s0-.71.89-1l3-.26.54-1.6c-.9,0-2.69.09-3.23.09s-.54-.8-.54-1.15.9-.44,1.44-.44c.27,0,1.7-.18,2.77-.27l.18-2-2.5.26a1.65,1.65,0,0,1-1.44-.53c-.18-.35.45-1.15.81-1.51s2.15,0,3-.26a8.4,8.4,0,0,0-.35-1.42,3.81,3.81,0,0,1-2,.09c-.44-.26-1.61.27-1.88.18s-.27-1.06,0-1.6.63-.62,1.62-.35a9.11,9.11,0,0,0,1.7.09c-.18-.44-.27-.89-.45-1.24l-2.51.27A1.66,1.66,0,0,1,131,23.1c-.18-.35.45-1.15.8-1.5a4.32,4.32,0,0,1,1.62-.09c-.36-.89-.54-1-.54-1l-1.7.17a1.65,1.65,0,0,1-1.44-.53c-.18-.17.09-.71.36-1.06a3,3,0,0,0-1.34-.53c-.18,0-1.44-.27-1.44-.09C127.33,19.92,128.32,22.13,128.68,23.46ZM144.9,67.81c-1.08-.79-2.24-3.19-2.6-5a42.24,42.24,0,0,0-1.88-7.09c-.63-2-.81-3.27-1.44-4.16-.8-1-.62-2.92-2.15-3.45s-1.43-1.86-3.31-2.39a15.31,15.31,0,0,1-3.23-1.51,20.64,20.64,0,0,0,3.76-1.68c1.44-.88,3.68-2.48,4.66-4.34.9-2,2.24-5.84,2.24-7.87-.17-2-.09-6.73-1.07-8.24s-2.87-4.42-4.66-5.22c-1.61-.44-3.94-1.51-6.72-1.68A45.59,45.59,0,0,1,137,16.82c1.79.8,3.68,3.63,4.66,5.22s.9,6.2,1.08,8.24c0,2-1.35,5.84-2.24,7.87a13.46,13.46,0,0,1-4.66,4.34,14.64,14.64,0,0,1-3.32,1.6,11.14,11.14,0,0,0,2.87,1.41c3,.89,4.12,3.19,5.38,6a38.64,38.64,0,0,1,1.43,4.16,41.31,41.31,0,0,1,1.88,7.09,10.51,10.51,0,0,0,1.52,4,5.12,5.12,0,0,0,2.16,1.86C146.06,68.34,146,68.61,144.9,67.81Z"/></svg>