<?xml version="1.0" encoding="utf-8"?>
<!-- Generator: Adobe Illustrator 23.0.4, SVG Export Plug-In . SVG Version: 6.00 Build 0)  -->
<svg version="1.1" id="Layer_1" xmlns="http://www.w3.org/2000/svg" xmlns:xlink="http://www.w3.org/1999/xlink" x="0px" y="0px"
	 viewBox="0 0 150 101.4" style="enable-background:new 0 0 150 101.4;" xml:space="preserve">
<style type="text/css">
	.st0{fill:#FFFFFF;}
</style>
<title>Artboard 1</title>
<path class="st0" d="M2.8,15.9c1.2,0,2.3,0.1,5.1,0.1h3.4c1.5,0,3.1-0.5,4.7-0.5c1.8-0.3,3.6-0.4,5.5-0.4h6.3c3.4,0,6.7,0.5,10,1.4
	c3.1,0.9,5.7,2.9,7.5,5.6c1.4,2.5,3,6.1,3,9.2c0,0.4-0.1,0.8-0.2,1.2c-0.3,3.2-1.6,6.7-3,8.3s-3,2.7-5.2,5.1s-5.5,2.5-7,3.2
	s-5,1.2-7.5,1.3c-0.8,0.1-1.7,0.1-2.5,0.1c-1,0-2-0.1-3-0.2c-0.8,0-1.1,1.4-1.4,4c-0.1,0.7-0.1,1.3-0.1,2c0,2.8,0.4,6,0.4,6v6.5
	c0,1,1.6,0.9,3.1,1.5c0.9,0.3,1.1,0.7,1.1,1.3c-0.1,0.5-0.2,1.1-0.4,1.6c-0.3,0.7-1.4,1.1-2.8,1.1c-0.8,0-1.5-0.1-2.2-0.3
	c-0.6-0.1-1.2-0.1-1.7-0.1c-1.5,0-2.9,0.1-4.4,0.3c-2.2,0-4.5,0.2-6.7,0.5c-0.2,0-0.4,0.1-0.5,0.1c-0.8,0-1.2-0.8-1.2-1.7
	c0-0.3,0.2-0.7,0.2-1c0.1-0.6,0.6-0.9,1.3-0.9c0.4,0,1,0.2,1.3,0.2c1,0,1.1-1.5,1.1-2.7c0-1.5-0.1-5-0.2-7.1
	c-0.1-0.6-0.1-1.2-0.1-1.8c0-1.2,0.1-2.6,0.1-5.2c-0.1-1.4-0.4-3.4-0.4-5.8c0-0.9,0-1.9,0.1-2.8c0.1-1.3,0.1-2.7,0.1-4
	c0-2.6-0.1-4.9-0.1-6.7c0-2.7,0.1-6.7,0.2-9.6c0-0.6,0.1-1.1,0.1-1.5c0-2.3-0.4-3.3-0.9-3.7s-1.7,0-2.7-0.2
	c-0.8-0.3-1.2-2.2-1.2-3.2c0-0.2,0.1-0.4,0.1-0.7S2.2,15.9,2.8,15.9z M9,23.9c0,1.1,0,2.3,0.1,3.5c0.2,3,0.3,4.5,0.3,8.8v2.4
	c0,2-0.1,2.7-0.4,6.8c-0.2,1.1-0.3,2.2-0.3,3.4c0,2.7,0.5,4,0.5,6.2c0,2.2,0.1,4.4,0.4,6.6c0,0.3,0.1,0.7,0.1,1.1c0,2-0.6,4-0.6,5.9
	c0.2,1.5,1.9,2,3.6,2.2c-0.1,0-0.1,0-0.1-0.1c-0.4-0.2-1-1-0.4-1.3C13.1,69,14,69,15,69.1c0.1-0.3,0.1-0.5,0.1-0.8h-0.6
	c-1,0.1-2-0.1-3-0.3c-0.4-0.2-0.4-1,0.2-1.3s2.7-0.3,3.7-0.1c0-0.5,0.1-1,0.2-1.5h-0.6c-0.4,0-2.4,0.2-3,0.2s-0.5-0.9-0.4-1.2
	s1.8-0.6,3-0.5c0.4,0,0.8,0,1.2,0c0-0.4,0.1-0.9,0.1-1.3c-1.1,0-2.7,0.1-3.3,0.1c-0.8,0-1.1-0.9-1.1-1.2s1-0.4,1.7-0.6
	c0.9-0.1,1.8-0.1,2.7-0.1v-1.7c-0.4,0.1-0.8,0.2-1.2,0.2c-1-0.1-1.9-0.1-2.9,0c-0.4,0.2-0.4-1.1-0.4-1.5s0.7-0.4,1.3-0.7
	c1.1-0.1,2.2-0.2,3.3-0.1V55c-0.8,0-2.6,0-3,0.1c-0.6,0-1.1,0-1.7,0c-0.2,0-0.3-1.1,0.1-1.5s1.4-0.3,2.3-0.2c0.7,0.1,1.5,0,2.2-0.1
	c0-0.7,0-1.4-0.1-2.1c-0.8,0-2.4,0.2-3,0.3c-0.6,0.2-1.2,0.1-1.7-0.1c-0.4-0.3,0.4-1.5,0.7-1.6c1.3-0.2,2.7-0.2,4-0.3v-1.7
	c-0.8,0.1-1.6,0-2.3-0.1c-0.6,0-1.3,0.1-1.9,0.2c-0.6,0-0.6-0.9-0.7-1.2S11.5,46,12,46s2.9-0.1,3.7-0.1v-1.6
	c-0.8,0.1-2.4,0.1-2.9,0.1c-0.6,0-1.2-0.2-1.7-0.6c-0.4-0.4,0.2-1.1,0.5-1.2c0.7-0.2,1.3-0.3,2-0.3c0.7,0,1.3,0,2-0.1
	c0-0.4-0.2-0.8-0.2-1.4c-1.2,0.2-2.3,0.3-3.5,0.3c-0.4,0-0.4-0.4-0.9-0.8s-0.4-0.8,0.6-1.2s2.6-0.2,3.4-0.4h0.1
	c-0.1-0.5-0.1-0.9-0.1-1.4v-0.1c-0.9,0.1-2.3,0.2-3.1,0.2s-0.9-0.7-1.2-1.1s0-0.7,0.9-1c0.7-0.2,3.1,0.1,3.4-0.5v-1.3h-0.5
	c-0.4,0-2.7,0.1-3.3,0.1s-0.5-0.8-0.5-1.2s0.9-0.4,1.4-0.4c0.4,0,2.1-0.3,3-0.4c0-0.6,0-1.3-0.1-1.9l-2.8,0.3
	c-0.5,0.1-1.1-0.1-1.4-0.5c-0.2-0.4,0.4-1.1,0.8-1.5s2.3,0,3.3-0.2c-0.2-1.3-0.3-1.3-0.4-1.4c-0.4-0.3-3.1,0.3-3.4,0.2
	s-0.3-1.1,0-1.6c0.4-1.1,2.7-0.4,3.9-0.3l0.3-1.5l-3,0.3c-0.5,0.1-1.1-0.1-1.4-0.5c-0.2-0.4,0.4-1.1,0.8-1.5c1.3-0.4,2.7-0.4,4-0.3
	v-0.2c0.1-0.5-0.2-1-0.6-1.2c-1.4-0.4-2.9-0.6-4.4-0.6c-0.8,0-1.3,0.3-1.5,0.9C9,21.2,8.9,22.6,9,23.9z M17.3,23.4
	c0.1,3.2,0.8,6,0.8,9.2c0,0.4-0.1,0.9-0.1,1.5c-0.1,1.8-0.2,3.6-0.2,5.2c0,1.4,0.1,2.7,0.3,4.1c0.4,1.8,2.1,3.3,3.3,3.3
	c0.8,0,3.1,0.3,4.7,0.3c0.6,0,1.2-0.1,1.8-0.2c1.4-0.3,3.3-2.2,4.3-3.4c1.1-1.3,2.2-2.3,2.6-4.6c0.3-2.1,0.6-4.2,0.7-6.3
	c0-0.5,0-1-0.1-1.5c-0.3-1.4-2-5.7-2-6.4c-0.7-1.8-1.8-3.4-3.2-4.8c-1.4-1.3-1.5-1.1-4.7-1.4c-0.8-0.1-1.6-0.1-2.3-0.1
	c-1.5-0.1-3.1,0.1-4.6,0.6C18,19.3,17.3,20.6,17.3,23.4L17.3,23.4z M20,23.4c0.1,3.2,0.8,6,0.8,9.2c0,0.4-0.1,0.9-0.1,1.5
	c-0.1,1.8-0.2,3.6-0.2,5.2c0,1.4,0.1,2.7,0.3,4.1c0.4,1.8,0.4,2.3,1.5,2.7c-1.6,0-3-1.1-3.4-2.6c-0.2-1.3-0.3-2.7-0.3-4.1
	c0-1.6,0.1-3.5,0.2-5.2c0-0.6,0.1-1.1,0.1-1.5c0-3.2-0.7-6-0.8-9.2c0-2.8,0.6-3.8,1.3-4.2c0.6-0.2,1.2-0.3,1.9-0.3
	C20.7,19.3,20,20.6,20,23.4L20,23.4z M21.2,54.4c-0.1,0.7-0.1,1.3-0.1,2c0,2.8,0.4,6,0.4,6v5c0.2,0.9,0.6,1.8,1.2,2.6
	c-1.6-0.6-2.9-1.4-2.9-2.4c-0.1-5.1-0.5-8.4-0.5-11.2c0-0.7,0-1.3,0.1-2c0.4-2.6,0.6-3.1,2.7-3.1C21.7,51.4,21.4,52.1,21.2,54.4
	L21.2,54.4z M47.9,22.1c1.4,2.5,3,6.1,3,9.2c0.1,4.1-1.4,8.1-4.1,11.1c-1.4,1.5-1.6,1.3-3.8,3.8c-1.6,1.9-3.7,3.3-6.1,4
	c-2.9,1.1-3.6,0.7-6,0.6c2.2-0.3,2.3-1.1,3.7-1.2c2.5-0.4,4.7-1.7,6.2-3.7c2.2-2.5,3.9-3.5,5.2-5.1c2-2.8,3.1-6.1,3.1-9.6
	c0-3.1-1.5-6.7-3-9.2c-1.6-2.7-4.7-4.6-7.5-5.6C41.7,16.5,46.3,19.4,47.9,22.1z M34.8,19.6c0,1.1,1.2,3.5,2.1,5.9
	c0.8,1.6,1.2,3.4,1.3,5.1c0,0.6,0,1.2-0.1,1.9c-0.5,3.1-0.3,4.5-1,6.5c-0.5,1.8-1.3,3.1-1.3,4.3c0,0.2,0.1,0.2,0.2,0.2
	c1.8-0.4,3.5-1.3,5-2.5h-1.7c-0.4,0-0.5-0.4-0.9-0.8s-0.4-0.8,0.6-1.2s2.8-0.2,3.6-0.4c0.1,0,0.2-0.1,0.3-0.1l0.8-1.4
	c-0.8,0.1-2.5,0.2-3.2,0.2s-0.9-0.7-1.2-1.1s0-0.7,0.9-1s2.7-0.3,3.6-0.3h0.9l0.2-0.6c0-0.3,0.1-0.6,0.2-0.9h-1
	c-0.5,0-3.1,0.1-3.8,0.1s-0.5-0.8-0.5-1.2S40.5,32,41,32s3.4-0.4,4-0.4c0-1.1-0.1-1.6-0.1-2L40.7,30c-0.5,0.1-1.1-0.1-1.4-0.5
	c-0.2-0.4,0.5-1.1,0.8-1.5s2.5,0,3.4-0.3s1.3,0.6,0.6-1.3c-0.8,0.1-3.1,0.3-3.5,0s-1.6,0.3-1.9,0.2s-0.3-1.1,0-1.6s0.6-0.6,1.6-0.4
	c0.9,0.1,1.8,0.2,2.8,0.1l-0.6-1c-0.1-0.2-0.2-0.4-0.4-0.5l-3.7,0.3c-0.5,0.1-1.1-0.1-1.4-0.5c-0.2-0.4,0.5-1.1,0.8-1.5
	c0.8-0.1,1.6-0.2,2.3-0.1c-1.9-1.3-4.3-2.2-5.1-2C34.9,19.2,34.8,19.4,34.8,19.6z"/>
<path class="st0" d="M81.2,26.4c0-1.8-0.4-5.1-2.2-6.2c-1.4-0.8-3.6-1.2-3.6-2.6c0-1.4,1.2-2.6,2.6-2.6c0.1,0,0.2,0,0.3,0
	c2.3,0,3.7-0.1,5.1-0.1c1.4,0,2.8,0.2,4.2,0.6c0.2,0.1,0.5,0.1,0.7,0.1c1.8,0,5.3-1.1,7.2-1.1c2.2,0,2.3,0.7,2.3,1.9
	s-1.4,1.8-3.6,3.1s-2.2,1.4-4.4,4.7c-2.4,3.7-2.8,4.2-3.5,6.6c-0.8,2.6-2.2,4.1-2.6,6.7c-0.6,2.8-1.2,3.8-2.7,7.9s-3,9-3.9,12.1
	s-2.6,5.6-3,8.2s-2.1,4.9-2.3,6.5c-0.2,0.9-1.1,1.5-2,1.4c-1,0-2-0.4-2.8-1c-1.8-1.2-1.9-3.7-1.9-4.8c0-1.2-0.7-3-2-5.2
	c-1-1.9-1.9-3.9-2.5-6c-0.3-2-2.4-4.4-2.7-6.5c-0.5-2.5-2-4.1-3.2-6.8c-1-2-4.4-8-4.9-10.4c-0.8-3.2-1.9-6.2-3.2-9.2
	c-0.5-1.1-2.6-2.9-3.3-3.6S41,20,39.9,20s-1.2-1.7-1.2-3.9c0-0.9,0.9-1.1,2.2-1.1s2,0.2,3.7,0.3c3.7,0.2,3.8,0.1,7,0.3
	c2.3,0.1,4.6-0.1,6.9-0.5c0.4-0.1,0.8-0.1,1.3-0.1c2,0,2.9,0.8,3.2,1.8c0,1-1.3,1.9-2.2,2.2c-0.8,0.2-1.5,0.9-1.8,2.4
	c0.2,2,0.9,3.9,2.1,5.5c1.5,2.4,2.4,5.8,3.5,8.5c1.1,2.9,2.4,4.7,3.4,7.3s2.2,3.1,3.1,5s2.4,4.6,3,4.6c0.4-0.2,0.8-2.8,2.2-5.9
	S78.6,42,79,39c0.3-2.9,0.9-5.8,1.8-8.6C81.1,29.1,81.2,27.7,81.2,26.4z M50.1,17.2c-0.7,0-3.9-0.3-3.9,0.4c0,1.6,3.3,6.5,4.3,8.9
	c1,2.3,1.8,4.7,2.5,7.1c0.7,2.3,0.3,2.1,1.7,4.5c1.5,2.5,2.7,5.1,3.7,7.8c0.6,1.8,2.3,4.6,3,6.5c0.6,2,1.9,5.6,3.1,7.3
	c0.8,1.3,1.6,2.7,2.2,4.1c0.1,0.3,1.8,0.4,2.1,0.4c0.6,0,2.8-0.6,3.4-1.7c-1.1,0.1-2.4,0.1-3,0.1c-0.8,0-1.1-0.9-1.1-1.2
	s1-0.4,1.7-0.6c0.5,0,2-0.1,3-0.1l0.2-1.9c-1.4,0.2-2.7,0.4-4.1,0.4c-0.7-0.1-1.5-0.1-2.2,0c-0.4,0.2-0.4-1.1-0.4-1.5
	s0.7-0.4,1.3-0.7c1.6-0.1,3.2-0.2,4.8-0.1h0.3c-0.5-0.5-0.9-1.1-1.3-1.7h-0.2c-0.4,0-5.3,0-5.7,0.1c-0.6,0-1.1,0-1.7,0
	c-0.2,0-0.3-1.1,0.1-1.5c0.4-0.4,1.4-0.3,2.3-0.2c1.4,0.1,2.8,0,4.1-0.2c-0.2-0.4-0.4-0.8-0.4-1.2v-0.6c-1-0.1-3-0.2-3.5-0.2
	c-0.7,0-1.4,0.1-2.1,0.3c-0.6,0.2-1.2,0.1-1.7-0.1c-0.5-0.3,0.4-1.5,0.7-1.6c1.1-0.2,2.1-0.2,3.2-0.3c1.1,0,2.1-0.1,3.1-0.3
	c-0.2-0.6-0.5-1.2-0.8-1.8L68,47.8c-1.4,0.1-2.8,0.1-4.2,0c-0.6,0-1.3,0.1-1.9,0.2c-0.6,0-0.6-0.9-0.7-1.2s0.7-0.6,1.3-0.7
	s4-0.1,4.8-0.1c0.2,0,0.4,0,0.5-0.1l-1-1.9l-1.1,0.3c-1.5,0.2-3,0.2-4.5,0.2c-0.6,0-1.2-0.2-1.7-0.6c-0.4-0.4,0.2-1.1,0.5-1.2
	s3.1-0.3,3.8-0.3c0.4,0,1.5-0.1,2.2-0.2l-0.3-0.6l-0.4-1c-0.4,0.1-2.9,0.1-3.3,0.3c-0.9,0.2-1.9,0.3-2.9,0.3c-0.4,0-0.5-0.4-0.9-0.8
	s-0.4-0.8,0.6-1.2s2-0.2,2.8-0.4c0.9-0.1,1.8-0.2,2.7-0.2c-0.3-0.6-0.6-1.2-0.8-1.8l-3.1,0.3c-0.9,0.1-1.8,0.2-2.8,0.3
	c-0.8,0-0.9-0.7-1.2-1.1s0-0.7,0.9-1c1-0.2,1.9-0.3,2.9-0.3c0.8,0,1.6,0,2.3,0.1c-0.3-0.5-0.5-1.1-0.7-1.5c-1-0.1-3.2-0.1-3.7-0.1
	s-2,0.1-2.6,0.1S55,32.8,55,32.4s0.9-0.4,1.4-0.4s3.3-0.4,3.8-0.4c0.2,0,0.4-0.1,0.5-0.3l-0.8-1.8l-4.7,0.4c-0.5,0.1-1-0.1-1.3-0.5
	c-0.2-0.4,0.4-1.1,0.7-1.5s1.9,0,2.8-0.3c0.6-0.1,1.1-0.1,1.7-0.1v-0.2l-0.5-1.2c-1.3,0.2-2.6,0.3-3.9,0.2c-0.5-0.3-1.6,0.3-1.9,0.2
	s-0.3-1.1,0-1.6s0.6-0.6,1.6-0.4c1.1,0.2,2.2,0.2,3.3,0c-0.4-0.5-0.7-1-0.9-1.5l-4.6,0.4c-0.5,0.1-1.1-0.1-1.4-0.5
	c-0.2-0.4,0.5-1.1,0.8-1.5s3.5,0,4.4-0.3l-0.5-1.2c-1.4,0.2-2.9,0.3-4.4,0.3c-0.5-0.3-1.6,0.2-1.9,0.1s-0.3-0.9,0-1.2
	c0.2-0.5,0.6-0.5,1.6-0.4c1.4,0.2,2.7,0.2,4.1,0.1c-0.5-1-1-1.7-1.2-1.7S50.2,17.2,50.1,17.2z M74.1,51c0-0.2,0.7-1.2,0.5-1.8
	c-0.3-1-0.6-1.1-0.8-1.7c-0.6-2-2.2-2.3-3.1-5s-2.3-4.4-3.4-7.3c-1.1-2.7-2-6.1-3.5-8.5c-1-1.3-1.6-2.8-1.6-4.4
	c-0.3-1.1-0.3-2.2-0.1-3.3c-1,1.1-1.9,0.7-2.2,2.2c0.2,2,0.9,3.9,2.1,5.5c1.5,2.4,2.4,5.8,3.5,8.5c1.1,2.9,2.4,4.8,3.4,7.3
	s2.2,3.1,3.1,5C72.7,48.8,73.3,49.9,74.1,51z M98.8,16.5c0,1.1,0.3,1.7-1.8,2.9s-2.2,1.4-4.4,4.7c-2.4,3.7-2.8,4.2-3.5,6.6
	c-0.8,2.6-2.2,4.1-2.6,6.7c-0.6,2.8-1.2,3.8-2.7,7.9s-3,9-3.9,12.1s-2.6,5.6-3,8.2s-2.1,4.9-2.3,6.5c-0.2,0.9-2.3,1.3-3.5,1.4
	c0.8,0,1.6-0.6,1.7-1.4c0.3-1.6,2-3.9,2.3-6.5s2.2-5.2,3-8.2s2.2-8,3.8-12.1s2.1-5.1,2.7-7.9c0.4-2.7,1.8-4.2,2.6-6.7
	c0.7-2.4,1.1-2.9,3.5-6.6c2.2-3.3,2.2-3.4,4.4-4.7S98.6,17.7,98.8,16.5z M82.8,22.5c0.4,2.2,0.9,4.4,1.8,6.5l0.9-3.5
	c-0.4,0.1-0.9,0.3-1,0.2c-0.3-0.1-0.3-1.1,0-1.6s0.6-0.6,1.6-0.4c0.3,0.1,0.7,0.1,1,0c0.3-0.3,0.6-0.7,0.9-1.1l-2.5,0.2
	c-0.5,0-1.1-0.2-1.4-0.6c-0.2-0.4,0.4-1.1,0.8-1.5s4.3,0,5.2-0.3h0.1l0.8-0.9c-2,0.2-3.9,0.3-5.9,0.2c-0.4-0.3-1.6,0.2-1.9,0.1
	s-0.3-0.9,0-1.2c0.2-0.5,0.6-0.5,1.6-0.4c2.2,0.1,4.4,0,6.6-0.3c-0.3-0.2,0.4-0.8,0-0.8c-1.1,0-4.1,0.3-4.3,0.3
	c-2,0-6.9-0.4-7.7,0.4C79,17.7,82.5,20.4,82.8,22.5L82.8,22.5z"/>
<path class="st0" d="M98.2,14.4c2.2,0,5.4,0.7,7.3,0.9c0.7,0.1,1.4,0.1,2.2,0.1c2.3,0,5.2-0.4,8.1-0.6c0.6-0.1,1.3-0.1,1.9-0.1
	c2.4,0,4.2,0.4,6.5,0.4h1.2c3.1,0.2,6.2,0.7,9.1,1.7c1.8,0.8,3.7,3.6,4.7,5.2s0.9,6.2,1.1,8.2c0,2-1.4,5.8-2.2,7.9
	c-1.2,1.8-2.8,3.3-4.7,4.3c-1.2,0.7-2.5,1.3-3.8,1.7c1,0.6,2.1,1.1,3.2,1.5c1.9,0.5,1.9,1.9,3.3,2.4s1.3,2.5,2.1,3.5
	c0.6,0.9,0.8,2.1,1.4,4.2c0.8,2.3,1.5,4.7,1.9,7.1c0.4,1.8,1.5,4.9,2.6,5.7s2.1,0.6,3.8,0.9c0.9,0.2,1.4,1,1.3,1.9
	c0,0.5-0.1,1-0.4,1.5c-0.5,1.2-1.9,0.6-4.6,1c-0.5,0.1-1,0.1-1.5,0.1c-1.4,0-2-0.3-3.7-0.3c-2.1,0-6-0.4-7.2-1
	c-1.6-0.8-2.8-2.3-3.3-4c-0.3-1.4-0.8-5.7-1-6.9s-2.2-6.5-2.7-8.7s-2.2-3.4-4.7-4.7c-0.7-0.4-1.5-0.6-2.2-0.5
	c-0.7,0-1.4,0.2-3.1,0.2c-1.3,0-2.4,0.9-2.9,2.1c-0.2,0.4-0.3,0.9-0.3,1.3c0,1.1,0.5,2.4,0.6,4.5c0.2,3,0.3,3.9,0.3,6.7s0,5,0.5,6.2
	c0.4,1,3.3,1,3.6,1.9c0,1.4-0.4,2.6-1.2,2.8c-1.1,0.2-7.1,0.4-8.7,0.6c-0.4,0.1-0.9,0.1-1.3,0.2c-2.7,0-5.4-0.2-8.1-0.5
	c-1.1-0.3-1.3-1.4-1.4-2.2c-0.1-1.1,3.1-1.2,3.6-1.5s0.7-0.8,0.7-2c0-0.3-0.1-0.5-0.1-1.5c0-1.8-0.4-4.5-0.4-8.8
	c0-3.6,0.3-8.2,0.3-10.4c0.1-1.3,0.1-2,0.1-2.7c0-1.8-0.2-3.7-0.3-6.1c0-1.2-0.1-2.4-0.1-3.4c0-1.7,0.1-3.3,0.3-5
	c0.1-0.5,0.1-1.1,0.1-1.6c-0.1-2.6-0.4-5.3-0.8-7.9c0-0.2-0.1-0.3-0.1-0.4c-0.1-0.8-0.3-1-0.7-1s-0.7,0.2-1.2,0.2
	c-0.2,0-0.3,0-0.4-0.1c-0.9-0.3-1.3-1.4-1.3-2.8c0-0.4,0.1-0.9,0.2-1.3C96,14.7,97,14.4,98.2,14.4z M102,19.4c0,1.3,0.5,4.4,0.9,7.2
	c0.3,2.3,0.4,4.6,0.4,6.9c0,0.8,0,1.6-0.1,2.4c0,0.5-0.1,1-0.1,1.4c0,2,0.3,4.1,0.3,6.5c0,0.7,0,1.3-0.1,2c-0.2,2-0.2,3.5-0.2,4.8
	c0,1.2,0,2.4-0.2,3.6c-0.2,1.1-0.3,2.3-0.3,3.5c0,1.4,0.1,2.9,0.1,4s-0.1,2.5-0.1,3.9c-0.1,1.1,0.1,2.3,0.4,3.4
	c0.4,0.7,4.2,1.2,5.2,1.2s1.3-0.7,1.6-1.7c-1.3,0-3,0.1-3.5,0.1c-0.6,0.1-1.3,0-1.9-0.3c-0.4-0.2-0.4-1,0.2-1.3s4.6-0.3,5.4-0.1h0.1
	v-1.5h-0.8c-0.4,0-3.9,0.2-4.5,0.2s-0.5-0.9-0.4-1.2c0.7-0.5,1.6-0.7,2.4-0.5c1.1,0.1,2.2,0,3.3-0.2v-1.2c-1.2,0-3.9,0.1-4.6,0.1
	c-0.8,0-1.1-0.9-1.1-1.2s1-0.4,1.7-0.6c1.3-0.1,2.6-0.2,3.9-0.1v-1.8c-1.1,0.1-2.3,0.3-2.8,0.3c-0.7-0.1-1.5-0.1-2.2,0
	c-0.4,0.2-0.4-1.1-0.4-1.5s0.7-0.4,1.3-0.7c1.4-0.1,2.7-0.2,4.1-0.1c0-0.5-0.1-1.2-0.1-1.7c-1.1,0-3.2,0-3.6,0.1c-0.6,0-1.1,0-1.7,0
	c-0.2,0-0.3-1.1,0.1-1.5s1.3-0.3,2.3-0.2c0.9,0.1,1.8,0,2.7-0.2c0-0.7-0.1-1.4-0.1-2c-1.1,0.1-2.7,0.2-3.1,0.3
	c-0.6,0.2-1.2,0.1-1.7-0.1c-0.4-0.3,0.4-1.5,0.7-1.6s2.5-0.2,3.9-0.3c-0.1-0.6-0.1-1.1-0.1-1.7c-0.7,0-1.4,0-2.2-0.1
	c-0.6,0-1.3,0.1-1.9,0.2c-0.6,0-0.6-0.9-0.7-1.2s0.7-0.6,1.3-0.7s2.4-0.1,3.6-0.1v-0.3c0-0.4,0-0.8,0.1-1.2h-3.1
	c-0.6,0-1.2-0.2-1.7-0.6c-0.4-0.4,0.2-1.1,0.5-1.2c0.7-0.2,1.3-0.3,2-0.3c0.3,0,1.5,0,2.7-0.1v-0.8c0-0.2,0-0.4-0.1-0.6
	c-1.5,0.2-3.1,0.3-4.7,0.3c-0.4,0-0.4-0.4-0.9-0.8s-0.4-0.8,0.6-1.2s3.8-0.2,4.7-0.4c0-0.5,0-1-0.1-1.5c-1,0.1-2.9,0.2-3.6,0.2
	s-0.9-0.7-1.2-1.1s0-0.7,0.9-1c0.7-0.2,2.8-0.2,3.8-0.3v-1.6h-0.3c-0.4,0-3.3,0.1-3.9,0.1s-0.5-0.8-0.5-1.2s0.7-0.4,1.2-0.4
	c0.4,0,2.4-0.2,3.5-0.3c0-0.4,0.1-0.9,0.1-1.3l-3.2,0.3c-0.5,0.1-1.1-0.1-1.4-0.5c-0.2-0.4,0.4-1.1,0.8-1.5s3,0,3.9-0.3
	c0-0.3,0.1-0.6,0.1-1c-1.3,0-4,0.4-4.9,0.1c-0.4-0.1-0.3-1.1,0-1.6s0.6-0.6,1.6-0.4c1.1,0.1,2.2,0.2,3.3,0.1V24l-3.9,0.3
	c-0.6,0.1-1.2-0.1-1.7-0.5c-0.2-0.4,0.4-1.1,0.8-1.5s3.8,0,4.8-0.3v-1l-5,0.3c-0.5,0.1-1.1-0.1-1.4-0.5c-0.2-0.4,0.4-1.1,0.8-1.5
	c0.4-0.2,4,0,5.3-0.2c-0.6-0.4-1.2-0.6-1.9-0.6c-0.4-0.1-3-0.1-3.4-0.1c-0.9,0-1.7,0.1-2,0.5C102,18.9,102,19.1,102,19.4L102,19.4z
	 M112,22c0,0.8,0,1.5,0.1,2.6c0.2,2.8,0.8,7.5,0.8,10.2c0,0.5-0.1,1-0.1,1.2c-0.2,1.7-0.3,4.7-0.3,6.5v1.4c0,0.3,0.4,0.3,1,0.3
	c1.5-0.1,2.9-0.3,4.3-0.7c1.6-0.3,4.9,0.1,6.3-1.5c1.2-1.4,1.7-4.2,2.2-6.6l0.2-0.7c0.3-1.4,0.4-2.9,0.4-4.3c0-1.3-0.2-2.6-0.4-3.8
	c-0.6-2.9-1.3-6-3.3-7.2c-1.5-1.2-3.4-1.8-5.4-1.7c-2.2,0-5.4,0-5.6,0.8L112,22z M115.3,48.5c-1.1-0.2-2.2,0.4-2.5,1.5
	c-0.2,0.4-0.3,0.9-0.3,1.3c0,1.1,0.5,2.4,0.6,4.5c0.2,3,0.3,3.9,0.3,6.7s0,5,0.5,6.2c0.4,1,2.6,0.4,2.9,1.4c-0.3-1-0.7-0.9-1.2-1.9
	c-0.5-1.2-0.4-2.8-0.4-5.8s-0.1-3.7-0.3-6.7c-0.1-2.1-0.6-3.5-0.6-4.5c0-0.5,0.1-0.9,0.3-1.3C114.6,50.1,116.5,48.5,115.3,48.5
	L115.3,48.5z M115.2,43.2v-0.8c0-1.8,0.1-4.8,0.3-6.5c0-0.3,0.1-0.7,0.1-1.2c0-2.7-0.6-7.4-0.8-10.2c-0.1-1.1-0.1-1.8-0.1-2.6
	l0.3-3.5c-0.1-0.4-1.8,0.1-1.8,0l-0.3,3.5c0,0.8,0,1.5,0.1,2.6c0.2,2.8,0.8,7.5,0.8,10.2c0,0.5-0.1,1-0.1,1.2
	c-0.2,1.7-0.3,4.7-0.3,7.5C113.6,43.9,115.3,43.3,115.2,43.2L115.2,43.2z M128.5,54c0.5,2,1.8,5.1,2.1,6.5c0.4,2.1,1,4.2,1.7,6.3
	c0.4,1.3,3.2,3,5.1,3.4c0.7,0.1,1.3,0.2,2,0.2c0.5,0,1,0,1.4-0.1c0.1,0-0.6-1-1.3-2.1c-0.8,0-1.7,0-2.5,0.1c-0.6,0.1-1.3,0-1.9-0.3
	c-0.4-0.2-0.4-1,0.2-1.3c1-0.3,2.2-0.3,3.2-0.1c-0.4-1.1-0.4-1.2-0.4-1.4c-0.5-0.1-1.1-0.1-1.6-0.1c-0.4,0-1.8,0.2-2.3,0.2
	s-0.5-0.9-0.4-1.2c0.7-0.5,1.6-0.7,2.4-0.5c0.5,0,1,0,1.5,0c-0.1-0.5-0.2-0.9-0.4-1.3c-1,0-2.9,0.1-3.6,0.1s-1.1-0.9-1.1-1.2
	s1-0.4,1.7-0.6c0.5,0,1.7-0.1,2.5-0.1l-0.4-1.8c-0.8,0.2-1.5,0.2-2.3,0.3c-0.7-0.1-1.5-0.1-2.2,0c-0.4,0.2-0.4-1.1-0.4-1.5
	s0.7-0.4,1.2-0.7c1.1-0.1,2.2-0.2,3.3-0.1c-0.2-0.5-0.4-1.1-0.6-1.7c-0.7,0-2.9,0-3.2,0.1c-0.6,0-1.1,0-1.7,0
	c-0.2,0-0.3-1.1,0.1-1.5s1.3-0.3,2.3-0.2c0.7,0.1,1.4,0,2.1-0.2c-0.2-0.7-0.5-1.4-0.9-2c-0.8,0-2.6,0.2-3.2,0.3
	c-0.6,0.2-1.2,0.1-1.7-0.1c-0.4-0.3,0.4-1.5,0.7-1.6c0.2,0,1.2-0.1,2.2-0.2l-1.2-1c-0.7,0-1.4,0.2-1.8,0.2c-0.6,0.2-1.2,0.1-1.7-0.1
	c-0.3-0.2-0.1-0.8,0.3-1.2c-0.4-0.1-0.9-0.2-1.3-0.2c-0.3,0-0.4,0.1-0.4,0.3c0,0.1,0,0.2,0.1,0.3C126.3,49,127.9,51.9,128.5,54z
	 M128.7,23.5c0.6,2.4,0.8,4.9,0.9,7.4c0,2.6-0.2,5.1-0.6,7.7c-0.1,0.6-1.3,3.5-1.3,3.5s3.6-1.2,3.9-1.2c0-0.1-0.7-0.2-0.8-0.3
	c-0.3-0.6-0.2-1.3,0.4-1.6c0.1-0.1,0.2-0.1,0.3-0.1c0.6-0.1,1.2-0.2,1.8-0.2c0.4-0.5,0.4-0.7,0.7-1.2h-1.4c-0.8,0-0.9-0.7-1.2-1.1
	s0-0.7,0.9-1l3-0.3l0.5-1.6c-0.9,0-2.7,0.1-3.2,0.1s-0.5-0.8-0.5-1.2s0.9-0.4,1.4-0.4c0.3,0,1.7-0.2,2.8-0.3l0.2-2l-2.5,0.3
	c-0.5,0.1-1.1-0.1-1.4-0.5c-0.2-0.4,0.4-1.1,0.8-1.5s2.1,0,3-0.3c-0.1-0.5-0.2-1-0.4-1.4c-0.6,0.2-1.3,0.2-2,0.1
	c-0.4-0.3-1.6,0.3-1.9,0.2s-0.3-1.1,0-1.6s0.6-0.6,1.6-0.4c0.6,0.1,1.1,0.1,1.7,0.1c-0.2-0.4-0.3-0.9-0.4-1.2l-2.5,0.3
	c-0.5,0.1-1.1-0.1-1.4-0.5c-0.2-0.4,0.4-1.1,0.8-1.5c0.5-0.1,1.1-0.2,1.6-0.1c-0.4-0.9-0.5-1-0.5-1l-1.7,0.2
	c-0.5,0.1-1.1-0.1-1.4-0.5c-0.2-0.2,0.1-0.7,0.4-1.1c-0.4-0.3-0.9-0.5-1.3-0.5c-0.2,0-1.4-0.3-1.4-0.1
	C127.3,19.9,128.3,22.1,128.7,23.5z M144.9,67.8c-1.1-0.8-2.2-3.2-2.6-5c-0.4-2.4-1-4.8-1.9-7.1c-0.6-2-0.8-3.3-1.4-4.2
	c-0.8-1-0.6-2.9-2.1-3.5s-1.4-1.9-3.3-2.4c-1.1-0.4-2.2-0.9-3.2-1.5c1.3-0.4,2.6-1,3.8-1.7c1.4-0.9,3.7-2.5,4.7-4.3
	c0.9-2,2.2-5.8,2.2-7.9c-0.2-2-0.1-6.7-1.1-8.2s-2.9-4.4-4.7-5.2c-1.6-0.4-3.9-1.5-6.7-1.7c2.9,0.3,5.7,0.8,8.5,1.6
	c1.8,0.8,3.7,3.6,4.7,5.2s0.9,6.2,1.1,8.2c0,2-1.4,5.8-2.2,7.9c-1.2,1.8-2.8,3.3-4.7,4.3c-1,0.7-2.2,1.2-3.3,1.6
	c0.9,0.6,1.9,1.1,2.9,1.4c3,0.9,4.1,3.2,5.4,6c0.6,1.4,1,2.7,1.4,4.2c0.8,2.3,1.5,4.7,1.9,7.1c0.2,1.4,0.7,2.8,1.5,4
	c0.5,0.8,1.3,1.5,2.2,1.9C146.1,68.3,146,68.6,144.9,67.8z"/>
</svg>
