<svg id="Washer" xmlns="http://www.w3.org/2000/svg" viewBox="0 0 41.01 47.32"><defs><style>.cls-1{fill:none;stroke:#231f20;stroke-miterlimit:10;stroke-width:3px;}.cls-2{fill:#231f20;}</style></defs><title>washer</title><path class="cls-1" d="M19.21,45.82H35.52c2.66,0,4-2.49,4-4.32V6.81A5.52,5.52,0,0,0,34,1.5H6.31A5.16,5.16,0,0,0,1.5,6.81V41.5c0,1.83,1.16,4.32,3.49,4.32Z"/><circle class="cls-2" cx="8.52" cy="9.09" r="2.2"/><circle class="cls-2" cx="16.13" cy="9.09" r="2.2"/><path class="cls-2" d="M32.27,27.11A12.58,12.58,0,1,1,19.7,14.53,12.57,12.57,0,0,1,32.27,27.11ZM19.7,17.8A9.31,9.31,0,1,0,29,27.11,9.31,9.31,0,0,0,19.7,17.8Z"/><path class="cls-2" d="M15,26.57a3.46,3.46,0,0,1,4.66,0,3.44,3.44,0,0,1,4.65,0,3.45,3.45,0,0,1,4.62,0,9.29,9.29,0,0,0-18.55,0A3.45,3.45,0,0,1,15,26.57Z"/></svg>