<?xml version="1.0" standalone="no"?>
<!DOCTYPE svg PUBLIC "-//W3C//DTD SVG 20010904//EN"
 "http://www.w3.org/TR/2001/REC-SVG-20010904/DTD/svg10.dtd">
<svg version="1.0" xmlns="http://www.w3.org/2000/svg"
 width="700.000000pt" height="700.000000pt" viewBox="0 0 700.000000 700.000000"
 preserveAspectRatio="xMidYMid meet">
<metadata>
Created by potrace 1.11, written by Peter Selinger 2001-2013
</metadata>
<g transform="translate(0.000000,700.000000) scale(0.100000,-0.100000)"
fill="#000000" stroke="none">
<path d="M4285 5165 c-112 -24 -182 -25 -265 -7 -58 13 -364 14 -412 1 -40
-10 -75 -50 -84 -96 -8 -41 17 -67 111 -116 64 -34 84 -50 102 -83 54 -98 63
-287 22 -439 -33 -124 -47 -186 -54 -240 -23 -191 -41 -252 -133 -460 -22 -49
-54 -136 -71 -192 -22 -72 -35 -101 -45 -97 -18 7 -44 45 -100 145 -26 47 -68
112 -93 145 -24 32 -61 93 -80 134 -19 41 -61 129 -93 195 -31 66 -74 165 -94
220 -69 186 -100 260 -150 349 -114 208 -116 305 -7 360 48 25 101 77 101 100
0 17 -35 53 -69 71 -30 15 -123 14 -266 -4 -75 -9 -342 -6 -520 5 -240 16
-275 9 -277 -54 -1 -27 -4 -30 -19 -21 -31 16 -189 50 -298 64 -115 14 -618
17 -699 5 -167 -27 -258 -33 -465 -31 -246 1 -235 4 -241 -55 -4 -34 18 -112
36 -130 7 -7 39 -14 70 -15 45 -2 62 -7 78 -24 29 -31 32 -52 30 -220 -5 -375
-3 -1304 4 -1635 10 -437 10 -447 -5 -483 -11 -25 -17 -28 -53 -26 -78 3 -86
1 -100 -33 -17 -39 -12 -84 10 -109 17 -19 40 -20 144 -5 111 17 393 24 614
17 114 -4 148 21 150 111 1 39 -2 44 -34 60 -19 10 -53 22 -75 28 -81 20 -80
14 -84 237 -9 458 -6 554 15 613 l19 55 170 1 c268 2 297 7 620 110 83 27 120
55 277 210 127 126 154 158 183 219 80 169 109 361 75 496 -21 79 -71 208 -96
247 -24 37 -9 37 19 0 14 -18 49 -92 78 -163 52 -128 53 -131 53 -235 0 -122
-24 -221 -81 -338 -31 -63 -58 -96 -200 -235 -90 -89 -189 -179 -219 -199 -49
-33 -136 -68 -169 -68 -22 0 -146 -57 -133 -62 37 -12 150 1 223 27 146 50
186 78 353 244 85 86 167 175 184 199 52 75 118 234 110 265 -1 4 2 7 8 7 5 0
10 -5 10 -11 0 -11 82 -177 155 -314 23 -44 68 -129 99 -188 32 -60 71 -149
87 -199 17 -50 45 -119 64 -153 19 -34 43 -93 55 -131 30 -97 53 -152 120
-285 72 -143 87 -188 96 -275 8 -90 10 -96 28 -133 45 -86 163 -135 240 -100
16 7 30 26 37 48 6 20 31 81 54 136 24 55 46 116 50 135 11 56 43 157 60 190
8 16 13 30 9 30 -4 0 -2 6 4 13 25 30 134 351 158 465 2 13 32 98 65 190 60
164 135 383 183 532 30 93 107 285 146 365 37 74 176 289 216 332 37 40 172
126 185 117 6 -3 -22 -28 -63 -54 -80 -52 -108 -84 -217 -259 -77 -122 -101
-167 -127 -246 -9 -27 -29 -78 -45 -112 -48 -104 -56 -128 -79 -214 -12 -46
-55 -176 -97 -289 -72 -197 -105 -295 -160 -480 -53 -176 -67 -218 -118 -340
-29 -69 -60 -158 -69 -197 -16 -72 -36 -129 -74 -214 -11 -24 -26 -61 -32 -82
-7 -21 -21 -46 -32 -57 -20 -18 -20 -18 14 -10 67 15 87 31 107 84 10 28 30
76 44 106 28 62 46 115 53 157 6 36 51 161 102 288 23 55 66 186 97 290 53
181 146 451 187 543 10 23 35 102 55 175 20 72 52 166 71 207 19 41 47 110 63
153 16 43 34 88 40 100 29 56 174 279 205 316 37 43 122 107 130 98 3 -3 18
-1 34 3 18 5 34 4 43 -3 14 -12 30 -80 42 -182 3 -27 8 -68 11 -90 6 -47 5
-247 -1 -290 -5 -35 -5 -306 0 -385 7 -104 7 -286 0 -545 -9 -327 -9 -367 0
-545 13 -246 12 -286 -7 -307 -10 -10 -43 -24 -75 -31 -68 -14 -103 -35 -103
-63 0 -28 27 -76 48 -88 41 -22 380 -33 557 -19 50 4 128 10 175 14 94 6 117
9 142 19 24 10 43 65 39 116 -1 16 -66 50 -122 64 -25 6 -39 24 -54 70 -3 11
-8 81 -11 155 -13 413 -14 427 -35 553 -13 83 -7 119 27 165 37 48 75 60 195
65 116 5 159 -8 255 -74 84 -57 103 -85 134 -190 12 -41 43 -141 70 -224 48
-148 56 -180 66 -280 4 -27 8 -53 10 -56 1 -3 6 -34 10 -70 16 -158 111 -260
265 -284 77 -12 318 -29 414 -28 72 0 230 12 248 19 56 21 56 161 0 178 -10 3
-40 8 -68 11 -124 15 -159 47 -215 197 -18 49 -42 143 -54 213 -3 17 -17 68
-31 115 -14 47 -37 123 -51 169 -14 47 -39 111 -55 143 -16 31 -29 63 -29 69
0 18 -49 79 -63 79 -7 0 -36 22 -65 49 -29 27 -68 54 -85 61 -57 21 -147 64
-147 69 0 3 43 26 95 50 105 48 210 129 258 198 65 91 139 336 132 434 -2 24
-7 87 -10 139 -10 168 -14 180 -77 273 -44 65 -131 163 -158 177 -18 9 -187
55 -240 64 -19 3 -45 8 -57 10 -12 3 -69 7 -125 11 -57 3 -139 8 -183 12 -115
9 -286 9 -390 -1 -49 -5 -108 -10 -130 -12 -61 -5 -265 -5 -273 -1 -4 3 -32 8
-62 12 -30 3 -66 9 -80 12 -14 2 -99 6 -190 8 -143 3 -179 1 -275 -20z m-1754
-124 c12 -16 21 -33 20 -38 -1 -4 -58 -8 -128 -8 l-127 0 -10 -27 c-5 -15 -7
-31 -3 -34 8 -8 186 -8 252 0 49 7 51 6 62 -24 11 -29 11 -30 -20 -31 -157 -3
-170 -5 -189 -28 -10 -13 -18 -31 -18 -41 0 -21 37 -39 76 -35 16 2 68 6 115
10 l86 7 21 -36 21 -36 -37 -1 c-67 -2 -77 -2 -122 5 -57 8 -70 -1 -77 -51
l-5 -40 108 3 c60 2 124 6 141 9 30 5 34 3 46 -27 8 -18 14 -34 13 -35 -1 -1
-46 -5 -101 -8 -106 -7 -131 -19 -140 -63 -7 -37 24 -45 143 -37 59 4 109 8
112 10 17 10 67 -72 53 -86 -5 -4 -34 -10 -65 -13 -32 -3 -84 -9 -115 -12 -67
-7 -76 -13 -71 -45 3 -23 6 -24 98 -26 52 0 122 -1 156 -2 55 -1 62 -3 72 -26
19 -41 15 -44 -50 -43 -120 1 -218 -21 -218 -51 0 -5 9 -20 21 -34 19 -25 25
-26 82 -22 34 3 73 7 87 9 14 3 52 8 85 11 l61 6 17 -37 c10 -20 16 -38 14
-40 -2 -2 -31 -6 -65 -9 -33 -2 -71 -7 -84 -9 -13 -3 -40 -8 -61 -11 -78 -11
-95 -35 -52 -75 22 -21 30 -22 92 -16 37 4 102 9 145 12 l76 6 17 -32 c9 -17
14 -34 12 -37 -6 -5 -40 -9 -149 -18 -110 -8 -129 -11 -145 -28 -18 -18 -8
-42 23 -55 33 -15 267 -10 287 6 11 10 17 10 24 0 19 -24 44 -78 36 -79 -5 0
-63 -2 -130 -4 -68 -2 -132 -9 -143 -15 -22 -12 -27 -52 -7 -67 14 -11 282
-10 315 1 19 6 25 2 38 -29 22 -53 31 -50 -141 -59 -126 -7 -158 -18 -170 -57
-10 -31 11 -39 80 -32 54 6 114 7 225 4 27 -1 36 -5 36 -18 0 -10 3 -30 7 -45
8 -32 21 -30 -175 -32 -58 0 -109 -4 -113 -8 -3 -3 -9 -20 -11 -37 -6 -37 -23
-34 196 -32 l165 2 21 -28 c40 -55 43 -52 -80 -52 -154 1 -192 -17 -167 -82 8
-24 12 -25 92 -23 46 1 114 5 151 9 l66 7 -5 -39 c-3 -21 -10 -41 -15 -44 -6
-4 -37 -7 -71 -8 -74 -1 -137 -17 -137 -34 0 -7 6 -21 13 -31 11 -15 27 -18
92 -17 l80 1 -21 -20 c-43 -44 -162 -68 -221 -46 -7 3 -26 32 -43 66 -17 33
-49 91 -72 128 -49 80 -80 147 -120 262 -30 88 -39 108 -106 250 -22 47 -68
150 -102 230 -34 80 -86 188 -115 240 -30 52 -61 120 -70 150 -74 251 -152
454 -211 550 -41 67 -122 235 -126 259 -4 33 9 36 198 38 l154 2 21 -28z
m1730 1 c-12 -21 -20 -22 -211 -29 -103 -4 -168 -10 -173 -17 -4 -6 -6 -22 -5
-35 l3 -25 145 2 c80 2 163 4 184 6 l39 3 -26 -23 c-22 -19 -38 -22 -134 -23
-114 -2 -146 -12 -158 -51 -13 -40 11 -52 96 -48 l77 4 -15 -23 c-8 -13 -25
-24 -37 -24 -24 -2 -24 -1 -58 5 -36 6 -46 -4 -54 -52 -6 -40 -6 -42 20 -42
31 0 30 4 8 -85 l-18 -69 -21 59 c-31 85 -40 119 -59 210 -17 84 -36 116 -122
207 -44 46 -45 47 -21 52 41 9 86 11 321 12 201 1 226 -1 219 -14z m1404 -35
c144 -67 186 -132 235 -369 23 -110 28 -216 16 -313 -10 -77 -60 -289 -82
-346 -34 -89 -92 -126 -212 -134 -52 -4 -77 -7 -167 -21 -16 -3 -46 -9 -65
-14 -19 -4 -57 -8 -85 -7 l-50 2 1 125 c1 69 4 188 7 265 3 93 -1 199 -13 315
-18 181 -23 395 -11 465 6 37 9 41 51 51 24 6 105 10 180 9 125 -1 139 -3 195
-28z m-4370 -12 c133 -26 222 -148 309 -420 48 -151 57 -214 45 -315 -4 -36
-10 -90 -14 -120 -17 -156 -53 -221 -191 -356 -60 -59 -118 -96 -159 -101 -81
-11 -295 1 -328 18 -33 17 -77 60 -94 92 -27 53 -29 84 -23 527 1 85 -1 166
-4 180 -13 56 -21 162 -21 275 0 105 3 125 22 162 22 40 44 53 108 65 35 7
308 2 350 -7z m3753 3 c23 -5 42 -12 42 -16 0 -4 -53 -8 -118 -10 -108 -2
-118 -4 -134 -25 -23 -28 -23 -54 0 -65 15 -9 128 -8 235 2 27 2 40 -1 44 -11
10 -27 -15 -35 -117 -39 -91 -3 -103 -6 -120 -26 -50 -60 -5 -83 131 -70 52 5
97 7 102 5 4 -2 7 -20 7 -40 l0 -35 -112 3 -112 4 -9 -39 c-7 -29 -6 -40 4
-47 8 -6 62 -8 122 -6 100 4 107 3 107 -15 0 -24 -8 -26 -104 -31 -73 -4 -82
-7 -102 -32 -48 -60 1 -80 154 -61 41 5 42 4 42 -24 0 -34 -6 -37 -125 -45
-43 -3 -83 -9 -88 -14 -5 -5 -7 -19 -5 -32 3 -23 6 -24 111 -27 l107 -3 0 -34
c0 -29 -4 -35 -22 -36 -50 -1 -134 -9 -158 -15 -43 -10 -51 -22 -35 -54 19
-37 33 -40 133 -35 l83 4 -3 -36 c-3 -41 3 -38 -129 -46 -112 -7 -138 -26
-103 -76 16 -22 21 -23 133 -20 l116 4 3 -31 3 -31 -73 -2 c-124 -3 -187 -26
-173 -64 10 -24 60 -37 147 -37 l79 0 -3 -32 -3 -32 -88 -2 c-108 -3 -139 -18
-128 -61 7 -28 8 -28 97 -29 132 -2 123 1 121 -41 -2 -41 0 -40 -121 -46 -61
-3 -70 -6 -84 -29 -8 -14 -12 -33 -9 -42 7 -17 41 -18 195 -1 l32 3 0 -49 c0
-56 8 -53 -141 -50 -85 1 -103 -9 -97 -56 l3 -28 123 3 122 3 0 -40 0 -41 -90
0 c-112 0 -165 -18 -155 -52 4 -13 9 -30 11 -40 4 -14 18 -16 108 -13 56 2
109 5 117 7 10 2 15 -9 17 -37 l3 -40 -88 -2 c-121 -3 -167 -13 -171 -39 -6
-39 21 -47 144 -45 l115 2 -3 -28 -3 -28 -95 -3 c-114 -3 -170 -16 -170 -40 1
-40 11 -43 143 -37 l127 6 0 -35 0 -35 -106 3 c-58 2 -116 1 -128 -1 -26 -5
-48 -36 -40 -57 9 -24 41 -30 156 -28 l106 1 -15 -29 c-21 -43 -46 -53 -111
-45 -76 9 -170 31 -185 44 -7 5 -14 25 -16 43 -7 59 -5 581 2 658 18 185 21
407 14 860 -5 323 -7 353 -32 519 -7 53 -17 133 -21 177 -5 73 -4 83 12 92 22
13 211 12 272 0z m1006 -18 c12 -9 13 -17 5 -32 -17 -31 15 -49 84 -46 43 2
60 -1 67 -12 16 -25 12 -30 -24 -30 -27 0 -39 -7 -57 -31 -20 -29 -20 -32 -5
-47 13 -14 33 -16 95 -15 75 3 78 2 90 -23 l12 -27 -70 6 c-79 6 -89 0 -93
-54 l-3 -34 97 1 96 2 4 -29 c3 -16 2 -31 0 -34 -3 -3 -34 -5 -68 -5 -56 0
-65 -3 -83 -26 -44 -56 -13 -80 90 -70 l69 7 0 -45 c0 -25 -3 -46 -7 -47 -5 0
-17 -2 -28 -4 -11 -2 -49 -7 -85 -10 -75 -7 -85 -14 -76 -50 6 -25 10 -26 64
-25 105 3 103 3 96 -27 -9 -40 -14 -43 -85 -50 -80 -7 -109 -18 -109 -40 1
-34 27 -55 74 -60 42 -5 45 -7 34 -27 -15 -30 -13 -29 -60 -33 -53 -5 -93 -40
-83 -72 3 -11 14 -21 23 -21 10 0 12 -3 6 -9 -10 -10 -132 -51 -150 -51 -9 0
-4 24 16 78 52 145 71 496 35 679 -2 11 -6 36 -9 54 -3 19 -19 75 -35 124 -15
50 -32 105 -36 124 l-7 34 51 -5 c27 -3 57 -11 65 -18z m-5439 -15 c93 -12
110 -20 117 -59 5 -23 3 -24 -71 -23 -94 0 -112 -6 -134 -42 -22 -38 -22 -46
6 -58 21 -10 39 -10 134 -2 23 2 43 1 43 -3 0 -5 0 -19 0 -33 l0 -25 -77 6
c-68 6 -80 4 -95 -12 -15 -18 -22 -42 -19 -72 1 -9 21 -11 85 -6 l84 7 7 -32
c4 -18 5 -34 3 -36 -2 -2 -36 -5 -76 -6 -68 -2 -74 -4 -94 -32 -35 -49 -18
-62 88 -62 l89 0 3 -42 c2 -24 1 -43 -2 -43 -11 0 -163 -21 -182 -25 -17 -4
-20 -10 -16 -35 l4 -30 100 0 99 0 -5 -31 c-2 -17 -7 -33 -10 -36 -3 -3 -41
-9 -83 -13 -100 -10 -115 -16 -107 -44 14 -48 31 -55 115 -51 55 2 79 0 80 -8
0 -7 2 -22 5 -34 2 -13 1 -23 -4 -24 -4 0 -14 -2 -23 -4 -8 -1 -42 -6 -75 -10
-73 -8 -108 -28 -95 -54 21 -38 38 -43 125 -39 81 4 85 3 89 -18 6 -36 -3 -41
-83 -47 -86 -6 -107 -12 -120 -36 -20 -39 24 -59 125 -58 l80 1 3 -36 3 -35
-53 0 c-119 -1 -137 -4 -157 -21 -18 -14 -20 -22 -13 -42 9 -24 12 -25 113
-25 l104 0 3 -34 c4 -42 -4 -48 -76 -50 -97 -3 -121 -10 -138 -44 -13 -24 -14
-31 -2 -38 12 -8 128 -4 191 7 23 4 27 1 28 -18 0 -13 2 -35 3 -50 2 -33 -19
-39 -121 -32 -81 5 -106 -9 -101 -55 l3 -26 110 0 110 0 0 -37 1 -38 -73 0
c-40 0 -75 0 -78 0 -3 0 -18 -6 -34 -15 -24 -12 -29 -20 -25 -42 8 -51 7 -50
108 -47 l96 2 0 -39 0 -39 -62 0 c-74 0 -138 -16 -138 -34 0 -6 6 -21 14 -31
11 -16 26 -18 100 -17 l86 2 0 -30 c0 -17 -5 -30 -12 -30 -65 -2 -156 -10
-170 -15 -19 -8 -23 -31 -9 -53 6 -10 28 -12 93 -7 85 6 85 6 83 -17 -1 -13
-3 -29 -4 -36 -1 -9 -19 -11 -65 -9 -77 5 -126 -12 -126 -43 0 -27 34 -40 113
-43 50 -2 62 -5 65 -20 3 -15 -4 -17 -50 -16 -30 1 -64 -4 -77 -10 -21 -12
-22 -14 -6 -37 15 -23 15 -24 -7 -24 -31 1 -99 32 -118 55 -16 20 -18 82 -4
165 15 90 5 465 -17 635 -11 88 -14 240 -5 295 13 84 20 294 17 530 -9 610 -7
671 13 699 22 29 47 31 171 16z m1096 -11 c58 -17 149 -64 149 -77 0 -4 -18
-6 -40 -4 -35 4 -44 0 -65 -25 -30 -36 -31 -43 -4 -61 19 -14 80 -15 186 -3
27 3 36 -1 52 -27 11 -17 18 -34 16 -38 -5 -7 -74 -4 -133 6 -36 6 -42 4 -57
-19 -9 -14 -15 -35 -13 -48 3 -23 5 -23 132 -23 126 -1 129 -1 138 -24 5 -13
6 -26 3 -29 -3 -3 -47 -7 -97 -9 -88 -4 -94 -6 -121 -35 -28 -29 -28 -30 -10
-50 17 -18 26 -20 122 -13 57 3 109 7 115 8 6 1 12 -18 14 -45 2 -34 -1 -48
-10 -48 -15 -1 -96 -9 -178 -19 -53 -6 -55 -7 -55 -36 l0 -30 113 -1 c62 -1
115 -4 118 -7 3 -3 3 -18 0 -34 -6 -25 -12 -29 -44 -31 -116 -6 -180 -15 -200
-28 -21 -14 -21 -16 -7 -43 19 -37 29 -40 119 -35 l77 4 -16 -30 c-19 -37 -45
-48 -119 -51 -100 -4 -140 -36 -99 -81 11 -12 30 -18 62 -18 l46 0 -25 -20
c-34 -27 -159 -88 -190 -92 -22 -3 -25 0 -22 22 4 30 32 121 42 135 11 15 38
124 44 175 36 302 33 322 -74 600 -47 123 -64 183 -52 194 9 9 24 7 83 -10z
m4236 -1303 c1 -1 -2 -12 -7 -26 -7 -19 -6 -26 8 -34 9 -4 26 -7 37 -5 64 10
123 6 148 -11 15 -10 26 -19 24 -21 -1 -2 -25 -5 -52 -7 -39 -3 -53 -9 -68
-29 -11 -15 -17 -34 -13 -43 5 -14 17 -16 93 -10 49 4 100 8 115 10 23 3 29
-3 46 -43 l21 -47 -22 -6 c-12 -3 -53 -4 -92 -2 -38 2 -76 -1 -83 -6 -8 -4
-14 -24 -15 -42 l-2 -34 116 3 116 3 16 -41 15 -40 -73 0 c-73 0 -124 -12
-136 -31 -3 -6 -3 -25 0 -42 l7 -32 112 1 c62 1 112 1 112 0 1 0 3 -18 6 -38
l6 -38 -58 0 c-65 0 -134 -18 -134 -35 0 -6 6 -20 14 -30 11 -16 26 -18 108
-17 l96 2 5 -27 c3 -16 4 -29 3 -30 -2 -2 -37 -5 -80 -7 -85 -4 -99 -11 -94
-47 3 -23 6 -24 93 -25 115 0 115 -1 115 -22 0 -10 5 -23 12 -30 9 -9 -2 -11
-48 -10 -91 2 -100 0 -111 -25 -21 -45 21 -64 129 -60 l77 3 32 -46 c17 -25
28 -48 25 -51 -4 -4 -35 -6 -70 -5 -97 2 -178 34 -268 105 -45 36 -66 87 -112
272 -43 174 -128 424 -195 574 -28 62 -48 117 -45 122 4 7 49 6 71 0z"/>
<path d="M5282 4995 c-9 -15 -11 -326 -2 -376 23 -126 29 -327 18 -631 l-5
-158 27 0 c54 0 57 10 65 205 3 99 7 194 7 210 1 34 -11 224 -16 270 -19 145
-26 359 -15 432 3 23 3 47 -1 53 -8 13 -69 10 -78 -5z"/>
<path d="M914 4970 c-40 -16 -57 -66 -60 -180 -1 -58 1 -131 6 -162 15 -106
23 -202 23 -268 -4 -345 -4 -478 0 -495 3 -11 6 -28 6 -37 1 -24 47 -74 83
-93 39 -19 42 -16 24 21 -27 54 -30 89 -31 409 0 176 -4 345 -8 375 -30 217
-28 321 7 393 l23 47 -26 -1 c-14 0 -36 -4 -47 -9z"/>
<path d="M6217 5110 c51 -16 101 -33 111 -39 48 -26 178 -185 207 -254 7 -18
16 -53 20 -77 3 -25 8 -57 10 -71 13 -74 7 -287 -9 -344 -23 -84 -47 -158 -56
-170 -4 -5 -10 -22 -14 -37 -9 -38 -77 -121 -144 -174 -31 -25 -101 -67 -155
-93 -114 -55 -114 -53 13 -106 49 -20 101 -51 130 -77 27 -24 62 -53 79 -66
17 -13 31 -28 31 -33 0 -5 18 -49 40 -98 47 -104 75 -194 135 -430 24 -96 58
-203 75 -237 36 -73 100 -134 141 -134 15 0 36 -3 46 -6 16 -5 16 -4 -2 10
-82 66 -123 138 -151 265 -85 387 -204 680 -305 751 -17 13 -66 37 -109 55
-43 18 -88 39 -100 48 -21 15 -20 15 35 41 137 62 275 178 316 265 23 48 67
172 73 206 3 11 9 40 15 65 14 62 5 306 -15 404 -11 51 -80 158 -158 243 -28
31 -94 70 -132 77 -11 2 -58 13 -105 25 -121 29 -131 25 -22 -9z"/>
<path d="M2848 4942 c-77 -52 -62 -136 64 -362 20 -36 66 -146 103 -245 37
-98 88 -220 112 -270 25 -49 63 -130 84 -179 22 -48 59 -114 83 -145 23 -31
60 -85 81 -121 57 -97 79 -130 86 -130 8 0 19 38 19 68 0 33 -56 138 -108 202
-25 30 -51 71 -59 90 -9 19 -43 94 -78 165 -71 146 -86 181 -145 345 -43 117
-63 161 -137 305 -34 64 -44 98 -54 168 -6 49 -9 99 -6 113 5 29 2 29 -45 -4z"/>
<path d="M5297 3574 c-45 -45 -54 -97 -32 -194 14 -64 24 -207 30 -460 5 -211
10 -249 33 -271 14 -14 122 -53 122 -44 0 1 -11 15 -24 30 -37 43 -45 98 -51
340 -5 242 -9 301 -29 420 -14 91 -8 125 28 162 35 35 33 43 -13 43 -28 0 -45
-7 -64 -26z"/>
<path d="M950 3453 c-38 -27 -45 -77 -43 -313 1 -124 4 -259 7 -300 3 -41 5
-91 5 -111 1 -40 20 -66 71 -98 53 -32 59 -26 34 27 -20 42 -23 68 -29 267
-11 318 -9 412 7 482 l15 63 -24 -2 c-14 -2 -33 -8 -43 -15z"/>
</g>
</svg>
